<svg xmlns="http://www.w3.org/2000/svg" xmlns:xlink="http://www.w3.org/1999/xlink" width="48" height="48" viewBox="0 0 48 48">
  <defs>
    <rect id="送货上门2px-a" width="48" height="48" x="0" y="0"/>
  </defs>
  <g fill="none" fill-rule="evenodd">
    <mask id="送货上门2px-b" fill="#fff">
      <use xlink:href="#送货上门2px-a"/>
    </mask>
    <path fill="#FF2741" d="M34.6388714,37.725232 C32.3905184,37.725232 30.5612246,35.8959383 30.5612246,33.6475853 C30.5612246,31.402399 32.3905184,29.5720497 34.6388714,29.5720497 C36.8882799,29.5720497 38.7175737,31.402399 38.7133587,33.6475853 C38.7133587,35.8959383 36.8882799,37.725232 34.6388714,37.725232 L34.6388714,37.725232 Z M22.3320416,30.7975604 L22.2465408,26.9257488 C22.5748215,26.9827493 22.9083799,27.0123051 23.2419384,27.0123051 C27.5993098,27.0123051 31.1470631,22.0458728 31.1502298,15.9489306 C31.1502298,13.862079 30.7385595,11.8470058 29.973275,10.1116573 L32.0706822,10.1116573 L36.572666,26.2396317 C36.5758327,26.2501873 36.580055,26.2607429 36.5832217,26.270243 C36.5832217,26.2712986 36.5832217,26.2723542 36.5842773,26.2734097 C36.5937773,26.3050767 36.604333,26.3346325 36.6169998,26.3641883 C36.6180553,26.3662994 36.6191109,26.3684106 36.6201665,26.3715772 C36.6518334,26.4475779 36.6930004,26.5183008 36.7405008,26.5826902 C36.7447231,26.587968 36.7478898,26.5932459 36.7521121,26.5974681 C36.7658344,26.6154127 36.7785012,26.6312462 36.7922235,26.6481352 C36.800668,26.6576353 36.8091126,26.6660798 36.8175571,26.6755799 C36.8238905,26.6829689 36.8312794,26.6903578 36.8386684,26.6977468 C36.8545018,26.7135802 36.8703353,26.7294137 36.8872243,26.7441916 C36.8914466,26.7473583 36.8946133,26.750525 36.89778,26.7526361 C37.0613925,26.8951374 37.2693388,26.9880271 37.4983964,27.0080828 C37.5026186,27.0080828 37.5068409,27.0080828 37.5100076,27.0091384 C37.5363967,27.0112495 37.5627858,27.0123051 37.5891749,27.0123051 C39.407913,27.0123051 40.8888704,28.4922069 40.8888704,30.310945 C40.8888704,30.4724464 40.8698703,30.652948 40.8371478,30.8376718 L40.140475,30.8144494 C39.1102438,28.8257654 37.0350034,27.4640868 34.6430936,27.4640868 C32.2585728,27.4640868 30.1854435,28.8183764 29.1520456,30.7975604 L22.3320416,30.7975604 Z M17.9947259,33.8882541 C17.8807249,35.9624389 16.0915426,37.684065 14.0057466,37.725232 C12.855181,37.7062319 11.8576722,37.3357286 11.0712765,36.5630552 C10.2838251,35.7956596 9.84998802,34.7601506 9.84998802,33.6549742 C9.84998802,33.4005831 9.87215488,33.1504143 9.91754417,32.9055232 L17.9345587,32.9055232 C17.9936703,33.2243038 18.0147816,33.5525845 17.9947259,33.8882541 L17.9947259,33.8882541 Z M7.22585397,27.8873683 L9.2483161,20.216579 C9.45309566,19.4417945 10.1466017,18.9108454 10.9446087,18.9108454 L10.9741645,18.9108454 L17.7910019,19.0142907 C19.0080681,19.0332909 19.9802432,20.0012438 20.0066324,21.2151433 L20.1005776,25.4447914 C20.0995221,25.4838473 20.1005776,25.5239587 20.1026887,25.5640702 L20.2188009,30.7933381 L8.28669658,30.7933381 C7.97108271,30.7933381 7.59741278,30.4143904 7.33035489,29.8253852 C7.0780749,29.275436 7.04007457,28.5850966 7.22585397,27.8873683 L7.22585397,27.8873683 Z M37.8783997,17.4003322 L38.7513518,20.5575264 L37.1817269,20.5659709 L36.3140527,17.4552215 L37.8783997,17.4003322 Z M38.4104043,24.965565 L37.7696765,22.6707671 L38.9550758,22.6623226 C39.5715256,22.6549337 40.1394194,22.3730979 40.5099227,21.8790935 C40.8814815,21.3861448 40.9997047,20.7665283 40.8360922,20.1690786 L39.9156397,16.8366606 C39.6781376,15.9858754 38.8991308,15.392648 38.0156231,15.392648 L35.7387699,15.392648 L33.8894204,8.76792338 C33.7996974,8.44703169 33.5685287,8.20319622 33.2835262,8.08286184 C33.2676927,8.07652845 33.2539704,8.07125062 33.2391925,8.06491723 L33.2296924,8.06175054 C33.2170256,8.05858385 33.2054144,8.05436159 33.191692,8.05013933 C33.1874698,8.0480282 33.1832475,8.04697263 33.1779697,8.04591707 C33.1663585,8.04169481 33.1547473,8.03852811 33.1420805,8.03536142 C33.1378582,8.03430586 33.133636,8.03325029 33.1283582,8.03219473 C33.1167469,8.02797247 33.1030246,8.02586134 33.0903578,8.02269464 C33.0861356,8.02163908 33.0829689,8.02163908 33.0798022,8.02058351 C33.0660798,8.01741682 33.0502464,8.01530569 33.0354685,8.01319456 L33.0312462,8.01319456 C32.9700234,8.00263891 32.9066896,7.99841665 32.8433557,8.00052778 L22.306708,8.00052778 C21.7250918,8.00052778 21.2532544,8.47553193 21.2532544,9.05820369 C21.2532544,9.64087545 21.7250918,10.1116573 22.306708,10.1116573 L27.6119766,10.1116573 C28.5324291,11.7435605 29.0348779,13.7924117 29.0348779,15.9489306 C29.0348779,20.8847515 26.437133,24.9043422 23.2419384,24.9043422 C22.8893798,24.9043422 22.5399878,24.8536751 22.1979848,24.754452 L22.1188175,21.1665873 C22.0660392,18.8105667 20.1808005,16.9369392 17.82478,16.9021056 L11.006887,16.7997158 L10.9446087,16.7997158 C9.19342673,16.7997158 7.6596911,17.975615 7.21213163,19.6750743 L5.18544725,27.3490302 C4.87722233,28.5217627 4.95533413,29.7134953 5.40394916,30.7046707 C5.95495398,31.9048478 6.80362806,32.6648545 7.78635887,32.8569673 C7.75152524,33.1198029 7.7346362,33.3858052 7.7346362,33.6549742 C7.7346362,35.3312111 8.39119749,36.9018915 9.59031909,38.074624 C10.754607,39.2167451 12.2872871,39.8405839 13.9170791,39.8405839 C13.9571906,39.8405839 14.0015243,39.8374172 14.0469136,39.8374172 C17.2114968,39.77725 19.9285206,37.1615604 20.1026887,34.0033106 C20.1248556,33.6328074 20.1143,33.2654708 20.0710218,32.9055232 L20.3401908,32.9055232 L28.498651,32.9055232 C28.4680396,33.1493587 28.4532617,33.3974164 28.4532617,33.650752 C28.4532617,37.0612818 31.2293971,39.8405839 34.6388714,39.8405839 C38.0525679,39.8405839 40.8287032,37.0612818 40.8287032,33.650752 C40.8287032,33.4132499 40.8160365,33.1789145 40.7885918,32.949857 L41.6013767,32.9751905 L41.6340992,32.9751905 C41.6594327,32.9751905 41.6847663,32.974135 41.7090443,32.9720238 L41.7111554,32.9720238 C41.8452121,32.9614682 41.9718799,32.9266345 42.0890476,32.8706896 L42.0901032,32.8706896 C42.1080478,32.8622451 42.1270479,32.8516894 42.1449925,32.8411338 C42.1523815,32.8369115 42.1587149,32.8337448 42.1661038,32.8295226 C42.1798262,32.8210781 42.1924929,32.8136891 42.2062153,32.804189 C42.388828,32.6880769 42.5344959,32.5139087 42.6178855,32.2996291 C42.8669988,31.6504567 43,30.9485061 43,30.3141117 C43,27.6097547 41.0049826,25.3624573 38.4104043,24.965565 L38.4104043,24.965565 Z" mask="url(#送货上门2px-b)"/>
  </g>
</svg>
