<svg xmlns="http://www.w3.org/2000/svg" width="32" height="32" viewBox="0 0 32 32">
  <path fill="#999" d="M19.5,5 C18.7,5 18,4.3 18,3.5 C18,2.7 18.7,2 19.5,2 L30.5,2 C31.3,2 32,2.7 32,3.5 C32,4.3 31.3,5 30.5,5 L19.5,5 Z M30.5,9.1 C31.3,9.1 32,9.8 32,10.6 C32,11.4 31.3,12.1 30.5,12.1 L19.5,12.1 C18.7,12.1 18,11.4 18,10.6 C18,9.8 18.7,9.1 19.5,9.1 L30.5,9.1 Z M30.5,19.9 C31.3,19.9 32,20.6 32,21.4 C32,22.2 31.3,22.9 30.5,22.9 L19.5,22.9 C18.7,22.9 18,22.2 18,21.4 C18,20.6 18.7,19.9 19.5,19.9 L30.5,19.9 Z M30.5,27 C31.3,27 32,27.7 32,28.5 C32,29.3 31.3,30 30.5,30 L19.5,30 C18.7,30 18,29.3 18,28.5 C18,27.7 18.7,27 19.5,27 L30.5,27 Z M8.5,0 C11.5,0 14,2.5 14,5.5 L14,8.5 C14,11.5 11.5,14 8.5,14 L5.5,14 C2.5,14 0,11.5 0,8.5 L0,5.5 C0,2.5 2.5,0 5.5,0 L8.5,0 Z M11,8.5 L11,5.5 C11,4.1 9.9,3 8.5,3 L5.5,3 C4.1,3 3,4.1 3,5.5 L3,8.5 C3,9.9 4.1,11 5.5,11 L8.5,11 C9.9,11 11,9.9 11,8.5 Z M8.5,18 C11.5,18 14,20.5 14,23.5 L14,26.5 C14,29.5 11.5,32 8.5,32 L5.5,32 C2.5,32 0,29.5 0,26.5 L0,23.5 C0,20.5 2.5,18 5.5,18 L8.5,18 Z M11,26.5 L11,23.5 C11,22.1 9.9,21 8.5,21 L5.5,21 C4.1,21 3,22.1 3,23.5 L3,26.5 C3,27.9 4.1,29 5.5,29 L8.5,29 C9.9,29 11,27.9 11,26.5 Z"/>
</svg>
