<svg xmlns="http://www.w3.org/2000/svg" xmlns:xlink="http://www.w3.org/1999/xlink" width="48" height="48" viewBox="0 0 48 48">
  <defs>
    <polygon id="位置-a" points="0 0 48 0 48 48 0 48"/>
  </defs>
  <g fill="none" fill-rule="evenodd">
    <mask id="位置-b" fill="#fff">
      <use xlink:href="#位置-a"/>
    </mask>
    <path fill="#FF2741" d="M23.9627158,25.3542892 C20.7655013,25.3542892 18.1723688,22.7571233 18.1723688,19.5549359 C18.1723688,16.3527484 20.7655013,13.7570582 23.9627158,13.7570582 C27.1599303,13.7570582 29.7530628,16.3527484 29.7530628,19.5549359 C29.7530628,22.7571233 27.1599303,25.3542892 23.9627158,25.3542892 M24.1557274,7 C16.9317906,7 11,13.4265098 11,21.372952 C11,23.1245633 11.5392537,24.9942276 12.4026489,27.0985222 C13.3736003,29.1998655 14.7747758,31.4207374 16.3910636,33.7581867 C17.5786004,35.2766433 18.8722199,36.7965756 20.0582833,38.1984549 L21.2443468,39.4837569 C21.4609323,39.7169115 21.6760444,39.8349645 21.6760444,39.9485905 C22.9696639,41.3504698 25.1266787,41.3504698 26.3127422,39.9485905 L27.9305032,38.1955036 C29.2241228,36.7936243 30.4101862,35.273692 31.5962497,33.7552353 C33.3230402,31.5343634 34.7227424,29.1969141 35.5861376,27.0955708 C36.557089,24.9912762 36.9873132,23.1216119 36.9873132,21.3700007 C37.3114548,13.4265098 31.3811375,7 24.1557274,7" mask="url(#位置-b)"/>
  </g>
</svg>
