<svg xmlns="http://www.w3.org/2000/svg" width="34" height="34" viewBox="0 0 34 34">
  <path fill="#999" d="M17,32 C25.271,32 32,25.271 32,17 C32,8.729 25.271,2 17,2 C8.729,2 2,8.729 2,17 C2,25.271 8.729,32 17,32 Z M17,0 C26.374,0 34,7.626 34,17 C34,26.374 26.374,34 17,34 C7.626,34 0,26.374 0,17 C0,7.626 7.626,0 17,0 Z M24.2998,11.2852 C24.6958,10.8992 25.3268,10.9072 25.7148,11.3002 C26.1008,11.6942 26.0948,12.3282 25.6998,12.7152 L15.4908,22.7152 C15.2958,22.9052 15.0438,23.0002 14.7908,23.0002 C14.5348,23.0002 14.2798,22.9022 14.0848,22.7082 L8.2938,16.9382 C7.9038,16.5492 7.9018,15.9162 8.2918,15.5242 C8.6818,15.1342 9.3138,15.1312 9.7058,15.5222 L14.7968,20.5952 L24.2998,11.2852 Z"/>
</svg>
