<svg xmlns="http://www.w3.org/2000/svg" xmlns:xlink="http://www.w3.org/1999/xlink" width="48" height="48" viewBox="0 0 48 48">
  <defs>
    <rect id="电话-a" width="48" height="48" x="0" y="0"/>
  </defs>
  <g fill="none" fill-rule="evenodd">
    <mask id="电话-b" fill="#fff">
      <use xlink:href="#电话-a"/>
    </mask>
    <path fill="#999" d="M15.8162325,11.001912 C14.5661978,11.001912 13.4431667,11.9119372 12.445139,12.7229597 C12.2491336,12.8829642 12.0521281,13.0419686 11.8631229,13.1869726 C11.2661063,13.6449853 11.074101,14.4710082 11.0200995,15.0820251 C10.8280942,17.2160843 12.049128,22.4742301 17.8342885,28.635401 C23.260439,34.4145613 28.9315962,37.001633 32.1446853,37.001633 C32.962708,37.001633 33.610726,36.8356284 34.0197373,36.5216197 C34.0347378,36.5106194 34.0497382,36.4996191 34.0657386,36.4886188 C34.2397434,36.3546151 34.4247486,36.2186113 34.6137538,36.0796074 C35.7077842,35.2805853 36.9488186,34.3735601 36.99982,33.250529 C37.034821,32.4725074 36.5108064,31.6254839 35.3977756,30.6604572 C31.95268,27.697375 30.6876449,28.6894025 28.9385964,30.0604405 L28.70559,30.2444456 C28.3935813,30.4924525 28.0015704,30.6034556 27.5975592,30.5564543 C26.328524,30.40245 24.3834701,28.9204089 21.6503943,26.0213285 C17.6802842,21.7562102 17.6492833,20.3511713 17.6402831,19.8901585 C17.6302828,19.4121452 17.8482889,18.9591327 18.2262994,18.6681246 L18.4753063,18.4761193 C20.2553556,17.1170816 21.3273854,16.2990589 18.8233159,12.9559662 C17.9322912,11.7569329 17.0432665,11.1249154 16.1042405,11.0169124 C16.0072378,11.0069121 15.9112351,11.001912 15.8162325,11.001912 L15.8162325,11.001912 Z M32.1446853,40.0017162 C27.4345547,40.0017162 20.9583751,36.3466149 15.6472278,30.6874579 C9.56505916,24.2102783 7.72600815,18.2401127 8.03201664,14.8130177 C8.19002102,13.0769695 8.88304024,11.6919311 10.0360722,10.8079066 C10.2000768,10.6829031 10.3720815,10.5428993 10.5490864,10.3968952 C11.8571227,9.33686581 13.8191771,7.73682144 16.4412498,8.03682976 C18.2513,8.24183544 19.8163434,9.26486382 21.2283826,11.1619164 C24.6894786,15.7810445 23.2884397,18.3551159 20.9373745,20.3481712 C21.3073848,20.9751886 22.1104071,22.1122201 23.840455,23.9702716 C25.8195099,26.0693298 26.9795421,26.9633546 27.5635583,27.336365 C29.9596247,25.5603157 32.7577023,24.4352845 37.3578299,28.3893942 C39.2138814,29.9984388 40.0749053,31.6314841 39.994903,33.3865328 C39.8798999,35.9456037 37.7758415,37.4846464 36.3838029,38.5026746 C36.1977977,38.6386784 36.0197928,38.769682 35.8517881,38.8986856 C35.8327876,38.912686 35.8157871,38.9266864 35.7977866,38.9386867 C34.8537605,39.6437063 33.6247264,40.0017162 32.1446853,40.0017162 L32.1446853,40.0017162 Z" mask="url(#电话-b)"/>
  </g>
</svg>
