<svg xmlns="http://www.w3.org/2000/svg" xmlns:xlink="http://www.w3.org/1999/xlink" width="48" height="48" viewBox="0 0 48 48">
  <defs>
    <rect id="视频3px-a" width="48" height="48" x="0" y="0"/>
  </defs>
  <g fill="none" fill-rule="evenodd">
    <mask id="视频3px-b" fill="#fff">
      <use xlink:href="#视频3px-a"/>
    </mask>
    <path fill="#999" d="M13.5,16.0497 C14.16125,16.0497 14.78625,16.3072 15.265,16.7847 C15.7425,17.2622 16,17.8872 16,18.5497 C16,19.21095 15.7425,19.83595 15.265,20.3147 C14.78625,20.79095 14.16125,21.0497 13.5,21.0497 C12.83875,21.0497 12.21375,20.79095 11.735,20.3147 C11.2575,19.83595 11,19.21095 11,18.5497 C11,17.8872 11.2575,17.2622 11.735,16.7847 C12.21375,16.3072 12.83875,16.0497 13.5,16.0497 Z M41,31.767 L41,16.335 L34,19.637 L34,28.499 L41,31.767 Z M31,32.5 L31,15.5 C31,14.122 29.879,13 28.5,13 L9.5,13 C8.122,13 7,14.122 7,15.5 L7,32.5 C7,33.879 8.122,35 9.5,35 L28.5,35 C29.879,35 31,33.879 31,32.5 Z M42.855,13.443 C43.572,13.897 44,14.67 44,15.51 L44,32.588 C44,33.426 43.573,34.198 42.859,34.653 C42.445,34.916 41.975,35.05 41.502,35.05 C41.138,35.05 40.771,34.971 40.429,34.811 L34,31.81 L34,32.5 C34,35.533 31.532,38 28.5,38 L9.5,38 C6.467,38 4,35.533 4,32.5 L4,15.5 C4,12.468 6.467,10 9.5,10 L28.5,10 C31.532,10 34,12.468 34,15.5 L34,16.321 L40.419,13.292 C41.208,12.919 42.12,12.977 42.855,13.443 Z" mask="url(#视频3px-b)"/>
  </g>
</svg>
