<svg xmlns="http://www.w3.org/2000/svg" xmlns:xlink="http://www.w3.org/1999/xlink" width="48" height="48" viewBox="0 0 48 48">
  <defs>
    <polygon id="电话-a" points="0 0 48 0 48 48 0 48"/>
  </defs>
  <g fill="none" fill-rule="evenodd">
    <mask id="电话-b" fill="#fff">
      <use xlink:href="#电话-a"/>
    </mask>
    <path fill="#FF2741" d="M30.5546381,28.2012816 C29.9471793,28.0373989 29.0163252,29.0687677 29.0163252,29.0687677 C28.7169661,29.3659418 28.4481983,29.8685156 28.2100221,30.4016808 C27.827629,31.2516861 26.7612985,31.5685261 25.9855867,31.0462864 C22.8390377,28.9179956 19.7951886,25.8675911 17.6843786,22.718857 C17.1774346,21.9628112 17.4658683,20.9270722 18.2787268,20.5184578 C19.023847,20.1448051 19.7099695,19.7842631 19.7099695,19.7842631 L19.7034142,19.7667822 C20.2125433,19.5351613 20.4966068,18.9626641 20.3502049,18.4076479 C20.3502049,18.4076479 16.0979935,8 14.883076,8 C11.083181,8 8,11.083181 8,14.883076 C8,15.7549322 8.16825297,16.5809014 8.46761214,17.3456876 C11.6556781,28.4110516 20.3655006,37.1143187 31.4308646,40.3111251 C32.1978359,40.6082992 33.0303603,40.7765522 33.9022166,40.7765522 C37.7021116,40.7765522 40.8421053,37.8791049 40.8421053,34.0770249 C40.8421053,34.0770249 35.6065973,30.2312428 30.5546381,28.2012816" mask="url(#电话-b)"/>
  </g>
</svg>
