<svg xmlns="http://www.w3.org/2000/svg" width="33" height="32" viewBox="0 0 33 32">
  <path fill="#999" d="M27.7106287,8.7529667 C27.2939641,8.3904628 27.2500581,7.758822 27.6125619,7.3421574 C27.9750658,6.9254927 28.6067066,6.8815867 29.0233713,7.2440906 C31.5359896,9.4301023 33,12.525314 33,15.8465286 C33,19.3465444 31.3728695,22.5914357 28.6228578,24.7808637 C28.1907861,25.1248585 27.5616598,25.0534582 27.217665,24.6213864 C26.8736701,24.1893147 26.9450705,23.5601885 27.3771422,23.2161936 C29.6592248,21.3993083 31,18.7254788 31,15.8465286 C31,13.1148525 29.7943224,10.5658081 27.7106287,8.7529667 Z M6.449,23.9985286 L3,23.9985286 C1.44771525,23.9985286 0,22.5508134 0,20.9985286 L0,10.9985286 C0,9.4358237 1.35589406,7.9985286 3,7.9985286 L6.449,7.9985286 C6.62825,7.9985286 6.8060921,7.9494865 6.960667,7.8577418 L19.3332293,0.47676389 C21.2610677,-0.72425727 24,0.4653132 24,2.6875286 L24,29.3095286 C24,31.531744 21.2610677,32.7213145 19.349667,31.5303155 L6.9625894,24.1404595 C6.8060921,24.0475707 6.62825,23.9985286 6.449,23.9985286 Z M6.449,21.9985286 C6.9883711,21.9985286 7.5187113,22.1447763 7.985333,22.4217418 L20.3907707,29.8227639 C21.0720875,30.2472164 22,29.8442064 22,29.3095286 L22,2.6875286 C22,2.1528509 21.0720875,1.74984079 20.374333,2.1843155 L7.9834106,9.5764595 C7.5187113,9.852281 6.9883711,9.9985286 6.449,9.9985286 L3,9.9985286 C2.4873756,9.9985286 2,10.5151638 2,10.9985286 L2,20.9985286 C2,21.4462439 2.5522847,21.9985286 3,21.9985286 L6.449,21.9985286 Z"/>
</svg>
