<svg xmlns="http://www.w3.org/2000/svg" xmlns:xlink="http://www.w3.org/1999/xlink" width="48" height="48" viewBox="0 0 48 48">
  <defs>
    <rect id="icon-address-2px-a" width="48" height="48" x="0" y="0"/>
  </defs>
  <g fill="none" fill-rule="evenodd">
    <mask id="icon-address-2px-b" fill="#fff">
      <use xlink:href="#icon-address-2px-a"/>
    </mask>
    <path fill="#333" d="M26.458,37.09 C29.907,33.1941667 37,25.1918889 37,19.4836667 C37,13.6413333 31.168,8.88888889 24,8.88888889 C16.832,8.88888889 11,13.6413333 11,19.4836667 C11,25.0133889 17.641,32.6813333 21.208,36.801 L21.509,37.1485556 C21.885,37.6321111 22.227,38.0165 22.519,38.3461111 L22.788,38.6502222 C23.065,38.9411111 23.509,39.1337778 23.979,39.1101667 L24.005,39.1101667 L24.032,39.1111111 C24.524,39.1186667 24.917,38.9307222 25.177,38.5945 L25.481,38.2469444 C25.773,37.9173333 26.115,37.5329444 26.458,37.09 Z M24,7 C32.271,7 39,12.5996111 39,19.4836667 C39,25.8785 31.865,33.928 28.032,38.2516667 C27.702,38.6832778 27.331,39.1026111 27.014,39.4596111 L26.757,39.7514444 C26.162,40.524 25.155,41 24.079,41 L23.941,41 C22.919,41 21.949,40.5948333 21.271,39.8817778 L20.986,39.5587778 C20.669,39.2017778 20.298,38.7833889 19.927,38.3017222 L19.66,37.9976111 C15.673,33.3934444 9,25.6877222 9,19.4836667 C9,12.5996111 15.729,7 24,7 Z M24,22.9996 C25.654,22.9996 27,21.6536 27,19.9996 C27,18.3456 25.654,16.9996 24,16.9996 C22.346,16.9996 21,18.3456 21,19.9996 C21,21.6536 22.346,22.9996 24,22.9996 Z M24,14.9996 C26.757,14.9996 29,17.2426 29,19.9996 C29,22.7566 26.757,24.9996 24,24.9996 C21.243,24.9996 19,22.7566 19,19.9996 C19,17.2426 21.243,14.9996 24,14.9996 Z" mask="url(#icon-address-2px-b)"/>
  </g>
</svg>
