<svg xmlns="http://www.w3.org/2000/svg" xmlns:xlink="http://www.w3.org/1999/xlink" width="48" height="48" viewBox="0 0 48 48">
  <defs>
    <rect id="设置2px-a" width="48" height="48" x="0" y="0"/>
  </defs>
  <g fill="none" fill-rule="evenodd">
    <mask id="设置2px-b" fill="#fff">
      <use xlink:href="#设置2px-a"/>
    </mask>
    <path fill="#999" d="M24,30 C20.6862915,30 18,27.3137085 18,24 C18,20.6862915 20.6862915,18 24,18 C27.3137085,18 30,20.6862915 30,24 C30,25.5912989 29.367859,27.1174224 28.2426407,28.2426407 C27.1174224,29.367859 25.5912989,30 24,30 Z M24,20 C21.790861,20 20,21.790861 20,24 C20,26.209139 21.790861,28 24,28 C26.209139,28 28,26.209139 28,24 C28,21.790861 26.209139,20 24,20 Z M19.21,41 C19.1172382,41.0146074 19.0227618,41.0146074 18.93,41 C16.6321195,40.3354936 14.4878668,39.2242881 12.62,37.73 C12.2491506,37.4312919 12.1403753,36.9125172 12.36,36.49 C12.8415289,35.7162378 13.1137556,34.8306395 13.15,33.92 C13.15,29.79 9.25,29.34 7.57,29.34 C7.15770718,29.3387821 6.78842426,29.0846519 6.64,28.7 C5.8427562,25.8407203 5.79111542,22.8248984 6.49,19.94 C6.63299392,19.5146291 7.04184764,19.2366085 7.49,19.26 C10.97,19.26 13.05,17.55 13.05,14.67 C13.0334922,13.7034493 12.7075403,12.7676518 12.12,12 C11.8082462,11.5730043 11.882732,10.977118 12.29,10.64 C14.2499562,8.97435126 16.5350532,7.73474573 19,7 C19.464389,6.86821958 19.9566279,7.08699244 20.17,7.52 C20.928493,9.14650815 22.5653686,10.1817636 24.36,10.17 C26.1829448,10.3206753 27.9110551,9.33545375 28.71,7.69 C28.9389825,7.25828196 29.4464485,7.05529554 29.91,7.21 C32.1480092,7.97015331 34.2165257,9.1589559 36,10.71 C36.3669154,11.0393018 36.4390776,11.5868852 36.17,12 C35.636368,12.758239 35.3499801,13.6628056 35.35,14.59 C35.35,17.53 37.35,19.21 40.72,19.21 C41.1820038,19.192918 41.5954894,19.4947625 41.72,19.94 C42.1721297,22.6747721 42.1721297,25.4652279 41.72,28.2 C41.6152458,28.6651526 41.1966599,28.9916496 40.72,28.98 C39.13,28.98 35.43,29.4 35.43,33.32 C35.4239232,34.2764228 35.66873,35.2177223 36.14,36.05 C36.4160951,36.4720967 36.3346362,37.0337345 35.95,37.36 C34.1820168,38.8468187 32.1452043,39.9806443 29.95,40.7 C29.4805447,40.8660762 28.9604319,40.6614417 28.73,40.22 C27.8953625,38.6506929 26.2573964,37.6756212 24.48,37.69 C22.6400008,37.6998184 20.9619524,38.7437655 20.14,40.39 C19.9820949,40.7628713 19.6149114,41.0037121 19.21,41 Z M14.51,36.61 C15.7995807,37.5522295 17.2262072,38.2908376 18.74,38.8 C20.0261973,36.9038454 22.1589374,35.7571707 24.45,35.73 C26.652771,35.7235068 28.7218129,36.7859877 30,38.58 C31.4351414,38.0448806 32.783103,37.3001318 34,36.37 C33.5999843,35.4202695 33.3926375,34.4005308 33.39,33.37 C33.39,29.77 35.89,27.37 39.83,27.06 C40.0571761,25.1245948 40.0839848,23.17091 39.91,21.23 C35.12,20.89 33.38,17.67 33.38,14.64 C33.3799222,13.6219047 33.6197353,12.6181158 34.08,11.71 C32.837819,10.7534984 31.4635249,9.98214218 30,9.42 C28.7416351,11.2879595 26.5879483,12.3495825 24.34,12.21 C22.0987255,12.2140635 20.0071215,11.0855002 18.78,9.21 C17.1614132,9.77859863 15.6376663,10.5876678 14.26,11.61 C14.7476949,12.5351056 15.0049752,13.5642269 15.01,14.61 C15.01,18.38 12.37,20.9 8.23,21.18 C7.90524439,23.2131603 7.93569595,25.2872501 8.32,27.31 C11.63,27.54 15.16,29.31 15.16,33.86 C15.1502622,34.813565 14.9282176,35.7529848 14.51,36.61 Z" mask="url(#设置2px-b)"/>
  </g>
</svg>
