<svg xmlns="http://www.w3.org/2000/svg" width="38" height="32" viewBox="0 0 38 32">
  <path fill="#FF2741" d="M29.6388714,29.725232 C27.3905184,29.725232 25.5612246,27.8959383 25.5612246,25.6475853 C25.5612246,23.402399 27.3905184,21.5720497 29.6388714,21.5720497 C31.8882799,21.5720497 33.7175737,23.402399 33.713366,25.6475853 C33.713366,27.8959383 31.8882799,29.725232 29.6388714,29.725232 L29.6388714,29.725232 Z M17.3320416,22.7975604 L17.2465408,18.9257488 C17.5748215,18.9827493 17.9083799,19.0123051 18.2419384,19.0123051 C22.5993098,19.0123051 26.1470631,14.0458728 26.1502298,7.9489306 C26.1502298,5.862079 25.7385595,3.8470058 24.973275,2.1116573 L27.0706822,2.1116573 L31.572666,18.2396317 C31.5758327,18.2501873 31.580055,18.2607429 31.5832217,18.270243 C31.5832217,18.2712986 31.5832217,18.2723542 31.5842773,18.2734097 C31.5937773,18.3050767 31.604333,18.3346325 31.6169998,18.3641883 C31.6180553,18.3662994 31.6191109,18.3684106 31.6201665,18.3715772 C31.6518334,18.4475779 31.6930004,18.5183008 31.7405008,18.5826902 C31.7447231,18.587968 31.7478898,18.5932459 31.7521121,18.5974681 C31.7658344,18.6154127 31.7785012,18.6312462 31.7922235,18.6481352 C31.800668,18.6576353 31.8091126,18.6660798 31.8175571,18.6755799 C31.8238905,18.6829689 31.8312794,18.6903578 31.8386684,18.6977468 C31.8545018,18.7135802 31.8703353,18.7294137 31.8872243,18.7441916 C31.8914466,18.7473583 31.8946133,18.750525 31.89778,18.7526361 C32.0613925,18.8951374 32.2693388,18.9880271 32.4983964,19.0080828 C32.5026186,19.0080828 32.5068409,19.0080828 32.5100076,19.0091384 C32.5363967,19.0112495 32.5627858,19.0123051 32.5891749,19.0123051 C34.407913,19.0123051 35.8888704,20.4922069 35.8888704,22.310945 C35.8888704,22.4724464 35.8698703,22.652948 35.8371478,22.8376718 L35.140475,22.8144494 C34.1102438,20.8257654 32.0350034,19.4640868 29.6430936,19.4640868 C27.2585728,19.4640868 25.1854435,20.8183764 24.1520456,22.7975604 L17.3320416,22.7975604 Z M12.9947259,25.8882541 C12.8807249,27.9624389 11.0915426,29.684065 9.0057466,29.725232 C7.855181,29.7062319 6.8576722,29.3357286 6.0712765,28.5630552 C5.2838251,27.7956596 4.84998802,26.7601506 4.84998802,25.6549742 C4.84998802,25.4005831 4.87215488,25.1504143 4.91754417,24.9055232 L12.9345587,24.9055232 C12.9936703,25.2243038 13.0147816,25.5525845 12.9947259,25.8882541 L12.9947259,25.8882541 Z M2.22585397,19.8873683 L4.2483161,12.216579 C4.45309566,11.4417945 5.1466017,10.9108454 5.9446087,10.9108454 L5.9741645,10.9108454 L12.7910019,11.0142907 C14.0080681,11.0332909 14.9802432,12.0012438 15.0066324,13.2151433 L15.1005776,17.4447914 C15.0995221,17.4838473 15.1005776,17.5239587 15.1026887,17.5640702 L15.2188009,22.7933381 L3.28669658,22.7933381 C2.97108271,22.7933381 2.59741278,22.4143904 2.33035489,21.8253852 C2.0780749,21.275436 2.04007457,20.5850966 2.22585397,19.8873683 L2.22585397,19.8873683 Z M32.8783997,9.4003322 L33.7513518,12.5575264 L32.1817269,12.5659709 L31.3140527,9.4552215 L32.8783997,9.4003322 Z M33.4104043,16.965565 L32.7696765,14.6707671 L33.9550758,14.6623226 C34.5715256,14.6549337 35.1394194,14.3730979 35.5099227,13.8790935 C35.8814815,13.3861448 35.9997047,12.7665283 35.8360922,12.1690786 L34.9156397,8.8366606 C34.6781376,7.9858754 33.8991308,7.392648 33.0156231,7.392648 L30.7387699,7.392648 L28.8894204,0.76792338 C28.7996974,0.44703169 28.5685287,0.20319622 28.2835262,0.08286184 C28.2676927,0.07652845 28.2539704,0.07125062 28.2391925,0.06491723 L28.2296924,0.06175054 C28.2170256,0.05858385 28.2054144,0.05436159 28.191692,0.05013933 C28.1874698,0.0480282 28.1832475,0.04697263 28.1779697,0.04591707 C28.1663585,0.04169481 28.1547473,0.03852811 28.1420805,0.03536142 C28.1378582,0.03430586 28.133636,0.03325029 28.1283582,0.03219473 C28.1167469,0.02797247 28.1030246,0.02586134 28.0903578,0.02269464 C28.0861356,0.02163908 28.0829689,0.02163908 28.0798022,0.02058351 C28.0660798,0.01741682 28.0502464,0.01530569 28.0354685,0.01319456 L28.0312462,0.01319456 C27.9700234,0.00263891 27.9066896,-0.00158335 27.8433557,0.00052778 L17.306708,0.00052778 C16.7250918,0.00052778 16.2532544,0.47553193 16.2532544,1.05820369 C16.2532544,1.64087545 16.7250918,2.1116573 17.306708,2.1116573 L22.6119766,2.1116573 C23.5324291,3.7435605 24.0348779,5.7924117 24.0348779,7.9489306 C24.0348779,12.8847515 21.437133,16.9043422 18.2419384,16.9043422 C17.8893798,16.9043422 17.5399878,16.8536751 17.1979848,16.754452 L17.1188175,13.1665873 C17.0660392,10.8105667 15.1808005,8.9369392 12.82478,8.9021056 L6.006887,8.7997158 L5.9446087,8.7997158 C4.19342673,8.7997158 2.6596911,9.975615 2.21213163,11.6750743 L0.18544725,19.3490302 C-0.12277767,20.5217627 -0.04466587,21.7134953 0.40394916,22.7046707 C0.95495398,23.9048478 1.80362806,24.6648545 2.78635887,24.8569673 C2.75152524,25.1198029 2.7346362,25.3858052 2.7346362,25.6549742 C2.7346362,27.3312111 3.39119749,28.9018915 4.59031909,30.074624 C5.754607,31.2167451 7.2872871,31.8405839 8.9170791,31.8405839 C8.9571906,31.8405839 9.0015243,31.8374172 9.0469136,31.8374172 C12.2114968,31.77725 14.9285206,29.1615604 15.1026887,26.0033106 C15.1248556,25.6328074 15.1143,25.2654708 15.0710218,24.9055232 L15.3401908,24.9055232 L23.498651,24.9055232 C23.4680396,25.1493587 23.4532617,25.3974164 23.4532617,25.650752 C23.4532617,29.0612818 26.2293971,31.8405839 29.6388714,31.8405839 C33.0525679,31.8405839 35.8287032,29.0612818 35.8287032,25.650752 C35.8287032,25.4132499 35.8160365,25.1789145 35.7885918,24.949857 L36.6013767,24.9751905 L36.6340992,24.9751905 C36.6594327,24.9751905 36.6847663,24.974135 36.7090443,24.9720238 L36.7111554,24.9720238 C36.8452121,24.9614682 36.9718799,24.9266345 37.0890476,24.8706896 L37.0901032,24.8706896 C37.1080478,24.8622451 37.1270479,24.8516894 37.1449925,24.8411338 C37.1523815,24.8369115 37.1587149,24.8337448 37.1661038,24.8295226 C37.1798262,24.8210781 37.1924929,24.8136891 37.2062153,24.804189 C37.388828,24.6880769 37.5344959,24.5139087 37.6178855,24.2996291 C37.8669988,23.6504567 38,22.9485061 38,22.3141117 C38,19.6097547 36.0049826,17.3624573 33.4104043,16.965565 L33.4104043,16.965565 Z"/>
</svg>
