<svg xmlns="http://www.w3.org/2000/svg" xmlns:xlink="http://www.w3.org/1999/xlink" width="48" height="48" viewBox="0 0 48 48">
  <defs>
    <rect id="成功提示-a" width="48" height="48" x="0" y="0"/>
  </defs>
  <g fill="none" fill-rule="evenodd">
    <mask id="成功提示-b" fill="#fff">
      <use xlink:href="#成功提示-a"/>
    </mask>
    <path fill="#999" d="M24,39 C32.271,39 39,32.271 39,24 C39,15.729 32.271,9 24,9 C15.729,9 9,15.729 9,24 C9,32.271 15.729,39 24,39 Z M24,7 C33.374,7 41,14.626 41,24 C41,33.374 33.374,41 24,41 C14.626,41 7,33.374 7,24 C7,14.626 14.626,7 24,7 Z M31.2998,18.2852 C31.6958,17.8992 32.3268,17.9072 32.7148,18.3002 C33.1008,18.6942 33.0948,19.3282 32.6998,19.7152 L22.4908,29.7152 C22.2958,29.9052 22.0438,30.0002 21.7908,30.0002 C21.5348,30.0002 21.2798,29.9022 21.0848,29.7082 L15.2938,23.9382 C14.9038,23.5492 14.9018,22.9162 15.2918,22.5242 C15.6818,22.1342 16.3138,22.1312 16.7058,22.5222 L21.7968,27.5952 L31.2998,18.2852 Z" mask="url(#成功提示-b)"/>
  </g>
</svg>
