<svg xmlns="http://www.w3.org/2000/svg" width="32" height="34" viewBox="0 0 32 34">
  <path fill="#FF2741" fill-rule="evenodd" d="M31,20.9 C30.2,20.6 29.4,21.1 29.1,21.9 C27.3,27.4 22.2,31.1 16.4,31.1 C9,31 3,25.1 3,17.9 C3,10.7 9,4.8 16.3,4.8 C19.9,4.8 23.3,6.2 25.7,8.7 L21,8.7 C20.2,8.7 19.5,9.4 19.5,10.2 C19.5,11 20.2,11.7 21,11.7 L29.5,11.7 C30.3,11.7 31,11 31,10.2 L31,1.5 C31,0.7 30.3,0 29.5,0 C28.7,0 28,0.7 28,1.5 L28,6.7 C24.9,3.5 20.7,1.7 16.2,1.7 C7.3,1.7 0,9 0,17.9 C0,26.8 7.3,34 16.3,34 C23.4,34 29.7,29.5 31.9,22.8 C32.2,22 31.7,21.1 31,20.9 Z"/>
</svg>
