<svg xmlns="http://www.w3.org/2000/svg" width="40" height="28" viewBox="0 0 40 28">
  <path fill="#999" d="M9.5,6.0497 C10.16125,6.0497 10.78625,6.3072 11.265,6.7847 C11.7425,7.2622 12,7.8872 12,8.5497 C12,9.21095 11.7425,9.83595 11.265,10.3147 C10.78625,10.79095 10.16125,11.0497 9.5,11.0497 C8.83875,11.0497 8.21375,10.79095 7.735,10.3147 C7.2575,9.83595 7,9.21095 7,8.5497 C7,7.8872 7.2575,7.2622 7.735,6.7847 C8.21375,6.3072 8.83875,6.0497 9.5,6.0497 Z M37,21.767 L37,6.335 L30,9.637 L30,18.499 L37,21.767 Z M27,22.5 L27,5.5 C27,4.122 25.879,3 24.5,3 L5.5,3 C4.122,3 3,4.122 3,5.5 L3,22.5 C3,23.879 4.122,25 5.5,25 L24.5,25 C25.879,25 27,23.879 27,22.5 Z M38.855,3.443 C39.572,3.897 40,4.67 40,5.51 L40,22.588 C40,23.426 39.573,24.198 38.859,24.653 C38.445,24.916 37.975,25.05 37.502,25.05 C37.138,25.05 36.771,24.971 36.429,24.811 L30,21.81 L30,22.5 C30,25.533 27.532,28 24.5,28 L5.5,28 C2.467,28 0,25.533 0,22.5 L0,5.5 C0,2.468 2.467,0 5.5,0 L24.5,0 C27.532,0 30,2.468 30,5.5 L30,6.321 L36.419,3.292 C37.208,2.919 38.12,2.977 38.855,3.443 Z"/>
</svg>
