<svg xmlns="http://www.w3.org/2000/svg" width="34" height="40" viewBox="0 0 34 40">
  <path fill="#FF2741" d="M10.7784769,22.4923104 C7.4695846,20.3046622 5.2841527,16.5323595 5.2841527,12.2442094 C5.2841527,5.48185211 10.7249461,0 17.4333005,0 C24.1423566,0 29.5811273,5.48122838 29.5811273,12.2442094 C29.5811273,16.6792905 27.2446645,20.5621339 23.7449953,22.7111127 C29.7782855,25.3428639 34,31.3970748 34,38.4462227 C34,39.3043502 33.3099762,40 32.4587888,40 C31.6076013,40 30.9175776,39.3043502 30.9175776,38.4462227 C30.9175776,31.102929 25.321257,25.07839 18.193769,24.4674907 C17.9422758,24.4831414 17.6887097,24.4910824 17.4333005,24.4910824 C17.0402701,24.4910824 16.6515956,24.472272 16.2681155,24.435495 C8.921454,24.8184294 3.0824224,30.9435715 3.0824224,38.4462227 C3.0824224,39.3043502 2.39239866,40 1.54121121,40 C0.69002376,40 0,39.3043502 0,38.4462227 C0,31.1937915 4.4670124,24.9949137 10.7784769,22.4923104 Z M16.3641012,21.3206635 C16.5746713,21.3128748 16.7862197,21.3089464 16.998679,21.3089464 C17.4031442,21.3089464 17.8043123,21.3231831 18.2017166,21.3511866 C22.849645,20.9582235 26.4987049,17.032865 26.4987049,12.2442094 C26.4987049,7.1977229 22.4402192,3.10755469 17.4333005,3.10755469 C12.4269056,3.10755469 8.3665751,7.1985263 8.3665751,12.2442094 C8.3665751,16.9283031 11.8607169,20.7875091 16.3641012,21.3206635 Z"/>
</svg>
