<svg xmlns="http://www.w3.org/2000/svg" xmlns:xlink="http://www.w3.org/1999/xlink" width="48" height="48" viewBox="0 0 48 48">
  <defs>
    <polygon id="删除-a" points="0 0 47.999 0 47.999 48 0 48"/>
  </defs>
  <g fill="none" fill-rule="evenodd">
    <mask id="删除-b" fill="#fff">
      <use xlink:href="#删除-a"/>
    </mask>
    <path fill="#FF2741" d="M40,24 C40,32.8346667 32.8362455,40 23.9995555,40 C15.1628656,40 8,32.8346667 8,24 C8,15.1635556 15.1628656,8 23.9995555,8 C32.8362455,8 40,15.1635556 40,24 Z M14.8571429,26.2857143 L32.5419048,26.2857143 C33.8042699,26.2857143 34.827619,25.2623651 34.827619,24 C34.827619,22.7376349 33.8042699,21.7142857 32.5419048,21.7142857 L14.8571429,21.7142857 C13.5947777,21.7142857 12.5714286,22.7376349 12.5714286,24 C12.5714286,25.2623651 13.5947777,26.2857143 14.8571429,26.2857143 Z" mask="url(#删除-b)"/>
  </g>
</svg>
