<svg xmlns="http://www.w3.org/2000/svg" width="45" height="46" viewBox="0 0 45 46">
  <path fill="#FFF" fill-rule="evenodd" d="M47.9930788,10.6115047 L27.5636584,34.0238011 C26.8374292,34.8560661 26.9233883,36.1194753 27.7556533,36.8457044 C28.1199632,37.1635989 28.5871008,37.3387553 29.0706075,37.3387553 L40.1891614,37.3387553 L40.1891614,53 C40.1891614,54.1045695 41.0845919,55 42.1891614,55 L56.8108944,55 C57.9154639,55 58.8108944,54.1045695 58.8108944,53 L58.8108944,37.3387553 L69.9294483,37.3387553 C71.0340178,37.3387553 71.9294483,36.4433248 71.9294483,35.3387553 C71.9294483,34.8552487 71.7542919,34.3881111 71.4363974,34.0238011 L51.006977,10.6115047 C50.2807478,9.7792397 49.0173387,9.69328064 48.1850737,10.4195098 C48.1168,10.4790849 48.0526539,10.543231 47.9930788,10.6115047 Z" transform="translate(-27 -9)"/>
</svg>
