<svg xmlns="http://www.w3.org/2000/svg" width="38" height="36" viewBox="0 0 38 36">
  <path fill="#DDD" fill-rule="evenodd" d="M19.0501413,29.1 C19.4512721,29.1 19.7521201,29.2 20.1532508,29.3 L28.4767131,32.9 C28.7775611,33 28.8778438,33 28.9781265,32.9 C29.0784091,32.9 29.1786918,32.8 29.1786918,32.4 L28.2761477,23.5 C28.175865,22.8 28.3764304,22.1 28.9781265,21.5 L35.0953698,14.9 C35.1956525,14.8 35.2959352,14.6 35.1956525,14.5 C35.0953698,14.3 34.9950872,14.2 34.7945218,14.1 L25.9696461,12.3 C25.067102,12.1 24.465406,11.6 24.0642752,11 L19.4512721,3.2 C19.2507067,2.9 18.7492933,2.9 18.5487279,3.2 L14.0360074,11 C13.8354421,11.4 13.3340287,12 12.3312019,12.2 L3.40604356,14.1 C3.30576088,14.1 3.10519553,14.2 3.10519553,14.4 C3.00491285,14.6 3.10519553,14.8 3.2054782,14.9 L9.3227216,21.6 C9.824135,22.1 10.124983,22.8 9.9244176,23.6 L9.0218735,32.5 C9.0218735,32.7 9.0218735,32.8 9.2224389,32.9 C9.4230042,33.1 9.6235696,33 9.824135,33 L18.1475972,29.4 C18.3481626,29.2 18.6490106,29.1 19.0501413,29.1 L19.0501413,29.1 Z M9.4230042,36 C8.7210255,36 7.9187641,35.8 7.317068,35.3 C6.3142412,34.6 5.7125452,33.4 5.9131105,32.1 L6.8156546,23.5 L0.89897661,17 C-0.00356749,16.1 -0.20413285,14.8 0.19699786,13.5 C0.4978459,12.4 1.50067268,11.5 2.70406481,11.2 L11.5289405,9.4 L16.041661,1.7 C16.6433571,0.7 17.7464665,0 19.0501413,0 C20.3538162,0 21.4569256,0.6 22.0586217,1.7 L26.4710595,9.3 L35.1956525,11.1 C36.4993273,11.4 37.4018714,12.2 37.8030021,13.4 C38.2041328,14.6 38.0035675,15.9 37.1010234,16.8 L31.1843454,23.3 L32.0868895,32 C32.1871722,33.3 31.6857588,34.5 30.682932,35.2 C29.6801052,35.9 28.3764304,36.1 27.1730383,35.5 L19.0501413,32.1 L10.9272444,35.7 C10.425831,35.9 9.9244176,36 9.4230042,36 L9.4230042,36 Z"/>
</svg>
