<svg xmlns="http://www.w3.org/2000/svg" width="33" height="34" viewBox="0 0 33 34">
  <path fill="#FF2741" d="M1.5,12 C0.7,12 0,11.3 0,10.5 C0,9.7 0.7,9 1.5,9 L4.5,9 C5.3,9 6,9.7 6,10.5 C6,11.3 5.3,12 4.5,12 L1.5,12 Z M1.5,18.1 C0.7,18.1 0,17.4 0,16.6 C0,15.8 0.7,15.1 1.5,15.1 L4.5,15.1 C5.3,15.1 6,15.8 6,16.6 C6,17.4 5.3,18.1 4.5,18.1 L1.5,18.1 Z M6,22.5 C6,23.3 5.3,24 4.5,24 L1.5,24 C0.7,24 0,23.3 0,22.5 C0,21.7 0.7,21 1.5,21 L4.5,21 C5.3,21 6,21.7 6,22.5 Z M27.5,0 C30.5,0 33,2.5 33,5.5 L33,28.5 C33,31.5 30.5,34 27.5,34 L7.5,34 C4.5,34 2,31.5 2,28.5 L2,27.5 C2,26.7 2.7,26 3.5,26 C4.3,26 5,26.7 5,27.5 L5,28.5 C5,29.9 6.1,31 7.5,31 L27.5,31 C28.9,31 30,29.9 30,28.5 L30,5.5 C30,4.1 28.9,3 27.5,3 L7.5,3 C6.1,3 5,4.1 5,5.5 C5,6.3 4.3,7 3.5,7 C2.7,7 2,6.3 2,5.5 C2,2.5 4.5,0 7.5,0 L27.5,0 Z M10,22.5 C10,19.6 11.6,17.2 14,16 C13.4,15.1 13,14.1 13,13 C13,10.2 15.2,8 18,8 C20.8,8 23,10.2 23,13 C23,14.2 22.6,15.2 22,16 C24.4,17.2 26,19.6 26,22.5 C26,23.3 25.3,24 24.5,24 C23.7,24 23,23.3 23,22.5 C23,19.9 20.9,18 18,18 C15.1,18 13,19.9 13,22.5 C13,23.3 12.3,24 11.5,24 C10.7,24 10,23.3 10,22.5 Z M18,11 C16.9,11 16,11.9 16,13 C16,14.1 16.9,15 18,15 C19.1,15 20,14.1 20,13 C20,11.9 19.1,11 18,11 Z"/>
</svg>
