<svg xmlns="http://www.w3.org/2000/svg" width="31" height="31" viewBox="0 0 31 31">
  <path fill="#999" d="M18.4285714,4.7346939 C17.8875578,4.7346939 17.4489796,4.2961157 17.4489796,3.755102 C17.4489796,3.2140884 17.8875578,2.7755102 18.4285714,2.7755102 L29.2040816,2.7755102 C29.7450953,2.7755102 30.1836735,3.2140884 30.1836735,3.755102 C30.1836735,4.2961157 29.7450953,4.7346939 29.2040816,4.7346939 L18.4285714,4.7346939 Z M29.2040816,9.6326531 C29.7450953,9.6326531 30.1836735,10.0712313 30.1836735,10.6122449 C30.1836735,11.1532585 29.7450953,11.5918367 29.2040816,11.5918367 L18.4285714,11.5918367 C17.8875578,11.5918367 17.4489796,11.1532585 17.4489796,10.6122449 C17.4489796,10.0712313 17.8875578,9.6326531 18.4285714,9.6326531 L29.2040816,9.6326531 Z M29.2040816,19.4285714 C29.7450953,19.4285714 30.1836735,19.8671496 30.1836735,20.4081633 C30.1836735,20.9491769 29.7450953,21.3877551 29.2040816,21.3877551 L18.4285714,21.3877551 C17.8875578,21.3877551 17.4489796,20.9491769 17.4489796,20.4081633 C17.4489796,19.8671496 17.8875578,19.4285714 18.4285714,19.4285714 L29.2040816,19.4285714 Z M29.2040816,26.2857143 C29.7450953,26.2857143 30.1836735,26.7242925 30.1836735,27.2653061 C30.1836735,27.8063198 29.7450953,28.244898 29.2040816,28.244898 L18.4285714,28.244898 C17.8875578,28.244898 17.4489796,27.8063198 17.4489796,27.2653061 C17.4489796,26.7242925 17.8875578,26.2857143 18.4285714,26.2857143 L29.2040816,26.2857143 Z M10.5918367,0.81632653 C12.2148776,0.81632653 13.5306122,2.1320611 13.5306122,3.755102 L13.5306122,10.6122449 C13.5306122,12.2352858 12.2148776,13.5510204 10.5918367,13.5510204 L3.7346939,13.5510204 C2.111653,13.5510204 0.79591837,12.2352858 0.79591837,10.6122449 L0.79591837,3.755102 C0.79591837,2.1320611 2.111653,0.81632653 3.7346939,0.81632653 L10.5918367,0.81632653 Z M11.5714286,10.6122449 L11.5714286,3.755102 C11.5714286,3.2140884 11.1328504,2.7755102 10.5918367,2.7755102 L3.7346939,2.7755102 C3.1936802,2.7755102 2.755102,3.2140884 2.755102,3.755102 L2.755102,10.6122449 C2.755102,11.1532585 3.1936802,11.5918367 3.7346939,11.5918367 L10.5918367,11.5918367 C11.1328504,11.5918367 11.5714286,11.1532585 11.5714286,10.6122449 Z M10.5918367,17.4693878 C12.2148776,17.4693878 13.5306122,18.7851224 13.5306122,20.4081633 L13.5306122,27.2653061 C13.5306122,28.888347 12.2148776,30.2040816 10.5918367,30.2040816 L3.7346939,30.2040816 C2.111653,30.2040816 0.79591837,28.888347 0.79591837,27.2653061 L0.79591837,20.4081633 C0.79591837,18.7851224 2.111653,17.4693878 3.7346939,17.4693878 L10.5918367,17.4693878 Z M11.5714286,27.2653061 L11.5714286,20.4081633 C11.5714286,19.8671496 11.1328504,19.4285714 10.5918367,19.4285714 L3.7346939,19.4285714 C3.1936802,19.4285714 2.755102,19.8671496 2.755102,20.4081633 L2.755102,27.2653061 C2.755102,27.8063198 3.1936802,28.244898 3.7346939,28.244898 L10.5918367,28.244898 C11.1328504,28.244898 11.5714286,27.8063198 11.5714286,27.2653061 Z"/>
</svg>
