<svg xmlns="http://www.w3.org/2000/svg" xmlns:xlink="http://www.w3.org/1999/xlink" width="48" height="48" viewBox="0 0 48 48">
  <defs>
    <rect id="更多-a" width="47.02" height="47.02" x="0" y="0"/>
  </defs>
  <g fill="none" fill-rule="evenodd" transform="translate(.098)">
    <mask id="更多-b" fill="#fff">
      <use xlink:href="#更多-a"/>
    </mask>
    <path fill="#999" d="M12.1469388,21.5510204 C13.5183673,21.5510204 14.5959184,22.6285714 14.5959184,24 C14.5959184,25.3714286 13.5183673,26.4489796 12.1469388,26.4489796 C10.7755102,26.4489796 9.69795918,25.3714286 9.69795918,24 C9.69795918,22.6285714 10.7755102,21.5510204 12.1469388,21.5510204 Z M23.4122449,21.5510204 C24.7836735,21.5510204 25.8612245,22.6285714 25.8612245,24 C25.8612245,25.3714286 24.7836735,26.4489796 23.4122449,26.4489796 C22.0408163,26.4489796 20.9632653,25.3714286 20.9632653,24 C20.9632653,22.6285714 22.0408163,21.5510204 23.4122449,21.5510204 Z M34.677551,21.5510204 C36.0489796,21.5510204 37.1265306,22.6285714 37.1265306,24 C37.1265306,25.3714286 36.0489796,26.4489796 34.677551,26.4489796 C33.3061224,26.4489796 32.2285714,25.3714286 32.2285714,24 C32.2285714,22.6285714 33.3061224,21.5510204 34.677551,21.5510204 Z" mask="url(#更多-b)"/>
  </g>
</svg>
