<svg xmlns="http://www.w3.org/2000/svg" xmlns:xlink="http://www.w3.org/1999/xlink" width="48" height="48" viewBox="0 0 48 48">
  <defs>
    <polygon id="icon-close-fill-a" points="0 0 48 0 48 48 0 48"/>
  </defs>
  <g fill="none" fill-rule="evenodd">
    <mask id="icon-close-fill-b" fill="#fff">
      <use xlink:href="#icon-close-fill-a"/>
    </mask>
    <path fill="#DDD" d="M31.057,28.919 C31.648,29.509 31.648,30.467 31.057,31.057 C30.467,31.648 29.509,31.648 28.919,31.057 L24,26.139 L19.081,31.057 C18.492,31.648 17.534,31.648 16.944,31.057 C16.353,30.467 16.353,29.509 16.944,28.919 L21.862,24 L16.944,19.081 C16.353,18.491 16.353,17.533 16.944,16.943 C17.534,16.353 18.492,16.353 19.081,16.943 L24,21.861 L28.919,16.943 C29.509,16.353 30.467,16.353 31.057,16.943 C31.648,17.533 31.648,18.491 31.057,19.081 L26.139,24 L31.057,28.919 Z M24,7 C14.626,7 7,14.626 7,24 C7,33.374 14.626,41 24,41 C33.374,41 41,33.374 41,24 C41,14.626 33.374,7 24,7 L24,7 Z" mask="url(#icon-close-fill-b)"/>
  </g>
</svg>
