<svg xmlns="http://www.w3.org/2000/svg" width="40" height="36" viewBox="0 0 40 36">
  <path fill="#FF2741" d="M31.4180969,0.64629334 C36.9392785,2.44367998 40.3171986,7.4483495 39.9764254,13.3247134 C39.8617452,15.4103484 39.348476,17.1464635 38.341244,18.8668487 C37.1066229,20.9756221 35.7379852,22.4612896 30.9079982,27.2160822 L30.6911218,27.4290182 C27.8314454,30.2404574 26.0325866,32.0351226 23.6991262,34.4333409 C22.7229375,35.4319181 21.3798729,36 19.9968291,36 C18.6115387,36 17.2672679,35.4294267 16.2926422,34.4287002 L16.2931696,34.4292415 C13.9135817,31.9884867 12.0764452,30.1561306 9.1985033,27.3257199 C1.66619018,19.9123628 0.27391429,17.9901326 0.01673561,13.3042875 C-0.26995973,7.3907606 3.14749707,2.3891197 8.679456,0.62466657 C12.3011017,-0.52935627 16.512961,-0.10249853 19.9968158,2.16919096 C23.5124085,-0.12395095 27.7640726,-0.5420385 31.4180969,0.64629334 Z M18.3199605,32.3769679 C18.7587438,32.8275017 19.3730717,33.088252 19.9968291,33.088252 C20.6205011,33.088252 21.2351571,32.8282683 21.6726933,32.380703 C24.0218263,29.9663714 25.8338292,28.1585928 28.7081384,25.3327681 L28.924336,25.1204999 C33.5315459,20.5850145 34.8395037,19.1652155 35.8876723,17.3749091 C36.6563489,16.0619843 37.0346686,14.782331 37.124025,13.1573691 C37.387943,8.6062244 34.8276606,4.8129532 30.5491068,3.42009633 C27.4354459,2.40749708 23.7427394,2.88116762 20.8583177,5.1034024 L19.9966978,5.7672171 L19.1351734,5.1032736 C16.2776829,2.90111628 12.6178266,2.42047887 9.532462,3.40361783 C5.2438617,4.7714939 2.64786544,8.570881 2.86989136,13.1511286 C3.07034976,16.8030883 4.18867622,18.3470933 11.1829116,25.2308706 C14.0736737,28.0738895 15.9233447,29.9187476 18.3199605,32.3769679 Z"/>
</svg>
