<svg xmlns="http://www.w3.org/2000/svg" xmlns:xlink="http://www.w3.org/1999/xlink" width="48" height="48" viewBox="0 0 48 48">
  <defs>
    <rect id="设置3px-a" width="48" height="48" x="0" y="0"/>
  </defs>
  <g fill="none" fill-rule="evenodd">
    <mask id="设置3px-b" fill="#fff">
      <use xlink:href="#设置3px-a"/>
    </mask>
    <path fill="#999" d="M24,18 C27.3,18 30,20.7 30,24 C30,27.3 27.3,30 24,30 C20.7,30 18,27.3 18,24 C18,20.7 20.7,18 24,18 Z M24,27 C25.7,27 27,25.6 27,24 C27,22.3 25.7,21 24,21 C22.3,21 21,22.3 21,24 C21,25.7 22.3,27 24,27 Z M40.7,21.1 C41.2,23.3 41,25.9 40.5,28.1 C40.2,29.2 38.8,29 37.9,29.2 C37,29.4 36.2,29.8 35.6,30.5 C34.9,31.4 34.6,32.6 34.9,33.7 C35.2,34.8 36,35.7 35.1,36.7 C34.3,37.6 33.2,38.1 32.2,38.7 C31.3,39.2 30.4,39.8 29.4,39.9 C29.4,39.9 29.3,39.9 29.3,39.9 C28.2,39.9 28,38.8 27.3,38.2 C26.5,37.4 25.5,37 24.4,37 C23.4,37 22.2,37.4 21.5,38.2 C21,38.7 20.8,39.5 20.1,39.8 C19.9,40 19.6,40 19.4,40 C18.7,40 17.9,39.6 17.3,39.3 C16.4,38.9 15.5,38.4 14.6,37.9 C13.9,37.5 12.7,36.8 12.8,35.8 C12.8,35.3 13.2,34.9 13.4,34.4 C13.6,34 13.6,33.5 13.6,33 C13.5,31.2 12.1,29.7 10.4,29.3 C9.5,29.1 8.3,29.5 7.7,28.7 C7.2,28 7.2,26.9 7.1,26 C7.1,24.9 7,23.9 7.1,22.8 C7.2,22 7.2,20.6 7.7,19.9 C8.1,19.3 8.8,19.3 9.5,19.3 C9.6,19.3 9.7,19.3 9.8,19.3 C10.2,19.3 10.5,19.3 10.8,19.2 C11.7,19 12.5,18.3 13,17.5 C13.6,16.5 13.7,15.2 13.3,14.1 C13,13.4 12.3,12.8 12.6,12 C12.9,11.1 14.3,10.5 15,10 C15.9,9.4 16.9,8.9 17.9,8.5 C18.4,8.3 18.9,8.1 19.4,8.1 C19.8,8.1 20.1,8.2 20.4,8.5 C21,9.1 21.2,9.8 21.9,10.3 C22.6,10.8 23.4,11.1 24.3,11.1 C25.1,11.1 26,10.8 26.7,10.3 C27.4,9.8 27.7,8.7 28.5,8.4 C28.7,8.3 28.8,8.3 29,8.3 C29.8,8.3 30.6,8.8 31.2,9.1 C32.3,9.6 33.3,10.2 34.2,10.9 C34.9,11.4 35.8,12 35.5,13 C35.2,14.1 34.5,14.9 34.7,16.1 C34.8,17.1 35.4,18 36.2,18.6 C37.2,19.3 38.2,19.2 39.4,19.4 C40.3,19.5 40.5,20.3 40.7,21.1 Z M37.8,26.1 C38,24.7 38.1,23.3 37.9,22.2 C37,22.1 35.8,21.9 34.5,21 C33.1,19.9 32.1,18.3 31.8,16.5 C31.6,15.1 32,13.9 32.3,13.1 C31.5,12.6 30.8,12.2 30,11.8 C29.8,11.7 29.7,11.7 29.6,11.6 C29.3,12 29,12.4 28.5,12.7 C27.3,13.5 25.8,14 24.3,14 C22.8,14 21.3,13.5 20.1,12.7 C19.5,12.3 19.1,11.8 18.8,11.4 C17.9,11.8 17.1,12.2 16.5,12.6 C16.4,12.6 16.2,12.7 16.1,12.8 C16,12.8 16,12.9 15.9,12.9 C15.9,12.9 15.9,13 15.9,13 C16.6,14.9 16.4,17.2 15.3,19 C14.4,20.4 12.9,21.6 11.3,22 C10.9,22.1 10.4,22.2 10,22.2 C10,22.4 10,22.5 10,22.6 L10,23 C10,23.9 10,24.9 10.2,25.8 L10.2,25.9 C10.2,26 10.2,26.1 10.2,26.2 C10.5,26.2 10.9,26.2 11.2,26.3 C14.3,27 16.6,29.6 16.7,32.7 C16.7,33.6 16.6,34.5 16.3,35.3 C16.9,35.7 17.6,36 18.4,36.4 L18.6,36.5 L18.8,36.6 C18.9,36.4 19,36.3 19.2,36.1 C20.4,34.7 22.3,33.9 24.3,33.9 C24.4,33.9 24.4,33.9 24.4,33.9 C26.3,33.9 28.1,34.6 29.4,35.9 C29.5,36.1 29.7,36.2 29.8,36.4 C29.9,36.4 30.1,36.3 30.2,36.2 C30.3,36.2 30.5,36.1 30.6,36 C30.7,35.9 30.9,35.8 31.1,35.7 C31.5,35.5 31.8,35.3 32.1,35.1 C32.1,34.9 32,34.6 31.9,34.3 C31.4,32.3 31.9,30.1 33.2,28.5 C34.2,27.4 35.5,26.6 37.1,26.2 C37.3,26.2 37.6,26.1 37.8,26.1 Z" mask="url(#设置3px-b)"/>
  </g>
</svg>
