<svg xmlns="http://www.w3.org/2000/svg" xmlns:xlink="http://www.w3.org/1999/xlink" width="48" height="48" viewBox="0 0 48 48">
  <defs>
    <rect id="icon-shopping-cart-a" width="48" height="48" x="0" y="0"/>
  </defs>
  <g fill="none" fill-rule="evenodd">
    <mask id="icon-shopping-cart-b" fill="#fff">
      <use xlink:href="#icon-shopping-cart-a"/>
    </mask>
    <path fill="#999" d="M20.2950609,38.7647901 C21.1707073,38.7647901 21.8832951,38.0522024 21.8832951,37.1765559 C21.8832951,36.3009095 21.1707073,35.5883217 20.2950609,35.5883217 C19.4183556,35.5883217 18.7068266,36.3009095 18.7068266,37.1765559 C18.7068266,38.0522024 19.4183556,38.7647901 20.2950609,38.7647901 Z M20.2950609,33.4706761 C22.3385889,33.4706761 24.0009407,35.1330279 24.0009407,37.1765559 C24.0009407,39.2200839 22.3385889,40.8824358 20.2950609,40.8824358 C18.2515328,40.8824358 16.589181,39.2200839 16.589181,37.1765559 C16.589181,35.1330279 18.2515328,33.4706761 20.2950609,33.4706761 Z M33.001464,38.7647901 C33.8771104,38.7647901 34.5896982,38.0522024 34.5896982,37.1765559 C34.5896982,36.3009095 33.8771104,35.5883217 33.001464,35.5883217 C32.1258175,35.5883217 31.4132298,36.3009095 31.4132298,37.1765559 C31.4132298,38.0522024 32.1258175,38.7647901 33.001464,38.7647901 Z M33.001464,33.4706761 C35.044992,33.4706761 36.7073438,35.1330279 36.7073438,37.1765559 C36.7073438,39.2200839 35.044992,40.8824358 33.001464,40.8824358 C30.9579359,40.8824358 29.2955841,39.2200839 29.2955841,37.1765559 C29.2955841,35.1330279 30.9579359,33.4706761 33.001464,33.4706761 Z M39.8113887,14.7908182 C39.9384475,14.4615243 39.8971534,14.1068187 39.6970359,13.8156424 C39.4958595,13.5212897 39.1750362,13.3529369 38.8182129,13.3529369 L14.7818764,13.3529369 L16.6041104,23.9411649 L35.5506858,23.9411649 C35.9890384,23.9411649 36.3882146,23.6679887 36.5449204,23.2614007 L39.8113887,14.7908182 Z M41.4430347,12.617055 C42.0349166,13.4799956 42.164093,14.576936 41.7871521,15.5531706 L38.5206837,24.0237531 C38.0516252,25.2413993 36.8572731,26.0588106 35.5506858,26.0588106 L16.9683455,26.0588106 L17.3632864,28.356456 C17.4511687,28.8657498 17.8905801,29.235279 18.4072857,29.235279 L36.7069203,29.235279 C37.2924493,29.235279 37.7657431,29.7096316 37.7657431,30.2941018 C37.7657431,30.878572 37.2924493,31.3529246 36.7069203,31.3529246 L18.4072857,31.3529246 C16.8561103,31.3529246 15.5399935,30.2432783 15.2774054,28.7143382 L12.0564665,9.99752737 C11.9685842,9.48717478 11.5302315,9.11764562 11.0124672,9.11764562 L7.05882281,9.11764562 C6.47435262,9.11764562 6,8.643293 6,8.05882281 C6,7.47435262 6.47435262,7 7.05882281,7 L11.0124672,7 C12.5636426,7 13.8808182,8.1096463 14.1434062,9.63858644 L14.419759,11.2458795 C14.437759,11.2448206 14.4525825,11.2352912 14.4705825,11.2352912 L38.8182129,11.2352912 C39.8685652,11.2352912 40.8490351,11.7519968 41.4430347,12.617055 Z" mask="url(#icon-shopping-cart-b)"/>
  </g>
</svg>
