<svg xmlns="http://www.w3.org/2000/svg" xmlns:xlink="http://www.w3.org/1999/xlink" width="48" height="48" viewBox="0 0 48 48">
  <defs>
    <rect id="icon-money-fill-a" width="48" height="48" x="0" y="0"/>
  </defs>
  <g fill="none" fill-rule="evenodd">
    <mask id="icon-money-fill-b" fill="#fff">
      <use xlink:href="#icon-money-fill-a"/>
    </mask>
    <path fill="#999" d="M31.5,25 C32.328,25 33,25.672 33,26.5 C33,27.328 32.328,28 31.5,28 L25.5,28 L25.5,32.5 C25.5,33.328 24.828,34 24,34 C23.172,34 22.5,33.328 22.5,32.5 L22.5,28 L16.5,28 C15.672,28 15,27.328 15,26.5 C15,25.672 15.672,25 16.5,25 L22.5,25 L22.5,21.015 L16.5,21.015 C15.672,21.015 15,20.343 15,19.515 C15,18.687 15.672,18.015 16.5,18.015 L19.496,18.015 L18.555,16.187 C18.176,15.45 18.466,14.546 19.202,14.166 C19.938,13.791 20.843,14.077 21.223,14.813 L22.871,18.015 L25.896,18.015 L27.545,14.813 C27.925,14.077 28.829,13.79 29.565,14.166 C30.302,14.546 30.592,15.45 30.213,16.187 L29.271,18.015 L31.5,18.015 C32.328,18.015 33,18.687 33,19.515 C33,20.343 32.328,21.015 31.5,21.015 L25.5,21.015 L25.5,25 L31.5,25 Z M24,7 C14.626,7 7,14.626 7,24 C7,33.374 14.626,41 24,41 C33.374,41 41,33.374 41,24 C41,14.626 33.374,7 24,7 L24,7 Z" mask="url(#icon-money-fill-b)"/>
  </g>
</svg>
