<svg xmlns="http://www.w3.org/2000/svg" width="38" height="38" viewBox="0 0 38 38">
  <path fill="#999" d="M26.8186782,25.3734984 C27.9197318,26.5113145 26.2130077,28.1628949 25.1119541,27.0250788 L18.9986903,20.7077024 L12.8854264,27.0250788 C11.7843728,28.1628949 10.0776487,26.5113145 11.1787023,25.3734984 L17.346219,19.0000576 L11.1783879,12.626292 C10.0773344,11.4884759 11.7840585,9.8368956 12.8851121,10.9747117 L18.9986903,17.2924129 L25.1122684,10.9747117 C26.213322,9.8368956 27.9200462,11.4884759 26.8189926,12.626292 L20.6511615,19.0000576 L26.8186782,25.3734984 Z M18.1453282,18.1742674 L19.8520523,18.1742674 L18.9986903,17.2924129 L18.1453282,18.1742674 Z M18.1453282,18.1742674 L19.8520523,18.1742674 L18.9986903,17.2924129 L18.1453282,18.1742674 Z M38,19 C38,29.492524 29.491487,38 19,38 C8.5064229,38 0,29.4935771 0,19 C0,8.5078163 8.507125,0 19,0 C29.4907848,0 38,8.5088695 38,19 Z M35.625,19 C35.625,9.8205674 28.1791301,2.375 19,2.375 C9.8188445,2.375 2.375,9.8194494 2.375,19 C2.375,28.1819008 9.8180992,35.625 19,35.625 C28.1798755,35.625 35.625,28.1807829 35.625,19 Z"/>
</svg>
