<svg xmlns="http://www.w3.org/2000/svg" xmlns:xlink="http://www.w3.org/1999/xlink" width="48" height="48" viewBox="0 0 48 48">
  <defs>
    <rect id="主页2px-a" width="48" height="48" x="0" y="0"/>
  </defs>
  <g fill="none" fill-rule="evenodd">
    <mask id="主页2px-b" fill="#fff">
      <use xlink:href="#主页2px-a"/>
    </mask>
    <path fill="#999" d="M29.7546891,40.5724945 L33.4653481,40.5724945 C34.4587377,40.5724945 35.2637321,39.767342 35.2637321,38.7741105 L35.2637321,22.789684 C35.2637321,22.2486128 35.702357,21.809988 36.2434282,21.809988 L40.9109502,21.809988 C41.0294547,21.809988 41.0820619,21.6606556 40.9895703,21.586152 L24.0794289,7.98710887 C24.0331576,7.94996524 23.9668744,7.94996524 23.9211896,7.98656439 L7.01042774,21.586106 C6.9178573,21.6605941 6.97046178,21.809988 7.08899066,21.809988 L11.7565127,21.809988 C12.2975839,21.809988 12.7362087,22.2486128 12.7362087,22.789684 L12.7362087,38.7741105 C12.7362087,39.7670261 13.5416772,40.5724945 14.5345928,40.5724945 L27.7681241,40.5724945 C27.803359,40.4264078 27.8214476,40.2750775 27.8214476,40.1204959 L27.8214476,29.275952 C27.8214476,28.2569266 27.0307204,27.4420224 26.0712475,27.4420224 L21.9290093,27.4420224 C20.9690646,27.4420224 20.1788092,28.2566031 20.1788092,29.275952 L20.1788092,35.9300738 L18.2194171,35.9300738 L18.2194171,29.275952 C18.2194171,27.1875313 19.8734058,25.4826304 21.9290093,25.4826304 L26.0712475,25.4826304 C28.1262886,25.4826304 29.7808397,27.1877702 29.7808397,29.275952 L29.7808397,40.1204959 C29.7808397,40.2724541 29.7720516,40.423321 29.7546891,40.5724945 Z M10.7768167,23.7693801 L7.08899066,23.7693801 C5.12077822,23.7693801 4.24888635,21.2932549 5.78228605,20.0593823 L22.6946713,6.45853724 C23.4580189,5.84696636 24.5434107,5.84696636 25.306675,6.45966541 L42.2178727,20.0595576 C43.7510545,21.2932549 42.8791626,23.7693801 40.9109502,23.7693801 L37.2231242,23.7693801 L37.2231242,38.7741105 C37.2231242,40.8493982 35.5409662,42.5318866 33.4653481,42.5318866 L14.5345928,42.5318866 C12.4595348,42.5318866 10.7768167,40.8491684 10.7768167,38.7741105 L10.7768167,23.7693801 Z" mask="url(#主页2px-b)"/>
  </g>
</svg>
