<svg xmlns="http://www.w3.org/2000/svg" xmlns:xlink="http://www.w3.org/1999/xlink" width="48" height="48" viewBox="0 0 48 48">
  <defs>
    <rect id="我的2px-a" width="48" height="48" x="0" y="0"/>
  </defs>
  <g fill="none" fill-rule="evenodd">
    <mask id="我的2px-b" fill="#fff">
      <use xlink:href="#我的2px-a"/>
    </mask>
    <path fill="#333" d="M24.021,9 C19.61,9 16.021,12.589 16.021,17 C16.021,19.294 17.009,21.482 18.732,23.002 C18.994,23.233 19.116,23.585 19.054,23.929 C18.992,24.273 18.755,24.56 18.428,24.686 C12.613,26.921 9,32.031 9,38.021 C9,38.561 9.44,39 9.98,39 L38.021,39 C38.561,39 39,38.561 39,38.021 C39,32.089 35.386,26.992 29.569,24.718 C29.244,24.591 29.008,24.303 28.948,23.958 C28.888,23.613 29.012,23.263 29.276,23.033 C31.02,21.512 32.021,19.313 32.021,17 C32.021,12.589 28.432,9 24.021,9 M38.021,41 L9.98,41 C8.337,41 7,39.664 7,38.021 C7,31.668 10.543,26.189 16.344,23.408 C14.854,21.621 14.021,19.355 14.021,17 C14.021,11.486 18.507,7 24.021,7 C29.535,7 34.021,11.486 34.021,17 C34.021,19.378 33.175,21.659 31.662,23.452 C37.459,26.264 41,31.727 41,38.021 C41,39.664 39.664,41 38.021,41" mask="url(#我的2px-b)"/>
  </g>
</svg>
