<svg xmlns="http://www.w3.org/2000/svg" xmlns:xlink="http://www.w3.org/1999/xlink" width="48" height="48" viewBox="0 0 48 48">
  <defs>
    <rect id="分享-a" width="48" height="48" x="0" y="0"/>
  </defs>
  <g fill="none" fill-rule="evenodd">
    <mask id="分享-b" fill="#fff">
      <use xlink:href="#分享-a"/>
    </mask>
    <path fill="#999" d="M42.8,16.2 C43.1,16.5 43.1,17 42.8,17.3 L33.6,25.5 C32.6,26.3 31.8,26 31.8,24.7 L31.8,21.1 C14.9,21.1 13,25.9 13,25.9 C13,19.3 18.9,12.6 31.7,12.8 L31.7,9.2 C31.7,7.9 32.6,7.5 33.6,8.4 L42.8,16.2 Z M38.5,26 C39.3,26 40,26.7 40,27.5 L40,35.5 C40,38 38,40 35.5,40 L10.5,40 C8,40 6,38 6,35.5 L6,27.5 C6,26.7 6.7,26 7.5,26 C8.3,26 9,26.7 9,27.5 L9,35.5 C9,36.3 9.7,37 10.5,37 L35.5,37 C36.3,37 37,36.3 37,35.5 L37,27.5 C37,26.7 37.7,26 38.5,26 Z" mask="url(#分享-b)"/>
  </g>
</svg>
