<svg xmlns="http://www.w3.org/2000/svg" width="36" height="36" viewBox="0 0 36 36">
  <path fill="#999" fill-rule="evenodd" d="M19.5,20.5 C20.328,20.5 21,21.172 21,22 C21,22.828 20.328,23.5 19.5,23.5 L16.5,23.5 C15.672,23.5 15,22.828 15,22 C15,21.172 15.672,20.5 16.5,20.5 L19.5,20.5 Z M30.5,33 C31.879,33 33,31.879 33,30.5 L33,17 L3,17 L3,30.5 C3,31.879 4.121,33 5.5,33 L30.5,33 Z M5.5,9 C4.121,9 3,10.121 3,11.5 L3,14 L33,14 L33,11.5 C33,10.121 31.879,9 30.5,9 L5.5,9 Z M11,5.5 L11,6 L25,6 L25,5.5 C25,4.121 23.879,3 22.5,3 L13.5,3 C12.121,3 11,4.121 11,5.5 Z M30.5,6 C33.532,6 36,8.468 36,11.5 L36,30.5 C36,33.532 33.532,36 30.5,36 L5.5,36 C2.468,36 0,33.532 0,30.5 L0,11.5 C0,8.468 2.468,6 5.5,6 L8,6 L8,5.5 C8,2.468 10.468,0 13.5,0 L22.5,0 C25.532,0 28,2.468 28,5.5 L28,6 L30.5,6 Z"/>
</svg>
