<svg xmlns="http://www.w3.org/2000/svg" xmlns:xlink="http://www.w3.org/1999/xlink" width="48" height="48" viewBox="0 0 48 48">
  <defs>
    <path id="业务3px-a" d="M25.5,26.5 C26.328,26.5 27,27.172 27,28 C27,28.828 26.328,29.5 25.5,29.5 L22.5,29.5 C21.672,29.5 21,28.828 21,28 C21,27.172 21.672,26.5 22.5,26.5 L25.5,26.5 Z M36.5,39 C37.879,39 39,37.879 39,36.5 L39,23 L9,23 L9,36.5 C9,37.879 10.121,39 11.5,39 L36.5,39 Z M11.5,15 C10.121,15 9,16.121 9,17.5 L9,20 L39,20 L39,17.5 C39,16.121 37.879,15 36.5,15 L11.5,15 Z M17,11.5 L17,12 L31,12 L31,11.5 C31,10.121 29.879,9 28.5,9 L19.5,9 C18.121,9 17,10.121 17,11.5 Z M36.5,12 C39.532,12 42,14.468 42,17.5 L42,36.5 C42,39.532 39.532,42 36.5,42 L11.5,42 C8.468,42 6,39.532 6,36.5 L6,17.5 C6,14.468 8.468,12 11.5,12 L14,12 L14,11.5 C14,8.468 16.468,6 19.5,6 L28.5,6 C31.532,6 34,8.468 34,11.5 L34,12 L36.5,12 Z"/>
  </defs>
  <use fill="#999" fill-rule="evenodd" xlink:href="#业务3px-a"/>
</svg>
