<svg xmlns="http://www.w3.org/2000/svg" width="36" height="34" viewBox="0 0 36 34">
  <defs>
    <linearGradient id="icon-star-fill-a" x1="23.562%" x2="78.142%" y1="16.537%" y2="82.573%">
      <stop offset="0%" stop-color="#FEE24B"/>
      <stop offset="100%" stop-color="#FFB119"/>
    </linearGradient>
  </defs>
  <path fill="url(#icon-star-fill-a)" fill-rule="evenodd" d="M8.8584792,33.9875046 C8.1598929,33.9875046 7.4613065,33.7875781 6.8625181,33.2877619 C5.8645376,32.5880191 5.3655473,31.4884234 5.5651434,30.2888644 L6.4633259,22.091878 L0.87463483,15.9941198 C0.07625039,15.0944506 -0.22314377,13.8948916 0.17604845,12.6953326 C0.47544261,11.6957001 1.37362511,10.7960309 2.57120177,10.4961411 L10.8544403,8.7967659 L15.0459587,1.59941198 C15.644747,0.59977949 16.7425256,0 17.9401023,0 C19.1376789,0 20.2354575,0.59977949 20.8342459,1.59941198 L25.0257642,8.7967659 L33.3090028,10.4961411 C34.5065794,10.7960309 35.4047619,11.5957369 35.8039541,12.6953326 C36.2031464,13.7949283 36.0035503,14.9944873 35.1053678,15.9941198 L29.5166767,22.1918412 L30.4148592,30.3888276 C30.5146572,31.5883866 30.0156669,32.7879456 29.0176864,33.3877251 C28.0197058,34.0874678 26.8221292,34.1874311 25.7243506,33.6876148 L17.9401023,30.2888644 L10.255652,33.6876148 C9.7566617,33.8875413 9.3574695,33.9875046 8.8584792,33.9875046"/>
</svg>
