<svg xmlns="http://www.w3.org/2000/svg" xmlns:xlink="http://www.w3.org/1999/xlink" width="48" height="48" viewBox="0 0 48 48">
  <defs>
    <rect id="小头像-a" width="48" height="48" x="0" y="0"/>
  </defs>
  <g fill="none" fill-rule="evenodd">
    <mask id="小头像-b" fill="#fff">
      <use xlink:href="#小头像-a"/>
    </mask>
    <path fill="#FF2741" d="M17.7784769,26.4923104 C14.4695846,24.3046622 12.2841527,20.5323595 12.2841527,16.2442094 C12.2841527,9.48185211 17.7249461,4 24.4333005,4 C31.1423566,4 36.5811273,9.48122838 36.5811273,16.2442094 C36.5811273,20.6792905 34.2446645,24.5621339 30.7449953,26.7111127 C36.7782855,29.3428639 41,35.3970748 41,42.4462227 C41,43.3043502 40.3099762,44 39.4587888,44 C38.6076013,44 37.9175776,43.3043502 37.9175776,42.4462227 C37.9175776,35.102929 32.321257,29.07839 25.193769,28.4674907 C24.9422758,28.4831414 24.6887097,28.4910824 24.4333005,28.4910824 C24.0402701,28.4910824 23.6515956,28.472272 23.2681155,28.435495 C15.921454,28.8184294 10.0824224,34.9435715 10.0824224,42.4462227 C10.0824224,43.3043502 9.39239866,44 8.54121121,44 C7.69002376,44 7,43.3043502 7,42.4462227 C7,35.1937915 11.4670124,28.9949137 17.7784769,26.4923104 Z M23.3641012,25.3206635 C23.5746713,25.3128748 23.7862197,25.3089464 23.998679,25.3089464 C24.4031442,25.3089464 24.8043123,25.3231831 25.2017166,25.3511866 C29.849645,24.9582235 33.4987049,21.032865 33.4987049,16.2442094 C33.4987049,11.1977229 29.4402192,7.10755469 24.4333005,7.10755469 C19.4269056,7.10755469 15.3665751,11.1985263 15.3665751,16.2442094 C15.3665751,20.9283031 18.8607169,24.7875091 23.3641012,25.3206635 Z" mask="url(#小头像-b)"/>
  </g>
</svg>
