<?xml version="1.0" encoding="utf-8"?>
<!-- Generator: Adobe Illustrator 21.0.0, SVG Export Plug-In . SVG Version: 6.00 Build 0)  -->
<svg version="1.1" id="线形" xmlns="http://www.w3.org/2000/svg" xmlns:xlink="http://www.w3.org/1999/xlink" x="0px" y="0px"
	 viewBox="0 0 48 48" style="enable-background:new 0 0 48 48;" xml:space="preserve">
<style type="text/css">
	.st0{fill:none;}
	.st1{fill-rule:evenodd;clip-rule:evenodd;}
</style>
<g>
	<g>
		<ellipse cx="19.7" cy="37.7" rx="2.8" ry="2.8"/>
		<ellipse cx="33" cy="37.7" rx="2.8" ry="2.8"/>
		<path d="M41.4,13.7c-0.6-0.9-1.6-1.4-2.7-1.4H15.1l-0.3-1.9c-0.3-1.6-1.6-2.8-3.3-2.8H7.4C6.6,7.5,6,8.1,6,8.9s0.6,1.4,1.4,1.4
			h4.1c0.2,0,0.4,0.2,0.5,0.4l3.2,19.4c0.3,1.6,1.6,2.8,3.3,2.8h18.3c0.8,0,1.4-0.6,1.4-1.4s-0.6-1.4-1.4-1.4H18.5
			c-0.2,0-0.4-0.2-0.5-0.4l-0.2-1.4h17.7c1.4,0,2.6-0.9,3.1-2.2l3.3-9.1C42.2,15.8,42,14.6,41.4,13.7z"/>
	</g>
	<rect class="st0" width="48" height="48"/>
</g>
</svg>
