<svg xmlns="http://www.w3.org/2000/svg" xmlns:xlink="http://www.w3.org/1999/xlink" width="48" height="48" viewBox="0 0 48 48">
  <defs>
    <rect id="多选选中-a" width="48" height="48" x="0" y="0"/>
  </defs>
  <g fill="none" fill-rule="evenodd">
    <mask id="多选选中-b" fill="#fff">
      <use xlink:href="#多选选中-a"/>
    </mask>
    <path fill="#4D97FF" d="M40,24.0004445 C40,32.8362455 32.8362455,40 23.9995555,40 C15.1619767,40 8,32.8362455 8,24.0004445 C8,15.1646435 15.1619767,8 23.9995555,8 C32.8362455,8 40,15.1646435 40,24.0004445 Z M30.347825,17.2628761 L21.7854409,25.8245134 L17.6200513,21.588676 C16.734916,20.6885706 15.2876924,20.676435 14.387587,21.5615704 C13.4874817,22.4467057 13.4753461,23.8939293 14.3604815,24.7940347 L20.1419754,30.6733091 C21.0323362,31.5787283 22.4900181,31.5848716 23.3879788,30.6869892 L33.5802619,20.495595 C34.4729526,19.6029822 34.4730157,18.1557077 33.5804029,17.2630171 C32.6877901,16.3703264 31.2405156,16.3702633 30.347825,17.2628761 Z" mask="url(#多选选中-b)"/>
  </g>
</svg>
