<?xml version="1.0" encoding="utf-8"?>
<!-- Generator: Adobe Illustrator 21.0.0, SVG Export Plug-In . SVG Version: 6.00 Build 0)  -->
<svg version="1.1" id="线形" xmlns="http://www.w3.org/2000/svg" xmlns:xlink="http://www.w3.org/1999/xlink" x="0px" y="0px"
	 viewBox="0 0 48 48" style="enable-background:new 0 0 48 48;" xml:space="preserve">
<style type="text/css">
	.st0{fill:none;}
	.st1{fill:#030000;}
	.st2{fill:#040000;}
	.st3{fill:#231815;}
	.st4{fill:none;stroke:#000000;stroke-linecap:round;stroke-linejoin:round;stroke-miterlimit:10;}
	.st5{fill:none;stroke:#000000;stroke-miterlimit:10;}
	.st6{fill-rule:evenodd;clip-rule:evenodd;fill:#030000;}
	.st7{fill-rule:evenodd;clip-rule:evenodd;}
	.st8{fill:#221714;}
	.st9{fill:none;stroke:#000000;stroke-width:2;stroke-linecap:round;stroke-linejoin:round;stroke-miterlimit:10;}
</style>
<g>
	<rect class="st0" width="48" height="48"/>
	<g>
		<path d="M24.1,42c0,0-0.1,0-0.1,0c-1,0-2-0.4-2.7-1.2L21,40.5c-0.3-0.4-0.7-0.8-1.1-1.3l-0.3-0.3C15.7,33.9,9,25.8,9,19.2
			C9,11.9,15.7,6,24,6s15,5.9,15,13.2c0,6.8-7.1,15.3-11,19.9c-0.3,0.5-0.7,0.9-1,1.3l-0.3,0.3C26.2,41.5,25.2,42,24.1,42z M24,40
			L24,40c0.5,0,0.9-0.2,1.2-0.5l0.3-0.4c0.3-0.3,0.6-0.8,1-1.2C29.9,33.7,37,25.3,37,19.2C37,13,31.2,8,24,8s-13,5-13,11.2
			c0,5.9,6.6,14,10.2,18.3l0.3,0.4c0.4,0.5,0.7,0.9,1,1.3l0.3,0.3C23.1,39.8,23.5,40,24,40L24,40z"/>
		<path d="M24,24c-2.8,0-5-2.2-5-5s2.2-5,5-5s5,2.2,5,5S26.8,24,24,24z M24,16c-1.7,0-3,1.3-3,3s1.3,3,3,3s3-1.3,3-3S25.7,16,24,16z
			"/>
	</g>
</g>
</svg>
