<svg xmlns="http://www.w3.org/2000/svg" xmlns:xlink="http://www.w3.org/1999/xlink" width="48" height="48" viewBox="0 0 48 48">
  <defs>
    <polygon id="关闭-a" points="0 0 48 0 48 48 0 48"/>
  </defs>
  <g fill="none" fill-rule="evenodd">
    <mask id="关闭-b" fill="#fff">
      <use xlink:href="#关闭-a"/>
    </mask>
    <path fill="#DDD" d="M33.5187366,31.3033889 C34.3304814,32.1415 34.3083141,33.4778333 33.4701797,34.2885 C33.0595572,34.6853889 32.5307092,34.8827778 32.0018612,34.8827778 C31.4497903,34.8827778 30.898775,34.6674444 30.4849857,34.2388889 L23.8928581,27.4273889 L17.3017862,34.2388889 C16.8879969,34.6674444 16.335926,34.8827778 15.7849107,34.8827778 C15.2560627,34.8827778 14.7261591,34.6853889 14.3165921,34.2885 C13.4784577,33.4778333 13.4562905,32.1415 14.2680352,31.3033889 L20.956221,24.3916111 L14.2680352,17.4808889 C13.457346,16.6427778 13.4795133,15.3075 14.3176477,14.4957778 C15.1547265,13.6851111 16.4921526,13.7072778 17.3017862,14.5453889 L23.8928581,21.3568889 L30.4849857,14.5453889 C31.2956749,13.7072778 32.6320453,13.6851111 33.4701797,14.4957778 C34.3083141,15.3075 34.3304814,16.6427778 33.5187366,17.4808889 L26.8305508,24.3916111 L33.5187366,31.3033889 Z M23.9994722,5 C13.5069585,5 5,13.5067222 5,24 C5,34.4922222 13.5069585,43 23.9994722,43 C34.4930415,43 43,34.4922222 43,24 C43,13.5067222 34.4930415,5 23.9994722,5 L23.9994722,5 Z" mask="url(#关闭-b)"/>
  </g>
</svg>
