<svg xmlns="http://www.w3.org/2000/svg" xmlns:xlink="http://www.w3.org/1999/xlink" width="48" height="48" viewBox="0 0 48 48">
  <defs>
    <linearGradient id="星级已点亮-a" x1="23.562%" x2="78.142%" y1="16.537%" y2="82.573%">
      <stop offset="0%" stop-color="#FEE24B"/>
      <stop offset="100%" stop-color="#FFB119"/>
    </linearGradient>
    <path id="星级已点亮-b" d="M14.8584792,40.9875046 C14.1598929,40.9875046 13.4613065,40.7875781 12.8625181,40.2877619 C11.8645376,39.5880191 11.3655473,38.4884234 11.5651434,37.2888644 L12.4633259,29.091878 L6.87463483,22.9941198 C6.07625039,22.0944506 5.77685623,20.8948916 6.17604845,19.6953326 C6.47544261,18.6957001 7.37362511,17.7960309 8.57120177,17.4961411 L16.8544403,15.7967659 L21.0459587,8.59941198 C21.644747,7.59977949 22.7425256,7 23.9401023,7 C25.1376789,7 26.2354575,7.59977949 26.8342459,8.59941198 L31.0257642,15.7967659 L39.3090028,17.4961411 C40.5065794,17.7960309 41.4047619,18.5957369 41.8039541,19.6953326 C42.2031464,20.7949283 42.0035503,21.9944873 41.1053678,22.9941198 L35.5166767,29.1918412 L36.4148592,37.3888276 C36.5146572,38.5883866 36.0156669,39.7879456 35.0176864,40.3877251 C34.0197058,41.0874678 32.8221292,41.1874311 31.7243506,40.6876148 L23.9401023,37.2888644 L16.255652,40.6876148 C15.7566617,40.8875413 15.3574695,40.9875046 14.8584792,40.9875046"/>
  </defs>
  <use fill="url(#星级已点亮-a)" fill-rule="evenodd" xlink:href="#星级已点亮-b"/>
</svg>
