<svg xmlns="http://www.w3.org/2000/svg" width="34" height="34" viewBox="0 0 34 34">
  <path fill="#999" fill-rule="evenodd" d="M17,0 C26.4,0 34,7.6 34,17 C34,26.4 26.4,34 17,34 C7.6,34 0,26.4 0,17 C0,7.6 7.6,0 17,0 Z M17,32 C25.3,32 32,25.3 32,17 C32,8.7 25.3,2 17,2 C8.7,2 2,8.7 2,17 C2,25.3 8.7,32 17,32 Z M17,14 C17.6,14 18,14.4 18,15 L18,25 C18,25.6 17.6,26 17,26 C16.4,26 16,25.6 16,25 L16,15 C16,14.4 16.4,14 17,14 Z M17,12 C16.1715729,12 15.5,11.3284271 15.5,10.5 C15.5,9.6715729 16.1715729,9 17,9 C17.8284271,9 18.5,9.6715729 18.5,10.5 C18.5,11.3284271 17.8284271,12 17,12 Z"/>
</svg>
