<svg xmlns="http://www.w3.org/2000/svg" width="32" height="32" viewBox="0 0 32 32">
  <path fill="#999" fill-rule="evenodd" d="M30.5,14.5 C31.3,14.5 32,15.2 32,16 C32,16.8 31.3,17.5 30.5,17.5 L1.5,17.5 C0.7,17.5 0,16.8 0,16 C0,15.2 0.7,14.5 1.5,14.5 L30.5,14.5 Z M1.5,10 C0.7,10 0,9.3 0,8.5 L0,4.9 C0,2.2 2.2,0 4.9,0 L8.5,0 C9.3,0 10,0.7 10,1.5 C10,2.3 9.3,3 8.5,3 L4.9,3 C3.9,3 3,3.8 3,4.9 L3,8.5 C3,9.3 2.3,10 1.5,10 Z M8.5,29 C9.3,29 10,29.7 10,30.5 C10,31.3 9.3,32 8.5,32 L4.9,32 C2.2,32 0,29.8 0,27.1 L0,23.5 C0,22.7 0.7,22 1.5,22 C2.3,22 3,22.7 3,23.5 L3,27.1 C3,28.1 3.8,29 4.9,29 L8.5,29 Z M30.5,22 C31.3,22 32,22.7 32,23.5 L32,27.1 C32,29.8 29.8,32 27.1,32 L23.5,32 C22.7,32 22,31.3 22,30.5 C22,29.7 22.7,29 23.5,29 L27.1,29 C28.1,29 29,28.2 29,27.1 L29,23.5 C29,22.7 29.7,22 30.5,22 Z M27.1,0 C29.8,0 32,2.2 32,4.9 L32,8.5 C32,9.3 31.3,10 30.5,10 C29.7,10 29,9.3 29,8.5 L29,4.9 C29,3.9 28.2,3 27.1,3 L23.5,3 C22.7,3 22,2.3 22,1.5 C22,0.7 22.7,0 23.5,0 L27.1,0 Z"/>
</svg>
