<svg xmlns="http://www.w3.org/2000/svg" xmlns:xlink="http://www.w3.org/1999/xlink" width="48" height="48" viewBox="0 0 48 48">
  <defs>
    <path id="扫码2px-a" d="M38.8105493,23.0062112 C39.4049651,23.0062112 39.8012422,23.4037267 39.8012422,24 C39.8012422,24.5962733 39.4049651,24.9937888 38.8105493,24.9937888 L9.0897622,24.9937888 C8.49534645,24.9937888 8.09906929,24.5962733 8.09906929,24 C8.09906929,23.4037267 8.49534645,23.0062112 9.0897622,23.0062112 L38.8105493,23.0062112 Z M9.0897622,18.4347826 C8.49534645,18.4347826 8.09906929,18.0372671 8.09906929,17.5403727 L8.09906929,10.9813665 C8.09906929,9.39130435 9.38697007,8.09937888 10.9720787,8 L17.5106519,8 C18.1050676,8 18.5013448,8.39751553 18.5013448,8.99378882 C18.5013448,9.59006211 18.1050676,9.98757764 17.5106519,9.98757764 L10.9720787,9.98757764 C10.4767323,9.98757764 10.0804551,10.3850932 10.0804551,10.8819876 L10.0804551,17.4409938 C10.0804551,18.0372671 9.68417794,18.4347826 9.0897622,18.4347826 Z M17.4115826,37.9130435 C18.0059983,37.9130435 18.4022755,38.310559 18.4022755,38.9068323 C18.4022755,39.5031056 18.0059983,39.9006211 17.4115826,39.9006211 L10.8730094,39.9006211 C9.28790078,39.9006211 8,38.6086957 8,37.0186335 L8,30.4596273 C8,29.863354 8.39627716,29.4658385 8.9906929,29.4658385 C9.58510865,29.4658385 9.98138581,29.863354 9.98138581,30.4596273 L9.98138581,37.0186335 C9.98138581,37.515528 10.377663,37.9130435 10.8730094,37.9130435 L17.4115826,37.9130435 Z M38.8105493,29.5652174 C39.4049651,29.5652174 39.8012422,29.9627329 39.8012422,30.5590062 L39.8012422,37.1180124 C39.8012422,38.7080745 38.5133415,40 36.9282328,40 L30.3896596,40 C29.7952439,40 29.3989667,39.6024845 29.3989667,39.0062112 C29.3989667,38.4099379 29.7952439,38.0124224 30.3896596,38.0124224 L36.9282328,38.0124224 C37.4235793,38.0124224 37.8198564,37.6149068 37.8198564,37.1180124 L37.8198564,30.5590062 C37.8198564,29.9627329 38.2161336,29.5652174 38.8105493,29.5652174 Z M36.9282328,8.09937888 C38.5133415,8.09937888 39.8012422,9.39130435 39.8012422,10.9813665 L39.8012422,17.5403727 C39.8012422,18.136646 39.4049651,18.5341615 38.8105493,18.5341615 C38.2161336,18.5341615 37.8198564,18.136646 37.8198564,17.5403727 L37.8198564,10.9813665 C37.8198564,10.484472 37.4235793,10.0869565 36.9282328,10.0869565 L30.3896596,10.0869565 C29.7952439,10.0869565 29.3989667,9.68944099 29.3989667,9.0931677 C29.3989667,8.49689441 29.7952439,8.09937888 30.3896596,8.09937888 L36.9282328,8.09937888 Z"/>
  </defs>
  <use fill="#999" fill-rule="evenodd" xlink:href="#扫码2px-a"/>
</svg>
