<svg xmlns="http://www.w3.org/2000/svg" xmlns:xlink="http://www.w3.org/1999/xlink" width="48" height="48" viewBox="0 0 48 48">
  <defs>
    <rect id="icon-shop-a" width="48" height="48" x="0" y="0"/>
  </defs>
  <g fill="none" fill-rule="evenodd">
    <mask id="icon-shop-b" fill="#fff">
      <use xlink:href="#icon-shop-a"/>
    </mask>
    <path fill="#999" d="M34.693,21.235 C37.068,21.235 39,19.459 39,17.275 C39,16.837 38.922,16.402 38.766,15.986 C37.815,12.621 36.913,10.66 36.467,10.23 C36.316,10.084 36.082,10 35.826,10 L12.216,10 C11.899,10 11.608,10.136 11.439,10.366 C10.113,12.163 9.181,16.099 9.172,16.138 C9.167,16.16 9.161,16.18 9.155,16.201 C9.051,16.541 9,16.902 9,17.275 C9,19.459 10.847,21.235 13.119,21.235 C15.516,21.235 17,19.037 17,17 C17,16.447 17.447,16 18,16 C18.552,16 19,16.447 19,17 C19,19.082 20.903,21.235 24.089,21.235 C27.71,21.235 29,19.047 29,17 C29,16.447 29.447,16 30,16 C30.552,16 31,16.447 31,17 C31,19.104 32.268,21.235 34.693,21.235 Z M40.667,15.366 C40.879,15.929 41,16.597 41,17.275 C41,20.561 38.171,23.235 34.693,23.235 C32.664,23.235 30.946,22.187 29.944,20.533 C28.871,22.106 26.955,23.235 24.089,23.235 C21.525,23.235 19.32,22.096 18.077,20.349 C17.031,22.084 15.2,23.235 13.119,23.235 C9.745,23.235 7,20.561 7,17.275 C7,16.716 7.078,16.171 7.231,15.652 C7.334,15.225 8.312,11.235 9.83,9.178 C10.374,8.44 11.266,8 12.216,8 L35.826,8 C36.607,8 37.329,8.281 37.857,8.792 C39.001,9.894 40.108,13.384 40.667,15.366 Z M26.9996,37.9996 L26.9996,30.8176 C26.9996,30.3826 26.7196,29.9996 26.3996,29.9996 L21.5996,29.9996 C21.2796,29.9996 20.9996,30.3826 20.9996,30.8176 L20.9996,37.9996 L26.9996,37.9996 Z M36.9996,25.9996 C37.5526,25.9996 37.9996,26.4466 37.9996,26.9996 L37.9996,36.9996 C37.9996,38.6536 36.7986,39.9996 35.3216,39.9996 L12.6776,39.9996 C11.2006,39.9996 9.9996,38.6536 9.9996,36.9996 L9.9996,26.9996 C9.9996,26.4466 10.4466,25.9996 10.9996,25.9996 C11.5526,25.9996 11.9996,26.4466 11.9996,26.9996 L11.9996,36.9996 C11.9996,37.5886 12.3566,37.9996 12.6776,37.9996 L18.9996,37.9996 L18.9996,30.8176 C18.9996,29.2646 20.1656,27.9996 21.5996,27.9996 L26.3996,27.9996 C27.8336,27.9996 28.9996,29.2646 28.9996,30.8176 L28.9996,37.9996 L35.3216,37.9996 C35.6426,37.9996 35.9996,37.5886 35.9996,36.9996 L35.9996,26.9996 C35.9996,26.4466 36.4466,25.9996 36.9996,25.9996 Z" mask="url(#icon-shop-b)"/>
  </g>
</svg>
