<svg xmlns="http://www.w3.org/2000/svg" xmlns:xlink="http://www.w3.org/1999/xlink" width="48" height="48" viewBox="0 0 48 48">
  <defs>
    <path id="星级未点亮-a" d="M24.0501413,35.1 C24.4512721,35.1 24.7521201,35.2 25.1532508,35.3 L33.4767131,38.9 C33.7775611,39 33.8778438,39 33.9781265,38.9 C34.0784091,38.9 34.1786918,38.8 34.1786918,38.4 L33.2761477,29.5 C33.175865,28.8 33.3764304,28.1 33.9781265,27.5 L40.0953698,20.9 C40.1956525,20.8 40.2959352,20.6 40.1956525,20.5 C40.0953698,20.3 39.9950872,20.2 39.7945218,20.1 L30.9696461,18.3 C30.067102,18.1 29.465406,17.6 29.0642752,17 L24.4512721,9.2 C24.2507067,8.9 23.7492933,8.9 23.5487279,9.2 L19.0360074,17 C18.8354421,17.4 18.3340287,18 17.3312019,18.2 L8.40604356,20.1 C8.30576088,20.1 8.10519553,20.2 8.10519553,20.4 C8.00491285,20.6 8.10519553,20.8 8.2054782,20.9 L14.3227216,27.6 C14.824135,28.1 15.124983,28.8 14.9244176,29.6 L14.0218735,38.5 C14.0218735,38.7 14.0218735,38.8 14.2224389,38.9 C14.4230042,39.1 14.6235696,39 14.824135,39 L23.1475972,35.4 C23.3481626,35.2 23.6490106,35.1 24.0501413,35.1 L24.0501413,35.1 Z M14.4230042,42 C13.7210255,42 12.9187641,41.8 12.317068,41.3 C11.3142412,40.6 10.7125452,39.4 10.9131105,38.1 L11.8156546,29.5 L5.89897661,23 C4.99643251,22.1 4.79586715,20.8 5.19699786,19.5 C5.4978459,18.4 6.50067268,17.5 7.70406481,17.2 L16.5289405,15.4 L21.041661,7.7 C21.6433571,6.7 22.7464665,6 24.0501413,6 C25.3538162,6 26.4569256,6.6 27.0586217,7.7 L31.4710595,15.3 L40.1956525,17.1 C41.4993273,17.4 42.4018714,18.2 42.8030021,19.4 C43.2041328,20.6 43.0035675,21.9 42.1010234,22.8 L36.1843454,29.3 L37.0868895,38 C37.1871722,39.3 36.6857588,40.5 35.682932,41.2 C34.6801052,41.9 33.3764304,42.1 32.1730383,41.5 L24.0501413,38.1 L15.9272444,41.7 C15.425831,41.9 14.9244176,42 14.4230042,42 L14.4230042,42 Z"/>
  </defs>
  <use fill="#DDD" fill-rule="evenodd" xlink:href="#星级未点亮-a"/>
</svg>
