<svg xmlns="http://www.w3.org/2000/svg" width="36" height="30" viewBox="0 0 36 30">
  <path fill="#999" d="M9,12.5 C7.6192881,12.5 6.5,11.3807119 6.5,10 C6.5,8.6192881 7.6192881,7.5 9,7.5 C10.3807119,7.5 11.5,8.6192881 11.5,10 C11.5,11.3807119 10.3807119,12.5 9,12.5 Z M30.5,0 C33.5,0 36,2.5 36,5.5 L36,24.5 C36,27.5 33.5,30 30.5,30 L5.5,30 C2.5,30 0,27.5 0,24.5 L0,5.5 C0,2.5 2.5,0 5.5,0 L30.5,0 Z M33,24.5 L33,18.6 C29,16.9 24.7,16.5 20.3,17.7 C19.7,17.8 19.1,18 18.5,18.2 C16.3,18.9 13.6,19.7 10.3,19.7 C9.7,19.7 9,19.7 8.3,19.6 C6.5,19.3 4.7,18.9 3,18.2 L3,24.5 C3,25.9 4.1,27 5.5,27 L30.5,27 C31.9,27 33,25.9 33,24.5 Z M33,15.3 L33,5.5 C33,4.1 31.9,3 30.5,3 L5.5,3 C4.1,3 3,4.1 3,5.5 L3,15 C4.7,15.9 6.6,16.5 8.6,16.7 C12.3,17 15.1,16.2 17.6,15.4 C18.2,15.2 18.9,15 19.5,14.8 C24.2,13.5 28.7,13.7 33,15.3 Z"/>
</svg>
