<svg xmlns="http://www.w3.org/2000/svg" xmlns:xlink="http://www.w3.org/1999/xlink" width="48" height="48" viewBox="0 0 48 48">
  <defs>
    <path id="提示2px-a" d="M24,7 C33.4,7 41,14.6 41,24 C41,33.4 33.4,41 24,41 C14.6,41 7,33.4 7,24 C7,14.6 14.6,7 24,7 Z M24,39 C32.3,39 39,32.3 39,24 C39,15.7 32.3,9 24,9 C15.7,9 9,15.7 9,24 C9,32.3 15.7,39 24,39 Z M24,21 C24.6,21 25,21.4 25,22 L25,32 C25,32.6 24.6,33 24,33 C23.4,33 23,32.6 23,32 L23,22 C23,21.4 23.4,21 24,21 Z M24,19 C23.1715729,19 22.5,18.3284271 22.5,17.5 C22.5,16.6715729 23.1715729,16 24,16 C24.8284271,16 25.5,16.6715729 25.5,17.5 C25.5,18.3284271 24.8284271,19 24,19 Z"/>
  </defs>
  <use fill="#999" fill-rule="evenodd" xlink:href="#提示2px-a"/>
</svg>
