<svg xmlns="http://www.w3.org/2000/svg" width="38" height="38" viewBox="0 0 38 38">
  <path fill="#999" d="M34.2512341,7.5132879 L34.2512341,35.1700621 C34.2512341,36.7451321 32.9800203,38 31.4355605,38 L6.7867506,38 C5.2421762,38 3.97234884,36.7449758 3.97234884,35.1700621 L3.97234884,7.5132879 L1.36963378,7.5132879 C0.61320593,7.5132879 0,6.8855856 0,6.1112755 C0,5.3369654 0.61320593,4.70926308 1.36963378,4.70926308 L10.0949347,4.70926308 L10.0949347,2.8311949 C10.0949347,1.25643678 11.3646466,0 12.9093364,0 L25.3132291,0 C26.8571401,0 28.1250872,1.25698423 28.1250872,2.8311949 L28.1250872,4.70926308 L36.6303662,4.70926308 C37.3867941,4.70926308 38,5.3369654 38,6.1112755 C38,6.8855856 37.3867941,7.5132879 36.6303662,7.5132879 L34.2512341,7.5132879 Z M31.5119665,7.5132879 L6.7116164,7.5132879 L6.7116164,35.1700621 C6.7116164,35.1739111 6.7339407,35.1959751 6.7867506,35.1959751 L31.4355605,35.1959751 C31.4889709,35.1959751 31.5119665,35.1732752 31.5119665,35.1700621 L31.5119665,7.5132879 Z M25.3858197,4.70926308 L25.3858197,2.8311949 C25.3858197,2.82607069 25.3635816,2.80402487 25.3132291,2.80402487 L12.9093364,2.80402487 C12.8571272,2.80402487 12.8342022,2.82671017 12.8342022,2.8311949 L12.8342022,4.70926308 L25.3858197,4.70926308 Z M11.4337615,11.7923073 C11.4337615,11.0179972 12.0469674,10.3902948 12.8033953,10.3902948 C13.5598231,10.3902948 14.173029,11.0179972 14.173029,11.7923073 L14.173029,30.8304758 C14.173029,31.6047859 13.5598231,32.2324883 12.8033953,32.2324883 C12.0469674,32.2324883 11.4337615,31.6047859 11.4337615,30.8304758 L11.4337615,11.7923073 Z M17.7406315,11.7923073 C17.7406315,11.0179972 18.3538375,10.3902948 19.1102653,10.3902948 C19.8666932,10.3902948 20.4798991,11.0179972 20.4798991,11.7923073 L20.4798991,30.8304758 C20.4798991,31.6047859 19.8666932,32.2324883 19.1102653,32.2324883 C18.3538375,32.2324883 17.7406315,31.6047859 17.7406315,30.8304758 L17.7406315,11.7923073 Z M24.0475016,11.7923073 C24.0475016,11.0179972 24.6607075,10.3902948 25.4171354,10.3902948 C26.1735632,10.3902948 26.7867691,11.0179972 26.7867691,11.7923073 L26.7867691,30.8304758 C26.7867691,31.6047859 26.1735632,32.2324883 25.4171354,32.2324883 C24.6607075,32.2324883 24.0475016,31.6047859 24.0475016,30.8304758 L24.0475016,11.7923073 Z"/>
</svg>
