<svg xmlns="http://www.w3.org/2000/svg" xmlns:xlink="http://www.w3.org/1999/xlink" width="48" height="48" viewBox="0 0 48 48">
  <defs>
    <rect id="通讯录-a" width="48" height="48" x="0" y="0"/>
  </defs>
  <g fill="none" fill-rule="evenodd">
    <mask id="通讯录-b" fill="#fff">
      <use xlink:href="#通讯录-a"/>
    </mask>
    <path fill="#FF2741" d="M8.5,19 C7.7,19 7,18.3 7,17.5 C7,16.7 7.7,16 8.5,16 L11.5,16 C12.3,16 13,16.7 13,17.5 C13,18.3 12.3,19 11.5,19 L8.5,19 Z M8.5,25.1 C7.7,25.1 7,24.4 7,23.6 C7,22.8 7.7,22.1 8.5,22.1 L11.5,22.1 C12.3,22.1 13,22.8 13,23.6 C13,24.4 12.3,25.1 11.5,25.1 L8.5,25.1 Z M13,29.5 C13,30.3 12.3,31 11.5,31 L8.5,31 C7.7,31 7,30.3 7,29.5 C7,28.7 7.7,28 8.5,28 L11.5,28 C12.3,28 13,28.7 13,29.5 Z M34.5,7 C37.5,7 40,9.5 40,12.5 L40,35.5 C40,38.5 37.5,41 34.5,41 L14.5,41 C11.5,41 9,38.5 9,35.5 L9,34.5 C9,33.7 9.7,33 10.5,33 C11.3,33 12,33.7 12,34.5 L12,35.5 C12,36.9 13.1,38 14.5,38 L34.5,38 C35.9,38 37,36.9 37,35.5 L37,12.5 C37,11.1 35.9,10 34.5,10 L14.5,10 C13.1,10 12,11.1 12,12.5 C12,13.3 11.3,14 10.5,14 C9.7,14 9,13.3 9,12.5 C9,9.5 11.5,7 14.5,7 L34.5,7 Z M17,29.5 C17,26.6 18.6,24.2 21,23 C20.4,22.1 20,21.1 20,20 C20,17.2 22.2,15 25,15 C27.8,15 30,17.2 30,20 C30,21.2 29.6,22.2 29,23 C31.4,24.2 33,26.6 33,29.5 C33,30.3 32.3,31 31.5,31 C30.7,31 30,30.3 30,29.5 C30,26.9 27.9,25 25,25 C22.1,25 20,26.9 20,29.5 C20,30.3 19.3,31 18.5,31 C17.7,31 17,30.3 17,29.5 Z M25,18 C23.9,18 23,18.9 23,20 C23,21.1 23.9,22 25,22 C26.1,22 27,21.1 27,20 C27,18.9 26.1,18 25,18 Z" mask="url(#通讯录-b)"/>
  </g>
</svg>
