<svg xmlns="http://www.w3.org/2000/svg" width="34" height="34" viewBox="0 0 34 34">
  <path fill="#4D97FF" d="M9.9,24.7 C9.4,24.7 6.1,24.5 6.2,21.6 C6.2,20.7 7.2,18.3 11,18.7 C13,18.9 15.3,20.1 15.7,20.3 C16.1,20.5 16.6,20.7 17.1,21 C17,21.1 17,21.1 16.9,21.2 C16.8,21.3 15.1,22.9 14.1,23.5 C12.9,24.1 11.6,24.7 9.9,24.7 L9.9,24.7 Z M32.7,23.6 C29.1,23.2 21.1,20.5 21.3,20.4 C22,19.5 22.6,18.6 23,17.7 C23.4,16.8 23.8,16 24,15.4 C24.3,14.7 24.4,13.9 24.6,13.2 L24.6,13.2 L24.6,13.2 C24.6,13.2 24.6,13.2 24.6,13.2 L19,13.2 L19,10.6 L26,10.6 L26,9.5 L19,9.5 L19,6.8 L17.2,6.8 C16.9,6.8 16.7,6.8 16.4,6.9 C16.2,6.9 16,7 15.9,7.1 C15.7,7.2 15.7,7.3 15.7,7.4 L15.7,9.5 L8.9,9.5 L8.9,10.6 L15.7,10.6 L15.7,13.2 L10.8,13.2 L10.8,14.3 L21,14.3 C21,14.4 20.9,14.7 20.8,15 C20.7,15.3 20.5,15.7 20.3,16.2 C20.1,16.7 19.8,17.2 19.5,17.7 C19.2,18.3 18.8,18.9 18.3,19.4 C18.1,19.3 17.9,19.2 17.7,19.2 C17.5,19.1 17.3,19 17.1,19 C16.6,18.8 16.1,18.6 15.6,18.4 C15.1,18.2 14.5,18 13.9,17.8 C13.3,17.6 12.7,17.4 12,17.3 C11.3,17.2 10.7,17.1 10,17 C9.3,17 8.6,17.1 7.9,17.3 C7.2,17.5 6.6,17.8 6,18.2 C5.4,18.6 4.9,19.1 4.6,19.7 C4.2,20.3 4,20.9 4,21.6 C4,22.4 4.2,23.1 4.5,23.7 C4.8,24.3 5.3,24.8 5.9,25.2 C6.5,25.6 7.1,25.9 7.9,26.1 C8.7,26.3 9.5,26.4 10.4,26.4 L10.8,26.4 C10.8,26.4 10.9,26.4 10.9,26.4 C11.2,26.4 11.7,26.3 12.2,26.3 C12.7,26.2 13.3,26.1 14,25.9 C14.8,25.7 15.5,25.3 16.2,24.9 C17.1,24.4 19.3,22.6 19.3,22.6 C24.4,25.7 30.8,27.1 30.8,27.1 C30.5,27.5 30.5,27.5 30.2,27.9 C27,31.6 22.3,34 17,34 C7.6,34 0,26.4 0,17 C0,7.6 7.6,0 17,0 C26.4,0 34,7.6 34,17 C34,19.4 33.6,21.4 32.7,23.6 L32.7,23.6 Z"/>
</svg>
