<svg xmlns="http://www.w3.org/2000/svg" xmlns:xlink="http://www.w3.org/1999/xlink" width="48" height="48" viewBox="0 0 48 48">
  <defs>
    <rect id="关闭-a" width="48" height="48" x="0" y="0"/>
  </defs>
  <g fill="none" fill-rule="evenodd">
    <mask id="关闭-b" fill="#fff">
      <use xlink:href="#关闭-a"/>
    </mask>
    <path fill="#999" d="M31.8186782,30.3734984 C32.9197318,31.5113145 31.2130077,33.1628949 30.1119541,32.0250788 L23.9986903,25.7077024 L17.8854264,32.0250788 C16.7843728,33.1628949 15.0776487,31.5113145 16.1787023,30.3734984 L22.346219,24.0000576 L16.1783879,17.626292 C15.0773344,16.4884759 16.7840585,14.8368956 17.8851121,15.9747117 L23.9986903,22.2924129 L30.1122684,15.9747117 C31.213322,14.8368956 32.9200462,16.4884759 31.8189926,17.626292 L25.6511615,24.0000576 L31.8186782,30.3734984 Z M23.1453282,23.1742674 L24.8520523,23.1742674 L23.9986903,22.2924129 L23.1453282,23.1742674 Z M23.1453282,23.1742674 L24.8520523,23.1742674 L23.9986903,22.2924129 L23.1453282,23.1742674 Z M43,24 C43,34.492524 34.491487,43 24,43 C13.5064229,43 5,34.4935771 5,24 C5,13.5078163 13.507125,5 24,5 C34.4907848,5 43,13.5088695 43,24 Z M40.625,24 C40.625,14.8205674 33.1791301,7.375 24,7.375 C14.8188445,7.375 7.375,14.8194494 7.375,24 C7.375,33.1819008 14.8180992,40.625 24,40.625 C33.1798755,40.625 40.625,33.1807829 40.625,24 Z" mask="url(#关闭-b)"/>
  </g>
</svg>
