<svg xmlns="http://www.w3.org/2000/svg" width="32" height="32" viewBox="0 0 32 32">
  <path fill="#333" d="M31,19.0002212 C31.553,19.0002212 32,19.4482212 32,20.0002212 L32,29.4722212 C32,30.8662212 30.868,32.0002212 29.478,32.0002212 L2.522,32.0002212 C1.132,32.0002212 0,30.8662212 0,29.4722212 L0,2.5292212 C0,1.13422123 1.132,0.00022123 2.522,0.00022123 L13,0.00022123 C13.553,0.00022123 14,0.44822123 14,1.00022123 C14,1.55222123 13.553,2.00022123 13,2.00022123 L2.522,2.00022123 C2.239,2.00022123 2,2.2422212 2,2.5292212 L2,29.4722212 C2,29.7582212 2.239,30.0002212 2.522,30.0002212 L29.478,30.0002212 C29.761,30.0002212 30,29.7582212 30,29.4722212 L30,20.0002212 C30,19.4482212 30.447,19.0002212 31,19.0002212 Z M12.0127,18.8488212 C13.2027,11.0558212 19.8557,5.0408212 27.8957,4.1328212 L24.4457,1.83182123 C23.9857,1.52682123 23.8617,0.90582123 24.1677,0.44582123 C24.4737,-0.01417877 25.0937,-0.13817877 25.5547,0.16782123 L31.5537,4.1678212 C32.0137,4.4738212 32.1377,5.0958212 31.8307,5.5548212 L27.8317,11.5548212 C27.5287,11.9938212 26.8597,12.1678212 26.3667,11.7868212 C25.9287,11.4488212 25.8617,10.9048212 26.1677,10.4458212 L29.1037,6.0408212 C21.6207,6.4608212 15.0727,12.0588212 13.9897,19.1508212 C13.9137,19.6458212 13.5527,19.9998212 13.0007,19.9998212 C12.2597,19.9998212 11.9287,19.3948212 12.0127,18.8488212 Z"/>
</svg>
