<svg xmlns="http://www.w3.org/2000/svg" xmlns:xlink="http://www.w3.org/1999/xlink" width="48" height="48" viewBox="0 0 48 48">
  <defs>
    <rect id="公告-a" width="48" height="48" x="0" y="0"/>
  </defs>
  <g fill="none" fill-rule="evenodd">
    <mask id="公告-b" fill="#fff">
      <use xlink:href="#公告-a"/>
    </mask>
    <path fill="#999" d="M35.7106287,16.7529667 C35.2939641,16.3904628 35.2500581,15.758822 35.6125619,15.3421574 C35.9750658,14.9254927 36.6067066,14.8815867 37.0233713,15.2440906 C39.5359896,17.4301023 41,20.525314 41,23.8465286 C41,27.3465444 39.3728695,30.5914357 36.6228578,32.7808637 C36.1907861,33.1248585 35.5616598,33.0534582 35.217665,32.6213864 C34.8736701,32.1893147 34.9450705,31.5601885 35.3771422,31.2161936 C37.6592248,29.3993083 39,26.7254788 39,23.8465286 C39,21.1148525 37.7943224,18.5658081 35.7106287,16.7529667 Z M14.449,31.9985286 L11,31.9985286 C9.44771525,31.9985286 8,30.5508134 8,28.9985286 L8,18.9985286 C8,17.4358237 9.35589406,15.9985286 11,15.9985286 L14.449,15.9985286 C14.62825,15.9985286 14.8060921,15.9494865 14.960667,15.8577418 L27.3332293,8.47676389 C29.2610677,7.27574273 32,8.4653132 32,10.6875286 L32,37.3095286 C32,39.531744 29.2610677,40.7213145 27.349667,39.5303155 L14.9625894,32.1404595 C14.8060921,32.0475707 14.62825,31.9985286 14.449,31.9985286 Z M14.449,29.9985286 C14.9883711,29.9985286 15.5187113,30.1447763 15.985333,30.4217418 L28.3907707,37.8227639 C29.0720875,38.2472164 30,37.8442064 30,37.3095286 L30,10.6875286 C30,10.1528509 29.0720875,9.74984079 28.374333,10.1843155 L15.9834106,17.5764595 C15.5187113,17.852281 14.9883711,17.9985286 14.449,17.9985286 L11,17.9985286 C10.4873756,17.9985286 10,18.5151638 10,18.9985286 L10,28.9985286 C10,29.4462439 10.5522847,29.9985286 11,29.9985286 L14.449,29.9985286 Z" mask="url(#公告-b)"/>
  </g>
</svg>
