<svg xmlns="http://www.w3.org/2000/svg" xmlns:xlink="http://www.w3.org/1999/xlink" width="48" height="48" viewBox="0 0 48 48">
  <defs>
    <rect id="分享3px-a" width="48" height="48" x="0" y="0"/>
  </defs>
  <g fill="none" fill-rule="evenodd">
    <mask id="分享3px-b" fill="#fff">
      <use xlink:href="#分享3px-a"/>
    </mask>
    <path fill="#999" d="M38.5,26.4 C39.3,26.4 40,27.1 40,27.9 L40,34.2 C40,37.4 37.4,40 34.2,40 L13.8,40 C10.6,40 8,37.4 8,34.2 L8,13.8 C8,10.6 10.6,8 13.8,8 L21.5,8 C22.4,8 23,8.7 23,9.5 C23,10.3 22.3,11 21.5,11 L13.8,11 C12.3,11 11,12.3 11,13.8 L11,34.2 C11,35.7 12.3,37 13.8,37 L34.2,37 C35.7,37 37,35.7 37,34.2 L37,27.9 C37,27.1 37.7,26.4 38.5,26.4 Z M20.9,25.4 C21.9,18.5 27.7,13.1 34.7,12.3 L32.3,10.7 C31.6,10.2 31.4,9.3 31.9,8.6 C32.4,7.9 33.3,7.7 34,8.2 L37.9,10.8 C39.3,11.8 39.8,13.7 39,15.3 L37,19.2 C36.8,19.7 36.2,20 35.7,20 C35.5,20 35.2,19.9 35,19.8 C34.3,19.4 34,18.5 34.4,17.8 L35.7,15.3 C29.8,15.6 24.7,20.1 23.9,25.8 C23.8,26.6 23.1,27.1 22.4,27.1 C22.3,27.1 22.3,27.1 22.2,27.1 C21.3,27 20.8,26.2 20.9,25.4 Z" mask="url(#分享3px-b)"/>
  </g>
</svg>
