<svg xmlns="http://www.w3.org/2000/svg" width="33" height="33" viewBox="0 0 33 33">
  <path fill="#FF2741" d="M22.5546381,20.2012816 C21.9471793,20.0373989 21.0163252,21.0687677 21.0163252,21.0687677 C20.7169661,21.3659418 20.4481983,21.8685156 20.2100221,22.4016808 C19.827629,23.2516861 18.7612985,23.5685261 17.9855867,23.0462864 C14.8390377,20.9179956 11.7951886,17.8675911 9.6843786,14.718857 C9.1774346,13.9628112 9.4658683,12.9270722 10.2787268,12.5184578 C11.023847,12.1448051 11.7099695,11.7842631 11.7099695,11.7842631 L11.7034142,11.7667822 C12.2125433,11.5351613 12.4966068,10.9626641 12.3502049,10.4076479 C12.3502049,10.4076479 8.0979935,0 6.883076,0 C3.083181,0 0,3.083181 0,6.883076 C0,7.7549322 0.16825297,8.5809014 0.46761214,9.3456876 C3.6556781,20.4110516 12.3655006,29.1143187 23.4308646,32.3111251 C24.1978359,32.6082992 25.0303603,32.7765522 25.9022166,32.7765522 C29.7021116,32.7765522 32.8421053,29.8791049 32.8421053,26.0770249 C32.8421053,26.0770249 27.6065973,22.2312428 22.5546381,20.2012816"/>
</svg>
