<svg xmlns="http://www.w3.org/2000/svg" width="32" height="33" viewBox="0 0 32 33">
  <path fill="#999" d="M30.5,19.4 C31.3,19.4 32,20.1 32,20.9 L32,27.2 C32,30.4 29.4,33 26.2,33 L5.8,33 C2.6,33 0,30.4 0,27.2 L0,6.8 C0,3.6 2.6,1 5.8,1 L13.5,1 C14.4,1 15,1.7 15,2.5 C15,3.3 14.3,4 13.5,4 L5.8,4 C4.3,4 3,5.3 3,6.8 L3,27.2 C3,28.7 4.3,30 5.8,30 L26.2,30 C27.7,30 29,28.7 29,27.2 L29,20.9 C29,20.1 29.7,19.4 30.5,19.4 Z M12.9,18.4 C13.9,11.5 19.7,6.1 26.7,5.3 L24.3,3.7 C23.6,3.2 23.4,2.3 23.9,1.6 C24.4,0.9 25.3,0.7 26,1.2 L29.9,3.8 C31.3,4.8 31.8,6.7 31,8.3 L29,12.2 C28.8,12.7 28.2,13 27.7,13 C27.5,13 27.2,12.9 27,12.8 C26.3,12.4 26,11.5 26.4,10.8 L27.7,8.3 C21.8,8.6 16.7,13.1 15.9,18.8 C15.8,19.6 15.1,20.1 14.4,20.1 C14.3,20.1 14.3,20.1 14.2,20.1 C13.3,20 12.8,19.2 12.9,18.4 Z"/>
</svg>
