<?xml version="1.0" encoding="utf-8"?>
<!-- Generator: Adobe Illustrator 21.0.0, SVG Export Plug-In . SVG Version: 6.00 Build 0)  -->
<svg version="1.1" id="线形" xmlns="http://www.w3.org/2000/svg" xmlns:xlink="http://www.w3.org/1999/xlink" x="0px" y="0px"
	 viewBox="0 0 48 48" style="enable-background:new 0 0 48 48;" xml:space="preserve">
<style type="text/css">
	.st0{fill:none;}
	.st1{fill-rule:evenodd;clip-rule:evenodd;}
</style>
<g>
	<path d="M14.9,41c-0.7,0-1.4-0.2-2-0.7c-1-0.7-1.5-1.8-1.3-3l0.9-8.2L6.9,23c-0.8-0.9-1.1-2.1-0.7-3.3c0.3-1,1.2-1.9,2.4-2.2
		l8.3-1.7l4.2-7.2C21.7,7.6,22.8,7,24,7c1.2,0,2.3,0.6,2.9,1.6l4.2,7.2l8.3,1.7c1.2,0.3,2.1,1.1,2.5,2.2c0.4,1.1,0.2,2.3-0.7,3.3
		l0,0l-5.6,6.2l0.9,8.2c0.1,1.2-0.4,2.4-1.4,3c-1,0.7-2.2,0.8-3.3,0.3L24,37.3l-7.7,3.4C15.8,40.9,15.4,41,14.9,41z"/>
	<rect class="st0" width="48" height="48"/>
</g>
</svg>
