<?xml version="1.0" encoding="UTF-8"?>
<svg width="28px" height="24px" viewBox="0 0 28 24" version="1.1" xmlns="http://www.w3.org/2000/svg" xmlns:xlink="http://www.w3.org/1999/xlink">
    <!-- Generator: Sketch 53.2 (72643) - https://sketchapp.com -->
    <title>形状结合</title>
    <desc>Created with Sketch.</desc>
    <g id="03租地" stroke="none" stroke-width="1" fill="none" fill-rule="evenodd">
        <g id="03-01-01片区列表-全部农场" transform="translate(-693.000000, -121.000000)" fill="#999999">
            <g id="编组-8">
                <g id="编组" transform="translate(0.000000, 89.000000)">
                    <g id="编组-3" transform="translate(607.000000, 25.000000)">
                        <g id="线形-筛选" transform="translate(81.000000, 0.000000)">
                            <path d="M24.3697559,9.78183333 C24.4402143,9.67654167 24.3650059,9.53483333 24.2391309,9.53483333 L7.39563093,9.50079167 C7.27133926,9.5 7.19613093,9.63379167 7.25867259,9.739875 L12.5533393,18.5922917 C12.6269643,18.715 12.6657559,18.8559167 12.6657559,19 L12.6657559,26.2619583 C12.6657559,26.3276667 12.7069226,26.3870417 12.7678809,26.41 L17.9754643,28.3994583 C18.0783809,28.43825 18.1892143,28.3630417 18.1892143,28.2514167 L18.2153393,19.2169167 C18.2153393,19.059375 18.2620476,18.905 18.3499226,18.7735833 L24.3697559,9.78183333 Z M25.9332976,8.75266667 C26.2151309,9.2815 26.1834643,9.91958333 25.8501726,10.4175417 L19.7986726,19.4575833 L19.7986726,28.4817917 C19.7986726,29.034375 19.5239643,29.5410417 19.0640059,29.8355417 C18.8090893,29.9994167 18.5169643,30.0833333 18.2248393,30.0833333 C18.0055476,30.0833333 17.7846726,30.0358333 17.5772559,29.9408333 L11.5914643,27.6560833 C11.2850893,27.5397083 11.0824226,27.2452083 11.0824226,26.9166667 L11.0824226,19.2185 L5.77033926,10.3470833 C5.77033926,10.3462917 5.77033926,10.3462917 5.76875593,10.3455 C5.47188093,9.84595833 5.46554759,9.22133333 5.75292259,8.71466667 C6.03792259,8.215125 6.54696426,7.91666667 7.11538093,7.91666667 L24.5502559,7.91666667 C25.1273809,7.91666667 25.6577976,8.2365 25.9332976,8.75266667 Z M22.9580559,20.5830167 C22.9580559,20.145225 23.3119309,19.79135 23.7497226,19.79135 L31.6663893,19.79135 C32.1041809,19.79135 32.4580559,20.145225 32.4580559,20.5830167 C32.4580559,21.0208083 32.1041809,21.3746833 31.6663893,21.3746833 L23.7497226,21.3746833 C23.3119309,21.3746833 22.9580559,21.0208083 22.9580559,20.5830167 Z M31.6663893,23.35385 C32.1041809,23.35385 32.4580559,23.707725 32.4580559,24.1455167 C32.4580559,24.5833083 32.1041809,24.9371833 31.6663893,24.9371833 L23.7497226,24.9371833 C23.3119309,24.9371833 22.9580559,24.5833083 22.9580559,24.1455167 C22.9580559,23.707725 23.3119309,23.35385 23.7497226,23.35385 L31.6663893,23.35385 Z M31.6663893,26.91635 C32.1041809,26.91635 32.4580559,27.270225 32.4580559,27.7080167 C32.4580559,28.1458083 32.1041809,28.4996833 31.6663893,28.4996833 L23.7497226,28.4996833 C23.3119309,28.4996833 22.9580559,28.1458083 22.9580559,27.7080167 C22.9580559,27.270225 23.3119309,26.91635 23.7497226,26.91635 L31.6663893,26.91635 Z" id="形状结合"></path>
                        </g>
                    </g>
                </g>
            </g>
        </g>
    </g>
</svg>