<svg xmlns="http://www.w3.org/2000/svg" xmlns:xlink="http://www.w3.org/1999/xlink" width="48" height="48" viewBox="0 0 48 48">
  <defs>
    <rect id="三角警示-a" width="48" height="48" x="0" y="0"/>
  </defs>
  <g fill="none" fill-rule="evenodd">
    <mask id="三角警示-b" fill="#fff">
      <use xlink:href="#三角警示-a"/>
    </mask>
    <path fill="#FF2741" d="M41.6,33.7 L26.5,9.4 C26,8.5 25.1,8 24,8 C22.9,8 22,8.5 21.5,9.4 L6.4,33.7 C5.9,34.6 5.8,35.7 6.4,36.6 C6.9,37.5 7.9,38 8.9,38 L39,38 C40,38 41,37.5 41.5,36.6 C42.1,35.7 42.1,34.6 41.6,33.7 Z M25.5,31.5 C25.5,32.3 24.8,33 24,33 C23.2,33 22.5,32.3 22.5,31.5 L22.5,24.5 C22.5,23.7 23.2,23 24,23 C24.8,23 25.5,23.7 25.5,24.5 L25.5,31.5 Z M24,21 C22.9,21 22,20.1 22,19 C22,17.9 22.9,17 24,17 C25.1,17 26,17.9 26,19 C26,20.1 25.1,21 24,21 Z" mask="url(#三角警示-b)"/>
  </g>
</svg>
