<svg xmlns="http://www.w3.org/2000/svg" xmlns:xlink="http://www.w3.org/1999/xlink" width="48" height="48" viewBox="0 0 48 48">
  <defs>
    <rect id="相册3px-a" width="48" height="48" x="0" y="0"/>
  </defs>
  <g fill="none" fill-rule="evenodd">
    <mask id="相册3px-b" fill="#fff">
      <use xlink:href="#相册3px-a"/>
    </mask>
    <path fill="#999" d="M15,21.5 C13.6192881,21.5 12.5,20.3807119 12.5,19 C12.5,17.6192881 13.6192881,16.5 15,16.5 C16.3807119,16.5 17.5,17.6192881 17.5,19 C17.5,20.3807119 16.3807119,21.5 15,21.5 Z M36.5,9 C39.5,9 42,11.5 42,14.5 L42,33.5 C42,36.5 39.5,39 36.5,39 L11.5,39 C8.5,39 6,36.5 6,33.5 L6,14.5 C6,11.5 8.5,9 11.5,9 L36.5,9 Z M39,33.5 L39,27.6 C35,25.9 30.7,25.5 26.3,26.7 C25.7,26.8 25.1,27 24.5,27.2 C22.3,27.9 19.6,28.7 16.3,28.7 C15.7,28.7 15,28.7 14.3,28.6 C12.5,28.3 10.7,27.9 9,27.2 L9,33.5 C9,34.9 10.1,36 11.5,36 L36.5,36 C37.9,36 39,34.9 39,33.5 Z M39,24.3 L39,14.5 C39,13.1 37.9,12 36.5,12 L11.5,12 C10.1,12 9,13.1 9,14.5 L9,24 C10.7,24.9 12.6,25.5 14.6,25.7 C18.3,26 21.1,25.2 23.6,24.4 C24.2,24.2 24.9,24 25.5,23.8 C30.2,22.5 34.7,22.7 39,24.3 Z" mask="url(#相册3px-b)"/>
  </g>
</svg>
