<svg xmlns="http://www.w3.org/2000/svg" width="40" height="36" viewBox="0 0 40 36">
  <path fill="#999" d="M31.4180969,0.64629334 C36.9392785,2.44367998 40.3171986,7.4483495 39.9764254,13.3247134 C39.8617452,15.4103484 39.348476,17.1464635 38.341244,18.8668487 C37.1066229,20.9756221 35.7379852,22.4612896 30.9079982,27.2160822 L30.6911218,27.4290182 C27.8314454,30.2404574 26.0325866,32.0351226 23.6991262,34.4333409 C22.7229375,35.4319181 21.3798729,36 19.9968291,36 C18.6115387,36 17.2672679,35.4294267 16.2926422,34.4287002 L16.2931696,34.4292415 C13.9135817,31.9884867 12.0764452,30.1561306 9.1985033,27.3257199 C1.66619018,19.9123628 0.27391429,17.9901326 0.01673561,13.3042875 C-0.26995973,7.3907606 3.14749707,2.3891197 8.679456,0.62466657 C12.3011017,-0.52935627 16.512961,-0.10249853 19.9968158,2.16919096 C23.5124085,-0.12395095 27.7640726,-0.5420385 31.4180969,0.64629334 Z"/>
</svg>
