<svg xmlns="http://www.w3.org/2000/svg" xmlns:xlink="http://www.w3.org/1999/xlink" width="48" height="48" viewBox="0 0 48 48">
  <defs>
    <polygon id="icon-address-fill-a" points="0 0 48 0 48 48 0 48"/>
  </defs>
  <g fill="none" fill-rule="evenodd">
    <mask id="icon-address-fill-b" fill="#fff">
      <use xlink:href="#icon-address-fill-a"/>
    </mask>
    <path fill="#999" d="M24,22.105 C21.932,22.105 20.25,20.405 20.25,18.315 C20.25,16.226 21.932,14.526 24,14.526 C26.068,14.526 27.75,16.226 27.75,18.315 C27.75,20.405 26.068,22.105 24,22.105 M24,6 C15.729,6 9,11.983 9,19.336 C9,25.907 15.545,33.942 19.456,38.743 L19.695,39.034 C20.064,39.542 20.434,39.986 20.748,40.363 L21.031,40.703 C21.771,41.53 22.83,42 23.945,42 L24.075,42 C25.258,42 26.365,41.442 27.01,40.552 L27.244,40.269 C27.553,39.899 27.914,39.466 28.276,38.97 C32.041,34.453 39,26.087 39,19.336 C39,11.983 32.271,6 24,6" mask="url(#icon-address-fill-b)"/>
  </g>
</svg>
