<svg xmlns="http://www.w3.org/2000/svg" xmlns:xlink="http://www.w3.org/1999/xlink" width="48" height="48" viewBox="0 0 48 48">
  <defs>
    <rect id="查询-a" width="48" height="48" x="0" y="0"/>
  </defs>
  <g fill="none" fill-rule="evenodd">
    <mask id="查询-b" fill="#fff">
      <use xlink:href="#查询-a"/>
    </mask>
    <path fill="#999" d="M38.6,36.4 L32.9,30.7 C34.7,28.4 35.8,25.5 35.8,22.3 C35.8,15 29.8,9 22.4,9 C15,9 9,15 9,22.4 C9,29.8 15,35.8 22.4,35.8 C25.6,35.8 28.5,34.7 30.8,32.9 L36.5,38.6 C36.8,38.9 37.2,39 37.6,39 C38,39 38.4,38.9 38.7,38.6 C39.1,38 39.1,37 38.6,36.4 Z M12,22.4 C12,16.7 16.7,12 22.4,12 C28.1,12 32.8,16.7 32.8,22.4 C32.8,28.1 28.1,32.8 22.4,32.8 C16.7,32.8 12,28.2 12,22.4 Z" mask="url(#查询-b)"/>
  </g>
</svg>
