<svg xmlns="http://www.w3.org/2000/svg" xmlns:xlink="http://www.w3.org/1999/xlink" width="48" height="48" viewBox="0 0 48 48">
  <defs>
    <rect id="物流3px-a" width="48" height="48" x="0" y="0"/>
  </defs>
  <g fill="none" fill-rule="evenodd">
    <mask id="物流3px-b" fill="#fff">
      <use xlink:href="#物流3px-a"/>
    </mask>
    <path fill="#999" d="M42.9061224,25.2938776 L38.1061224,16.2816327 C37.8122449,15.7918367 37.322449,15.4979592 36.8326531,15.4979592 L29.3877551,15.4979592 L29.3877551,15.2040816 C29.3877551,12.2653061 26.9387755,9.81632653 24,9.81632653 L11.3632653,9.81632653 C8.4244898,9.81632653 5.9755102,12.2653061 5.9755102,15.2040816 L5.9755102,31.8571429 C5.9755102,34.6979592 8.13061224,37.0489796 10.9714286,37.244898 C11.4612245,39.9877551 13.8122449,42.1428571 16.7510204,42.1428571 C19.6897959,42.1428571 22.0408163,39.9877551 22.5306122,37.244898 L28.5061224,37.244898 C28.9959184,39.9877551 31.3469388,42.1428571 34.2857143,42.1428571 C37.322449,42.1428571 39.8693878,39.7918367 40.1632653,36.755102 C41.9265306,35.8734694 43.1020408,34.0122449 43.1020408,31.955102 L43.1020408,27.7428571 C43.1020408,27.644898 43.1020408,27.644898 43.1020408,27.5469388 C43.1020408,27.4489796 43.1020408,27.4489796 43.1020408,27.3510204 L43.1020408,25.7836735 C43.1020408,25.6857143 43.0040816,25.4897959 42.9061224,25.2938776 Z M39.3795918,24.9020408 L33.9918367,24.9020408 C33.6979592,24.9020408 33.5020408,24.7061224 33.5020408,24.5102041 L33.5020408,22.6489796 C33.5020408,22.4530612 33.6979592,22.2571429 33.9918367,22.2571429 L37.9102041,22.2571429 L39.3795918,24.9020408 Z M8.91428571,31.8571429 L8.91428571,15.2040816 C8.91428571,13.8326531 9.99183673,12.755102 11.3632653,12.755102 L24,12.755102 C25.3714286,12.755102 26.4489796,13.8326531 26.4489796,15.2040816 L26.4489796,34.3061224 L22.2367347,34.3061224 C21.4530612,32.0530612 19.2979592,30.3877551 16.6530612,30.3877551 C14.1061224,30.3877551 11.9510204,32.0530612 11.1673469,34.3061224 C9.89387755,34.2081633 8.91428571,33.1306122 8.91428571,31.8571429 Z M16.7510204,39.2040816 C15.0857143,39.2040816 13.8122449,37.9306122 13.8122449,36.2653061 C13.8122449,34.6 15.0857143,33.3265306 16.7510204,33.3265306 C18.4163265,33.3265306 19.6897959,34.6 19.6897959,36.2653061 C19.6897959,37.9306122 18.3183673,39.2040816 16.7510204,39.2040816 Z M34.2857143,39.2040816 C32.6204082,39.2040816 31.3469388,37.9306122 31.3469388,36.2653061 C31.3469388,34.6 32.6204082,33.3265306 34.2857143,33.3265306 C35.9510204,33.3265306 37.2244898,34.6 37.2244898,36.2653061 C37.2244898,37.9306122 35.9510204,39.2040816 34.2857143,39.2040816 Z M39.5755102,33.6204082 C38.5959184,31.6612245 36.6367347,30.3877551 34.2857143,30.3877551 C32.2285714,30.3877551 30.4653061,31.4653061 29.3877551,33.0326531 L29.3877551,18.4367347 L35.9510204,18.4367347 L36.4408163,19.2204082 L34.0897959,19.2204082 C32.2285714,19.2204082 30.6612245,20.6897959 30.6612245,22.5510204 L30.6612245,24.4122449 C30.6612245,26.2734694 32.2285714,27.7428571 34.0897959,27.7428571 L40.1632653,27.7428571 L40.1632653,31.955102 C40.1632653,32.6408163 39.9673469,33.2285714 39.5755102,33.6204082 Z" mask="url(#物流3px-b)"/>
  </g>
</svg>
