<svg xmlns="http://www.w3.org/2000/svg" width="38" height="38" viewBox="0 0 38 38">
  <path fill="#DDD" d="M28.5187366,26.3033889 C29.3304814,27.1415 29.3083141,28.4778333 28.4701797,29.2885 C28.0595572,29.6853889 27.5307092,29.8827778 27.0018612,29.8827778 C26.4497903,29.8827778 25.898775,29.6674444 25.4849857,29.2388889 L18.8928581,22.4273889 L12.3017862,29.2388889 C11.8879969,29.6674444 11.335926,29.8827778 10.7849107,29.8827778 C10.2560627,29.8827778 9.7261591,29.6853889 9.3165921,29.2885 C8.4784577,28.4778333 8.4562905,27.1415 9.2680352,26.3033889 L15.956221,19.3916111 L9.2680352,12.4808889 C8.457346,11.6427778 8.4795133,10.3075 9.3176477,9.4957778 C10.1547265,8.6851111 11.4921526,8.7072778 12.3017862,9.5453889 L18.8928581,16.3568889 L25.4849857,9.5453889 C26.2956749,8.7072778 27.6320453,8.6851111 28.4701797,9.4957778 C29.3083141,10.3075 29.3304814,11.6427778 28.5187366,12.4808889 L21.8305508,19.3916111 L28.5187366,26.3033889 Z M18.9994722,0 C8.5069585,0 0,8.5067222 0,19 C0,29.4922222 8.5069585,38 18.9994722,38 C29.4930415,38 38,29.4922222 38,19 C38,8.5067222 29.4930415,0 18.9994722,0 L18.9994722,0 Z"/>
</svg>
