<svg xmlns="http://www.w3.org/2000/svg" xmlns:xlink="http://www.w3.org/1999/xlink" width="48" height="48" viewBox="0 0 48 48">
  <defs>
    <rect id="失败提示-a" width="48" height="48" x="0" y="0"/>
  </defs>
  <g fill="none" fill-rule="evenodd">
    <mask id="失败提示-b" fill="#fff">
      <use xlink:href="#失败提示-a"/>
    </mask>
    <path fill="#999" d="M30.707,17.293 C31.098,17.684 31.098,18.316 30.707,18.707 L25.414,24 L30.707,29.293 C31.098,29.684 31.098,30.316 30.707,30.707 C30.512,30.902 30.256,31 30,31 C29.744,31 29.488,30.902 29.293,30.707 L24,25.414 L18.707,30.707 C18.512,30.902 18.256,31 18,31 C17.744,31 17.488,30.902 17.293,30.707 C16.902,30.316 16.902,29.684 17.293,29.293 L22.586,24 L17.293,18.707 C16.902,18.316 16.902,17.684 17.293,17.293 C17.684,16.902 18.316,16.902 18.707,17.293 L24,22.586 L29.293,17.293 C29.684,16.902 30.316,16.902 30.707,17.293 Z M24,39 C32.271,39 39,32.271 39,24 C39,15.729 32.271,9 24,9 C15.729,9 9,15.729 9,24 C9,32.271 15.729,39 24,39 Z M24,7 C33.374,7 41,14.626 41,24 C41,33.374 33.374,41 24,41 C14.626,41 7,33.374 7,24 C7,14.626 14.626,7 24,7 Z" mask="url(#失败提示-b)"/>
  </g>
</svg>
