<svg xmlns="http://www.w3.org/2000/svg" xmlns:xlink="http://www.w3.org/1999/xlink" width="48" height="48" viewBox="0 0 48 48">
  <defs>
    <rect id="icon-search-a" width="48" height="48" x="0" y="0"/>
  </defs>
  <g fill="none" fill-rule="evenodd">
    <mask id="icon-search-b" fill="#fff">
      <use xlink:href="#icon-search-a"/>
    </mask>
    <path fill="#999" d="M12,23 C12,16.383 17.383,11 24,11 C30.617,11 36,16.383 36,23 C36,29.617 30.617,35 24,35 C17.383,35 12,29.617 12,23 L12,23 Z M34.659,33.538 C37.34,30.827 39,27.105 39,23 C39,14.729 32.271,8 24,8 C15.729,8 9,14.729 9,23 C9,31.271 15.729,38 24,38 C27.084,38 29.953,37.063 32.339,35.46 L36.439,39.561 C36.732,39.854 37.116,40 37.5,40 C37.884,40 38.268,39.854 38.561,39.561 C39.146,38.975 39.146,38.025 38.561,37.439 L34.659,33.538 Z" mask="url(#icon-search-b)"/>
  </g>
</svg>
