<svg xmlns="http://www.w3.org/2000/svg" width="36" height="36" viewBox="0 0 36 36">
  <path fill="#999" d="M33.75,11.531 L33.75,6.187 C33.75,5.255 32.995,4.5 32.062,4.5 L25.594,4.5 L25.594,6.187 C25.594,6.808 25.09,7.312 24.469,7.312 C23.848,7.312 23.344,6.808 23.344,6.187 L23.344,4.5 L12.656,4.5 L12.656,6.187 C12.656,6.808 12.152,7.312 11.531,7.312 C10.91,7.312 10.406,6.808 10.406,6.187 L10.406,4.5 L3.938,4.5 C3.004,4.5 2.25,5.255 2.25,6.187 L2.25,11.531 L33.75,11.531 Z M33.75,32.062 L33.75,13.781 L2.25,13.781 L2.25,32.062 C2.25,32.995 3.005,33.75 3.938,33.75 L32.062,33.75 C32.995,33.75 33.75,32.995 33.75,32.062 Z M32.062,2.25 C34.236,2.25 36,4.01 36,6.187 L36,32.062 C36,34.237 34.239,36 32.062,36 L3.938,36 C1.763,36 0,34.239 0,32.062 L0,6.187 C0,4.012 1.761,2.25 3.938,2.25 L10.406,2.25 L10.406,1.125 C10.406,0.504 10.91,0 11.531,0 C12.152,0 12.656,0.504 12.656,1.125 L12.656,2.25 L23.344,2.25 L23.344,1.125 C23.344,0.504 23.848,0 24.469,0 C25.09,0 25.594,0.504 25.594,1.125 L25.594,2.25 L32.062,2.25 Z M16.3125,29.8123 C15.6915,29.8123 15.1875,29.3083 15.1875,28.6873 C15.1875,28.0663 15.6915,27.5623 16.3125,27.5623 L19.6875,27.5623 C20.3085,27.5623 20.8125,28.0663 20.8125,28.6873 C20.8125,29.3083 20.3085,29.8123 19.6875,29.8123 L16.3125,29.8123 Z M6.1875,19.6873 C5.5665,19.6873 5.0625,19.1833 5.0625,18.5623 C5.0625,17.9413 5.5665,17.4373 6.1875,17.4373 L9.5625,17.4373 C10.1835,17.4373 10.6875,17.9413 10.6875,18.5623 C10.6875,19.1833 10.1835,19.6873 9.5625,19.6873 L6.1875,19.6873 Z M16.3125,19.6873 C15.6915,19.6873 15.1875,19.1833 15.1875,18.5623 C15.1875,17.9413 15.6915,17.4373 16.3125,17.4373 L19.6875,17.4373 C20.3085,17.4373 20.8125,17.9413 20.8125,18.5623 C20.8125,19.1833 20.3085,19.6873 19.6875,19.6873 L16.3125,19.6873 Z M26.4375,19.6873 C25.8165,19.6873 25.3125,19.1833 25.3125,18.5623 C25.3125,17.9413 25.8165,17.4373 26.4375,17.4373 L29.8125,17.4373 C30.4335,17.4373 30.9375,17.9413 30.9375,18.5623 C30.9375,19.1833 30.4335,19.6873 29.8125,19.6873 L26.4375,19.6873 Z M6.1875,24.7498 C5.5665,24.7498 5.0625,24.2458 5.0625,23.6248 C5.0625,23.0038 5.5665,22.4998 6.1875,22.4998 L9.5625,22.4998 C10.1835,22.4998 10.6875,23.0038 10.6875,23.6248 C10.6875,24.2458 10.1835,24.7498 9.5625,24.7498 L6.1875,24.7498 Z M16.3125,24.7498 C15.6915,24.7498 15.1875,24.2458 15.1875,23.6248 C15.1875,23.0038 15.6915,22.4998 16.3125,22.4998 L19.6875,22.4998 C20.3085,22.4998 20.8125,23.0038 20.8125,23.6248 C20.8125,24.2458 20.3085,24.7498 19.6875,24.7498 L16.3125,24.7498 Z M26.4375,24.7498 C25.8165,24.7498 25.3125,24.2458 25.3125,23.6248 C25.3125,23.0038 25.8165,22.4998 26.4375,22.4998 L29.8125,22.4998 C30.4335,22.4998 30.9375,23.0038 30.9375,23.6248 C30.9375,24.2458 30.4335,24.7498 29.8125,24.7498 L26.4375,24.7498 Z M6.1875,29.8123 C5.5665,29.8123 5.0625,29.3083 5.0625,28.6873 C5.0625,28.0663 5.5665,27.5623 6.1875,27.5623 L9.5625,27.5623 C10.1835,27.5623 10.6875,28.0663 10.6875,28.6873 C10.6875,29.3083 10.1835,29.8123 9.5625,29.8123 L6.1875,29.8123 Z M26.4375,29.8123 C25.8165,29.8123 25.3125,29.3083 25.3125,28.6873 C25.3125,28.0663 25.8165,27.5623 26.4375,27.5623 L29.8125,27.5623 C30.4335,27.5623 30.9375,28.0663 30.9375,28.6873 C30.9375,29.3083 30.4335,29.8123 29.8125,29.8123 L26.4375,29.8123 Z"/>
</svg>
