<svg xmlns="http://www.w3.org/2000/svg" width="29" height="6" viewBox="0 0 29 6">
  <path fill="#999" d="M3.2449388,0.5510204 C4.6163673,0.5510204 5.6939184,1.6285714 5.6939184,3 C5.6939184,4.3714286 4.6163673,5.4489796 3.2449388,5.4489796 C1.8735102,5.4489796 0.79595918,4.3714286 0.79595918,3 C0.79595918,1.6285714 1.8735102,0.5510204 3.2449388,0.5510204 Z M14.5102449,0.5510204 C15.8816735,0.5510204 16.9592245,1.6285714 16.9592245,3 C16.9592245,4.3714286 15.8816735,5.4489796 14.5102449,5.4489796 C13.1388163,5.4489796 12.0612653,4.3714286 12.0612653,3 C12.0612653,1.6285714 13.1388163,0.5510204 14.5102449,0.5510204 Z M25.775551,0.5510204 C27.1469796,0.5510204 28.2245306,1.6285714 28.2245306,3 C28.2245306,4.3714286 27.1469796,5.4489796 25.775551,5.4489796 C24.4041224,5.4489796 23.3265714,4.3714286 23.3265714,3 C23.3265714,1.6285714 24.4041224,0.5510204 25.775551,0.5510204 Z"/>
</svg>
