<svg xmlns="http://www.w3.org/2000/svg" xmlns:xlink="http://www.w3.org/1999/xlink" width="48" height="48" viewBox="0 0 48 48">
  <defs>
    <rect id="分享2px-a" width="48" height="48" x="0" y="0"/>
  </defs>
  <g fill="none" fill-rule="evenodd">
    <mask id="分享2px-b" fill="#fff">
      <use xlink:href="#分享2px-a"/>
    </mask>
    <path fill="#333" d="M39,27.0002212 C39.553,27.0002212 40,27.4482212 40,28.0002212 L40,37.4722212 C40,38.8662212 38.868,40.0002212 37.478,40.0002212 L10.522,40.0002212 C9.132,40.0002212 8,38.8662212 8,37.4722212 L8,10.5292212 C8,9.13422123 9.132,8.00022123 10.522,8.00022123 L21,8.00022123 C21.553,8.00022123 22,8.44822123 22,9.00022123 C22,9.55222123 21.553,10.0002212 21,10.0002212 L10.522,10.0002212 C10.239,10.0002212 10,10.2422212 10,10.5292212 L10,37.4722212 C10,37.7582212 10.239,38.0002212 10.522,38.0002212 L37.478,38.0002212 C37.761,38.0002212 38,37.7582212 38,37.4722212 L38,28.0002212 C38,27.4482212 38.447,27.0002212 39,27.0002212 Z M20.0127,26.8488212 C21.2027,19.0558212 27.8557,13.0408212 35.8957,12.1328212 L32.4457,9.83182123 C31.9857,9.52682123 31.8617,8.90582123 32.1677,8.44582123 C32.4737,7.98582123 33.0937,7.86182123 33.5547,8.16782123 L39.5537,12.1678212 C40.0137,12.4738212 40.1377,13.0958212 39.8307,13.5548212 L35.8317,19.5548212 C35.5287,19.9938212 34.8597,20.1678212 34.3667,19.7868212 C33.9287,19.4488212 33.8617,18.9048212 34.1677,18.4458212 L37.1037,14.0408212 C29.6207,14.4608212 23.0727,20.0588212 21.9897,27.1508212 C21.9137,27.6458212 21.5527,27.9998212 21.0007,27.9998212 C20.2597,27.9998212 19.9287,27.3948212 20.0127,26.8488212 Z" mask="url(#分享2px-b)"/>
  </g>
</svg>
