<svg xmlns="http://www.w3.org/2000/svg" xmlns:xlink="http://www.w3.org/1999/xlink" width="48" height="48" viewBox="0 0 48 48">
  <defs>
    <path id="地图3px-a" d="M22.9999612,8.83332546 C18.835919,8.83332546 15.4289754,11.6666509 15.5236127,15.2555298 C15.5236127,18.7499646 19.5930176,23.7555062 21.8643134,26.4943875 L22.053588,26.6832759 C22.3375,27.0610526 22.5267746,27.3443852 22.7160493,27.5332735 L22.9053239,27.7221619 L23.0945986,27.7221619 L23.1892359,27.7221619 L23.3785105,27.4388293 C23.5677852,27.249941 23.7570598,26.9666084 23.9463345,26.6832759 L24.0409718,26.5888317 C26.1229929,24.133283 30.5709471,18.8444088 30.5709471,15.2555298 C30.5709471,11.6666509 27.1640035,8.83332546 22.9999612,8.83332546 Z M19.7822922,28.3832712 L19.5930176,28.288827 C16.9431725,25.0777248 12.5898557,19.6944064 12.5898557,15.2555298 C12.5898557,10.155544 17.2270845,6 22.9999612,6 C28.772838,6 33.4100668,10.155544 33.4100668,15.2555298 C33.4100668,19.7888506 28.772838,25.3610573 26.2176302,28.3832712 C26.0283556,28.6666037 25.7444436,28.9499363 25.555169,29.2332688 L25.3658943,29.4221572 C24.8927077,30.0832664 24.0409718,30.5554873 23.0945986,30.5554873 L22.9999612,30.5554873 C22.1482253,30.5554873 21.2964894,30.1777106 20.7286655,29.5166013 L20.5393908,29.327713 C20.2554789,29.0443804 20.0662042,28.7610479 19.7822922,28.3832712 Z M21.1072148,15.4444182 C21.1072148,16.4833042 21.9589507,17.3333019 22.9999612,17.3333019 C24.0409718,17.3333019 24.8927077,16.4833042 24.8927077,15.4444182 C24.8927077,14.4055322 24.0409718,13.5555346 22.9999612,13.5555346 C21.9589507,13.5555346 21.1072148,14.4055322 21.1072148,15.4444182 Z M27.7318274,15.4444182 C27.7318274,18.0888553 25.6498063,20.1666273 22.9999612,20.1666273 C20.3501162,20.1666273 18.2680951,18.0888553 18.2680951,15.4444182 C18.2680951,12.7999811 20.3501162,10.7222091 22.9999612,10.7222091 C25.6498063,10.7222091 27.7318274,12.7999811 27.7318274,15.4444182 Z M40.69733,35.3722351 C41.1705166,36.4111211 41.0749329,37.5444513 40.5080554,38.4888931 C39.8455941,39.4333349 38.8045835,40 37.5742983,40 L8.4260027,40 C7.1957175,40 6.15470694,39.4333349 5.49224567,38.4888931 C4.92442173,37.5444513 4.82978441,36.4111211 5.30297103,35.3722351 L9.18310129,26.8722587 C9.75092523,25.6444843 10.9812104,24.8889309 12.306133,24.8889309 L14.0096048,24.8889309 C14.7667034,24.8889309 15.4291646,25.5500401 15.4291646,26.3055936 C15.4291646,27.0611471 14.7667034,27.7222563 14.0096048,27.7222563 L12.306133,27.7222563 C12.022221,27.7222563 11.8329463,27.8167005 11.738309,28.0055889 L7.85817876,36.5055653 C7.76354144,36.6000094 7.76354144,36.6944536 7.85817876,36.883342 C7.95281609,36.9777862 8.14209073,37.1666745 8.4260027,37.1666745 L37.5742983,37.1666745 C37.9528476,37.1666745 38.1421223,36.9777862 38.1421223,36.883342 C38.2358132,36.6944536 38.1421223,36.5055653 38.1421223,36.5055653 L34.261992,28.0055889 C34.1673547,27.8167005 33.9771337,27.7222563 33.6941681,27.7222563 L31.9906963,27.7222563 C31.2335977,27.7222563 30.5711364,27.0611471 30.5711364,26.3055936 C30.5711364,25.5500401 31.2335977,24.8889309 31.9906963,24.8889309 L33.6941681,24.8889309 C35.0190906,24.8889309 36.2493758,25.6444843 36.8162534,26.8722587 L40.69733,35.3722351 Z"/>
  </defs>
  <use fill="#999" fill-rule="evenodd" xlink:href="#地图3px-a"/>
</svg>
