<svg xmlns="http://www.w3.org/2000/svg" width="32" height="32" viewBox="0 0 32 32">
  <path fill="#FF2741" fill-rule="evenodd" d="M31.6,8.9937354 C31.7,8.7938915 31.9,8.5940476 32,8.4941257 L32,28.278669 C32,30.8766393 29.9,32.975 27.3,32.975 L4.7,32.975 C2.1,32.975 0,30.8766393 0,28.278669 L0,5.6963115 C0,3.0983411 2.1,0.99998048 4.7,0.99998048 L22.6,0.99998048 L9.7,13.8899102 C9.2,14.289598 8.6,15.1888954 7.5,18.0866315 C6.5,20.484758 5.6,22.7829625 7.4,24.5815574 C8.1,25.2810109 8.9,25.5807767 9.9,25.5807767 C11,25.5807767 12.2,25.181089 14,24.4816354 C16.9,23.2825722 17.8,22.6830406 18.2,22.2833528 L31.6,8.9937354 Z M9.4,18.6861632 C9.9,17.387178 10.6,15.5885831 11.1,15.0889735 L24.4,1.79935597 C24.9,1.39966823 25.4,1.09990242 26,0.99998048 C26.7,0.90005855 27.4,1.09990242 28,1.5995121 L30.5,4.0975605 C31,4.5971702 31.2,5.2966237 31.1,5.9960773 C31,6.5956089 30.7,7.1951405 30.3,7.5948283 L17,20.8844457 C16.5,21.3840554 14.8,22.1834309 13.4,22.6830406 C11.7,23.3824941 10.7,23.68226 10,23.68226 C9.5,23.68226 9.2,23.4824161 8.9,23.1826503 C8.2,22.4831967 8.3,21.5838993 9.4,18.6861632 Z M26.3,3.9976386 L24.6,5.6963115 L26.4,7.4949063 L28.1,5.7962334 L26.3,3.9976386 Z M13.2,17.0874122 C12.9,17.4870999 12.3,18.985929 11.8,20.2849141 C13.1,19.7853044 14.6,19.1857728 15,18.886007 L24.4,9.493345 L22.6,7.6947502 L13.2,17.0874122 Z" transform="translate(0 -1)"/>
</svg>
