<svg xmlns="http://www.w3.org/2000/svg" xmlns:xlink="http://www.w3.org/1999/xlink" width="48" height="48" viewBox="0 0 48 48">
  <defs>
    <rect id="删除-a" width="48" height="48" x="0" y="0"/>
  </defs>
  <g fill="none" fill-rule="evenodd">
    <mask id="删除-b" fill="#fff">
      <use xlink:href="#删除-a"/>
    </mask>
    <path fill="#999" d="M39.2512341,12.5132879 L39.2512341,40.1700621 C39.2512341,41.7451321 37.9800203,43 36.4355605,43 L11.7867506,43 C10.2421762,43 8.97234884,41.7449758 8.97234884,40.1700621 L8.97234884,12.5132879 L6.36963378,12.5132879 C5.61320593,12.5132879 5,11.8855856 5,11.1112755 C5,10.3369654 5.61320593,9.70926308 6.36963378,9.70926308 L15.0949347,9.70926308 L15.0949347,7.8311949 C15.0949347,6.25643678 16.3646466,5 17.9093364,5 L30.3132291,5 C31.8571401,5 33.1250872,6.25698423 33.1250872,7.8311949 L33.1250872,9.70926308 L41.6303662,9.70926308 C42.3867941,9.70926308 43,10.3369654 43,11.1112755 C43,11.8855856 42.3867941,12.5132879 41.6303662,12.5132879 L39.2512341,12.5132879 Z M36.5119665,12.5132879 L11.7116164,12.5132879 L11.7116164,40.1700621 C11.7116164,40.1739111 11.7339407,40.1959751 11.7867506,40.1959751 L36.4355605,40.1959751 C36.4889709,40.1959751 36.5119665,40.1732752 36.5119665,40.1700621 L36.5119665,12.5132879 Z M30.3858197,9.70926308 L30.3858197,7.8311949 C30.3858197,7.82607069 30.3635816,7.80402487 30.3132291,7.80402487 L17.9093364,7.80402487 C17.8571272,7.80402487 17.8342022,7.82671017 17.8342022,7.8311949 L17.8342022,9.70926308 L30.3858197,9.70926308 Z M16.4337615,16.7923073 C16.4337615,16.0179972 17.0469674,15.3902948 17.8033953,15.3902948 C18.5598231,15.3902948 19.173029,16.0179972 19.173029,16.7923073 L19.173029,35.8304758 C19.173029,36.6047859 18.5598231,37.2324883 17.8033953,37.2324883 C17.0469674,37.2324883 16.4337615,36.6047859 16.4337615,35.8304758 L16.4337615,16.7923073 Z M22.7406315,16.7923073 C22.7406315,16.0179972 23.3538375,15.3902948 24.1102653,15.3902948 C24.8666932,15.3902948 25.4798991,16.0179972 25.4798991,16.7923073 L25.4798991,35.8304758 C25.4798991,36.6047859 24.8666932,37.2324883 24.1102653,37.2324883 C23.3538375,37.2324883 22.7406315,36.6047859 22.7406315,35.8304758 L22.7406315,16.7923073 Z M29.0475016,16.7923073 C29.0475016,16.0179972 29.6607075,15.3902948 30.4171354,15.3902948 C31.1735632,15.3902948 31.7867691,16.0179972 31.7867691,16.7923073 L31.7867691,35.8304758 C31.7867691,36.6047859 31.1735632,37.2324883 30.4171354,37.2324883 C29.6607075,37.2324883 29.0475016,36.6047859 29.0475016,35.8304758 L29.0475016,16.7923073 Z" mask="url(#删除-b)"/>
  </g>
</svg>
