<svg xmlns="http://www.w3.org/2000/svg" width="36" height="30" viewBox="0 0 36 30">
  <path fill="#FF2741" d="M36.6,25.7 L21.5,1.4 C21,0.5 20.1,0 19,0 C17.9,0 17,0.5 16.5,1.4 L1.4,25.7 C0.9,26.6 0.8,27.7 1.4,28.6 C1.9,29.5 2.9,30 3.9,30 L34,30 C35,30 36,29.5 36.5,28.6 C37.1,27.7 37.1,26.6 36.6,25.7 Z M20.5,23.5 C20.5,24.3 19.8,25 19,25 C18.2,25 17.5,24.3 17.5,23.5 L17.5,16.5 C17.5,15.7 18.2,15 19,15 C19.8,15 20.5,15.7 20.5,16.5 L20.5,23.5 Z M19,13 C17.9,13 17,12.1 17,11 C17,9.9 17.9,9 19,9 C20.1,9 21,9.9 21,11 C21,12.1 20.1,13 19,13 Z" transform="translate(-1)"/>
</svg>
