<svg xmlns="http://www.w3.org/2000/svg" xmlns:xlink="http://www.w3.org/1999/xlink" width="48" height="48" viewBox="0 0 48 48">
  <defs>
    <rect id="未关注-a" width="48" height="48" x="0" y="0"/>
  </defs>
  <g fill="none" fill-rule="evenodd">
    <mask id="未关注-b" fill="#fff">
      <use xlink:href="#未关注-a"/>
    </mask>
    <path fill="#FF2741" d="M35.4180969,6.64629334 C40.9392785,8.44367998 44.3171986,13.4483495 43.9764254,19.3247134 C43.8617452,21.4103484 43.348476,23.1464635 42.341244,24.8668487 C41.1066229,26.9756221 39.7379852,28.4612896 34.9079982,33.2160822 L34.6911218,33.4290182 C31.8314454,36.2404574 30.0325866,38.0351226 27.6991262,40.4333409 C26.7229375,41.4319181 25.3798729,42 23.9968291,42 C22.6115387,42 21.2672679,41.4294267 20.2926422,40.4287002 L20.2931696,40.4292415 C17.9135817,37.9884867 16.0764452,36.1561306 13.1985033,33.3257199 C5.66619018,25.9123628 4.27391429,23.9901326 4.01673561,19.3042875 C3.73004027,13.3907606 7.14749707,8.3891197 12.679456,6.62466657 C16.3011017,5.47064373 20.512961,5.89750147 23.9968158,8.16919096 C27.5124085,5.87604905 31.7640726,5.4579615 35.4180969,6.64629334 Z M22.3199605,38.3769679 C22.7587438,38.8275017 23.3730717,39.088252 23.9968291,39.088252 C24.6205011,39.088252 25.2351571,38.8282683 25.6726933,38.380703 C28.0218263,35.9663714 29.8338292,34.1585928 32.7081384,31.3327681 L32.924336,31.1204999 C37.5315459,26.5850145 38.8395037,25.1652155 39.8876723,23.3749091 C40.6563489,22.0619843 41.0346686,20.782331 41.124025,19.1573691 C41.387943,14.6062244 38.8276606,10.8129532 34.5491068,9.42009633 C31.4354459,8.40749708 27.7427394,8.88116762 24.8583177,11.1034024 L23.9966978,11.7672171 L23.1351734,11.1032736 C20.2776829,8.90111628 16.6178266,8.42047887 13.532462,9.40361783 C9.2438617,10.7714939 6.64786544,14.570881 6.86989136,19.1511286 C7.07034976,22.8030883 8.18867622,24.3470933 15.1829116,31.2308706 C18.0736737,34.0738895 19.9233447,35.9187476 22.3199605,38.3769679 Z" mask="url(#未关注-b)"/>
  </g>
</svg>
