<svg xmlns="http://www.w3.org/2000/svg" xmlns:xlink="http://www.w3.org/1999/xlink" width="48" height="48" viewBox="0 0 48 48">
  <defs>
    <polygon id="瞄准-a" points="0 0 48 0 48 48 0 48"/>
  </defs>
  <g fill="none" fill-rule="evenodd">
    <mask id="瞄准-b" fill="#fff">
      <use xlink:href="#瞄准-a"/>
    </mask>
    <path fill="#FF2741" d="M25.35755,38.88935 C32.52245,38.23955 38.24145,32.5215 38.88935,25.35755 L36.2151,25.35755 C35.4646,25.35755 34.85755,24.7486 34.85755,23.99905 C34.85755,23.25045 35.4646,22.64245 36.2151,22.64245 L38.88935,22.64245 C38.24145,15.4766 32.52245,9.7595 25.35755,9.11065 L25.35755,11.78585 C25.35755,12.53445 24.74955,13.14245 24,13.14245 C23.2514,13.14245 22.6434,12.53445 22.6434,11.78585 L22.6434,9.11065 C15.47755,9.7595 9.76045,15.4766 9.1116,22.64245 L11.78585,22.64245 C12.5354,22.64245 13.1434,23.25045 13.1434,23.99905 C13.1434,24.7486 12.5354,25.35755 11.78585,25.35755 L9.1116,25.35755 C9.76045,32.5215 15.47755,38.23955 22.6434,38.88935 L22.6434,36.21415 C22.6434,35.46365 23.2514,34.8566 24,34.8566 C24.74955,34.8566 25.35755,35.46365 25.35755,36.21415 L25.35755,38.88935 Z M41.6434,22.64245 C42.3939,22.64245 43,23.25045 43,23.99905 C43,24.7486 42.3939,25.35755 41.6434,25.35755 L41.6035,25.35755 C40.93945,34.01775 34.0187,40.93945 25.35755,41.60255 L25.35755,41.64245 C25.35755,42.39295 24.74955,43 24,43 C23.2514,43 22.6434,42.39295 22.6434,41.64245 L22.6434,41.60255 C13.98225,40.93945 7.06055,34.01775 6.39745,25.35755 L6.35755,25.35755 C5.608,25.35755 5,24.7486 5,23.99905 C5,23.25045 5.608,22.64245 6.35755,22.64245 L6.39745,22.64245 C7.06055,13.9813 13.98225,7.0596 22.6434,6.3965 L22.6434,6.35755 C22.6434,5.608 23.2514,5 24,5 C24.74955,5 25.35755,5.608 25.35755,6.35755 L25.35755,6.3965 C34.0187,7.0596 40.93945,13.9813 41.6035,22.64245 L41.6434,22.64245 Z M24.000285,26.71377 C25.497485,26.71377 26.714435,25.49682 26.714435,23.99962 C26.714435,22.50242 25.497485,21.28547 24.000285,21.28547 C22.503085,21.28547 21.286135,22.50242 21.286135,23.99962 C21.286135,25.49682 22.503085,26.71377 24.000285,26.71377 Z M24.000285,18.57132 C26.994685,18.57132 29.428585,21.00522 29.428585,23.99962 C29.428585,26.99402 26.994685,29.42792 24.000285,29.42792 C21.006835,29.42792 18.571985,26.99402 18.571985,23.99962 C18.571985,21.00522 21.006835,18.57132 24.000285,18.57132 Z" mask="url(#瞄准-b)"/>
  </g>
</svg>
