<svg width="68" height="68" viewBox="0 0 68 68" fill="none" xmlns="http://www.w3.org/2000/svg">
<mask id="mask0" mask-type="alpha" maskUnits="userSpaceOnUse" x="0" y="0" width="68" height="68">
<rect width="68" height="68" fill="white"/>
</mask>
<g mask="url(#mask0)">
<path fill-rule="evenodd" clip-rule="evenodd" d="M33.9965 47.719C34.379 47.719 34.7573 47.8026 35.1171 47.9683L45.1754 52.3047C45.2803 52.3543 45.7492 52.5909 46.1869 52.2523C46.5978 51.9322 46.6601 51.6545 46.6275 51.3145L45.4914 40.6073C45.3964 39.8664 45.6486 39.0957 46.1855 38.5234L53.5678 30.5207C53.8143 30.243 53.8922 29.9101 53.7817 29.6069C53.6485 29.2301 53.3907 29.0077 52.9898 28.9156L42.2486 26.6971C41.4284 26.5101 40.8192 26.0837 40.4098 25.4221L34.8862 16.0777C34.5023 15.4275 33.4469 15.4643 33.1394 16.0352L27.5649 25.4136C27.3254 25.8471 26.8055 26.4534 25.8039 26.6872L14.9679 28.9227C14.7724 28.9694 14.37 29.121 14.2411 29.5403C14.1037 29.9271 14.1703 30.2458 14.4097 30.4937L21.8174 38.5532C22.3402 39.0547 22.6136 39.8409 22.5074 40.6541L21.374 51.3173C21.3202 51.7154 21.4406 51.9945 21.7296 52.1914C22.0668 52.4407 22.445 52.4705 22.8077 52.3147L32.8745 47.957C33.2471 47.7983 33.6254 47.719 33.9965 47.719ZM45.6727 55.2684C45.021 55.2684 44.4218 55.0998 43.9656 54.8661L33.9668 50.5566L23.941 54.9114C22.6448 55.4809 21.2012 55.3251 20.0834 54.4977C18.9473 53.7172 18.3636 52.3883 18.5634 50.9717L19.6839 40.4161L12.3456 32.4346C11.3894 31.4429 11.0777 29.9823 11.5523 28.6492C11.9249 27.4309 12.9817 26.4761 14.3601 26.1559L25.1962 23.9204L30.6773 14.6342C31.2964 13.4909 32.5799 12.75 34.0008 12.75C35.3806 12.75 36.623 13.4541 37.3243 14.6327L42.8351 23.9572L53.5933 26.146C54.966 26.4633 55.9959 27.3742 56.4493 28.6492C56.9168 29.9384 56.6278 31.3508 55.6729 32.4176L55.6588 32.4332L48.3162 40.3906L49.4481 51.0354C49.5756 52.4237 49.05 53.6095 47.9323 54.4836C47.2027 55.0559 46.4051 55.2684 45.6727 55.2684Z" fill="#999999"/>
</g>
</svg>
