<svg xmlns="http://www.w3.org/2000/svg" width="36" height="36" viewBox="0 0 36 36">
  <path fill="#FF2741" d="M34.5168,19.68 L32.6976,19.68 L32.6976,26.208 L29.4336,26.208 L29.4336,19.68 L21.1656,19.68 C20.3496,19.68 19.68,20.3472 19.68,21.1632 L19.68,34.5168 C19.68,35.3304 20.3496,36 21.1656,36 L22.9464,36 L22.9464,26.208 L26.208,26.208 L26.208,29.472 L36,29.472 L36,21.1632 C36,20.3472 35.3328,19.68 34.5168,19.68 L34.5168,19.68 Z M6.528,27.84 C6.528,28.74 7.26,29.472 8.16,29.472 C9.0624,29.472 9.792,28.74 9.792,27.84 C9.792,26.9376 9.0624,26.208 8.16,26.208 C7.26,26.208 6.528,26.9376 6.528,27.84 L6.528,27.84 Z M14.8368,19.68 L1.4832,19.68 C0.6672,19.68 0,20.3472 0,21.1632 L0,34.5168 C0,35.3304 0.6672,36 1.4832,36 L14.8368,36 C15.6528,36 16.32,35.3304 16.32,34.5168 L16.32,21.1632 C16.32,20.3472 15.6528,19.68 14.8368,19.68 L14.8368,19.68 Z M3.264,32.7336 L13.056,32.7336 L13.056,22.944 L3.264,22.944 L3.264,32.7336 Z M26.208,8.1576 C26.208,9.06 26.94,9.792 27.8424,9.792 C28.7424,9.792 29.472,9.06 29.472,8.1576 C29.472,7.2576 28.7424,6.528 27.8424,6.528 C26.94,6.528 26.208,7.2576 26.208,8.1576 L26.208,8.1576 Z M34.5168,0 L21.1656,0 C20.3496,0 19.68,0.6672 19.68,1.4832 L19.68,14.8344 C19.68,15.6504 20.3496,16.32 21.1656,16.32 L34.5168,16.32 C35.3328,16.32 36,15.6504 36,14.8344 L36,1.4832 C36,0.6672 35.3328,0 34.5168,0 L34.5168,0 Z M22.9464,13.0536 L32.7384,13.0536 L32.7384,3.2616 L22.9464,3.2616 L22.9464,13.0536 Z M6.528,8.1576 C6.528,9.06 7.26,9.792 8.16,9.792 C9.0624,9.792 9.792,9.06 9.792,8.1576 C9.792,7.2576 9.0624,6.528 8.16,6.528 C7.26,6.528 6.528,7.2576 6.528,8.1576 L6.528,8.1576 Z M14.8368,0 L1.4832,0 C0.6672,0 0,0.6672 0,1.4832 L0,14.8344 C0,15.6504 0.6672,16.32 1.4832,16.32 L14.8368,16.32 C15.6528,16.32 16.32,15.6504 16.32,14.8344 L16.32,1.4832 C16.32,0.6672 15.6528,0 14.8368,0 L14.8368,0 Z M3.264,13.0536 L13.056,13.0536 L13.056,3.2616 L3.264,3.2616 L3.264,13.0536 Z M34.5168,36 C35.3328,36 36,35.3304 36,34.5168 L36,32.7336 L32.8056,32.7336 L32.8056,35.9976 L34.5168,36 Z M29.544,35.9976 L29.544,32.7336 L26.208,32.7336 L26.208,36 L29.544,35.9976 Z"/>
</svg>
