<svg xmlns="http://www.w3.org/2000/svg" xmlns:xlink="http://www.w3.org/1999/xlink" width="48" height="48" viewBox="0 0 48 48">
  <defs>
    <path id="填写信息-a" d="M39.6,15.9937354 C39.7,15.7938915 39.9,15.5940476 40,15.4941257 L40,35.278669 C40,37.8766393 37.9,39.975 35.3,39.975 L12.7,39.975 C10.1,39.975 8,37.8766393 8,35.278669 L8,12.6963115 C8,10.0983411 10.1,7.99998048 12.7,7.99998048 L30.6,7.99998048 L17.7,20.8899102 C17.2,21.289598 16.6,22.1888954 15.5,25.0866315 C14.5,27.484758 13.6,29.7829625 15.4,31.5815574 C16.1,32.2810109 16.9,32.5807767 17.9,32.5807767 C19,32.5807767 20.2,32.181089 22,31.4816354 C24.9,30.2825722 25.8,29.6830406 26.2,29.2833528 L39.6,15.9937354 Z M17.4,25.6861632 C17.9,24.387178 18.6,22.5885831 19.1,22.0889735 L32.4,8.79935597 C32.9,8.39966823 33.4,8.09990242 34,7.99998048 C34.7,7.90005855 35.4,8.09990242 36,8.5995121 L38.5,11.0975605 C39,11.5971702 39.2,12.2966237 39.1,12.9960773 C39,13.5956089 38.7,14.1951405 38.3,14.5948283 L25,27.8844457 C24.5,28.3840554 22.8,29.1834309 21.4,29.6830406 C19.7,30.3824941 18.7,30.68226 18,30.68226 C17.5,30.68226 17.2,30.4824161 16.9,30.1826503 C16.2,29.4831967 16.3,28.5838993 17.4,25.6861632 Z M34.3,10.9976386 L32.6,12.6963115 L34.4,14.4949063 L36.1,12.7962334 L34.3,10.9976386 Z M21.2,24.0874122 C20.9,24.4870999 20.3,25.985929 19.8,27.2849141 C21.1,26.7853044 22.6,26.1857728 23,25.886007 L32.4,16.493345 L30.6,14.6947502 L21.2,24.0874122 Z"/>
  </defs>
  <use fill="#FF2741" fill-rule="evenodd" xlink:href="#填写信息-a"/>
</svg>
