<svg xmlns="http://www.w3.org/2000/svg" xmlns:xlink="http://www.w3.org/1999/xlink" width="48" height="48" viewBox="0 0 48 48">
  <defs>
    <polygon id="二维码-a" points="0 0 47.999 0 47.999 47.999 0 47.999"/>
  </defs>
  <g fill="none" fill-rule="evenodd">
    <mask id="二维码-b" fill="#fff">
      <use xlink:href="#二维码-a"/>
    </mask>
    <path fill="#FF2741" d="M40.5168,25.68 L38.6976,25.68 L38.6976,32.208 L35.4336,32.208 L35.4336,25.68 L27.1656,25.68 C26.3496,25.68 25.68,26.3472 25.68,27.1632 L25.68,40.5168 C25.68,41.3304 26.3496,42 27.1656,42 L28.9464,42 L28.9464,32.208 L32.208,32.208 L32.208,35.472 L42,35.472 L42,27.1632 C42,26.3472 41.3328,25.68 40.5168,25.68 L40.5168,25.68 Z M12.528,33.84 C12.528,34.74 13.26,35.472 14.16,35.472 C15.0624,35.472 15.792,34.74 15.792,33.84 C15.792,32.9376 15.0624,32.208 14.16,32.208 C13.26,32.208 12.528,32.9376 12.528,33.84 L12.528,33.84 Z M20.8368,25.68 L7.4832,25.68 C6.6672,25.68 6,26.3472 6,27.1632 L6,40.5168 C6,41.3304 6.6672,42 7.4832,42 L20.8368,42 C21.6528,42 22.32,41.3304 22.32,40.5168 L22.32,27.1632 C22.32,26.3472 21.6528,25.68 20.8368,25.68 L20.8368,25.68 Z M9.264,38.7336 L19.056,38.7336 L19.056,28.944 L9.264,28.944 L9.264,38.7336 Z M32.208,14.1576 C32.208,15.06 32.94,15.792 33.8424,15.792 C34.7424,15.792 35.472,15.06 35.472,14.1576 C35.472,13.2576 34.7424,12.528 33.8424,12.528 C32.94,12.528 32.208,13.2576 32.208,14.1576 L32.208,14.1576 Z M40.5168,6 L27.1656,6 C26.3496,6 25.68,6.6672 25.68,7.4832 L25.68,20.8344 C25.68,21.6504 26.3496,22.32 27.1656,22.32 L40.5168,22.32 C41.3328,22.32 42,21.6504 42,20.8344 L42,7.4832 C42,6.6672 41.3328,6 40.5168,6 L40.5168,6 Z M28.9464,19.0536 L38.7384,19.0536 L38.7384,9.2616 L28.9464,9.2616 L28.9464,19.0536 Z M12.528,14.1576 C12.528,15.06 13.26,15.792 14.16,15.792 C15.0624,15.792 15.792,15.06 15.792,14.1576 C15.792,13.2576 15.0624,12.528 14.16,12.528 C13.26,12.528 12.528,13.2576 12.528,14.1576 L12.528,14.1576 Z M20.8368,6 L7.4832,6 C6.6672,6 6,6.6672 6,7.4832 L6,20.8344 C6,21.6504 6.6672,22.32 7.4832,22.32 L20.8368,22.32 C21.6528,22.32 22.32,21.6504 22.32,20.8344 L22.32,7.4832 C22.32,6.6672 21.6528,6 20.8368,6 L20.8368,6 Z M9.264,19.0536 L19.056,19.0536 L19.056,9.2616 L9.264,9.2616 L9.264,19.0536 Z M40.5168,42 C41.3328,42 42,41.3304 42,40.5168 L42,38.7336 L38.8056,38.7336 L38.8056,41.9976 L40.5168,42 Z M35.544,41.9976 L35.544,38.7336 L32.208,38.7336 L32.208,42 L35.544,41.9976 Z" mask="url(#二维码-b)"/>
  </g>
</svg>
