<svg xmlns="http://www.w3.org/2000/svg" xmlns:xlink="http://www.w3.org/1999/xlink" width="48" height="48" viewBox="0 0 48 48">
  <defs>
    <path id="相机-a" d="M37,15 L35,15 L34.8,15 C34.2,12 31.7,9 28.7,9 L19.2,9 C16.2,9 13.7,12 13.1,15 L13,15 L11,15 C8.2,15 6,17.2 6,20 L6,34 C6,36.8 8.2,39 11,39 L37,39 C39.8,39 42,36.8 42,34 L42,20 C42,17.2 39.8,15 37,15 Z M24,33 C20.7,33 18,30.3 18,27 C18,23.7 20.7,21 24,21 C27.3,21 30,23.7 30,27 C30,30.3 27.3,33 24,33 Z M36,22 C34.9,22 34,21.1 34,20 C34,18.9 34.9,18 36,18 C37.1,18 38,18.9 38,20 C38,21.1 37.1,22 36,22 Z"/>
  </defs>
  <use fill="#FF2741" fill-rule="evenodd" xlink:href="#相机-a"/>
</svg>
