<svg xmlns="http://www.w3.org/2000/svg" xmlns:xlink="http://www.w3.org/1999/xlink" width="48" height="48" viewBox="0 0 48 48">
  <defs>
    <rect id="列表模式3px-a" width="48" height="48" x="0" y="0"/>
  </defs>
  <g fill="none" fill-rule="evenodd">
    <mask id="列表模式3px-b" fill="#fff">
      <use xlink:href="#列表模式3px-a"/>
    </mask>
    <path fill="#999" d="M27.5,13 C26.7,13 26,12.3 26,11.5 C26,10.7 26.7,10 27.5,10 L38.5,10 C39.3,10 40,10.7 40,11.5 C40,12.3 39.3,13 38.5,13 L27.5,13 Z M38.5,17.1 C39.3,17.1 40,17.8 40,18.6 C40,19.4 39.3,20.1 38.5,20.1 L27.5,20.1 C26.7,20.1 26,19.4 26,18.6 C26,17.8 26.7,17.1 27.5,17.1 L38.5,17.1 Z M38.5,27.9 C39.3,27.9 40,28.6 40,29.4 C40,30.2 39.3,30.9 38.5,30.9 L27.5,30.9 C26.7,30.9 26,30.2 26,29.4 C26,28.6 26.7,27.9 27.5,27.9 L38.5,27.9 Z M38.5,35 C39.3,35 40,35.7 40,36.5 C40,37.3 39.3,38 38.5,38 L27.5,38 C26.7,38 26,37.3 26,36.5 C26,35.7 26.7,35 27.5,35 L38.5,35 Z M16.5,8 C19.5,8 22,10.5 22,13.5 L22,16.5 C22,19.5 19.5,22 16.5,22 L13.5,22 C10.5,22 8,19.5 8,16.5 L8,13.5 C8,10.5 10.5,8 13.5,8 L16.5,8 Z M19,16.5 L19,13.5 C19,12.1 17.9,11 16.5,11 L13.5,11 C12.1,11 11,12.1 11,13.5 L11,16.5 C11,17.9 12.1,19 13.5,19 L16.5,19 C17.9,19 19,17.9 19,16.5 Z M16.5,26 C19.5,26 22,28.5 22,31.5 L22,34.5 C22,37.5 19.5,40 16.5,40 L13.5,40 C10.5,40 8,37.5 8,34.5 L8,31.5 C8,28.5 10.5,26 13.5,26 L16.5,26 Z M19,34.5 L19,31.5 C19,30.1 17.9,29 16.5,29 L13.5,29 C12.1,29 11,30.1 11,31.5 L11,34.5 C11,35.9 12.1,37 13.5,37 L16.5,37 C17.9,37 19,35.9 19,34.5 Z" mask="url(#列表模式3px-b)"/>
  </g>
</svg>
