<?xml version="1.0"?>
<svg xmlns="http://www.w3.org/2000/svg" xmlns:xlink="http://www.w3.org/1999/xlink" width="29px" height="29px">
<path fill-rule="evenodd" fill="rgb(252, 93, 74)" d="M27.500,16.000 L16.000,16.000 L16.000,27.500 C16.000,28.328 15.328,29.000 14.501,29.000 C13.672,29.000 13.000,28.328 13.000,27.500 L13.000,16.000 L1.500,16.000 C0.672,16.000 -0.000,15.329 -0.000,14.500 C-0.000,13.672 0.672,13.000 1.500,13.000 L13.000,13.000 L13.000,1.500 C13.000,0.672 13.672,0.000 14.501,0.000 C15.328,0.000 16.000,0.672 16.000,1.500 L16.000,13.000 L27.500,13.000 C28.329,13.000 28.999,13.672 28.999,14.500 C28.999,15.329 28.329,16.000 27.500,16.000 Z"/>
</svg>
