<svg xmlns="http://www.w3.org/2000/svg" width="38" height="38" viewBox="0 0 38 38">
  <path fill="#FF2741" d="M20.35755,33.88935 C27.52245,33.23955 33.24145,27.5215 33.88935,20.35755 L31.2151,20.35755 C30.4646,20.35755 29.85755,19.7486 29.85755,18.99905 C29.85755,18.25045 30.4646,17.64245 31.2151,17.64245 L33.88935,17.64245 C33.24145,10.4766 27.52245,4.7595 20.35755,4.11065 L20.35755,6.78585 C20.35755,7.53445 19.74955,8.14245 19,8.14245 C18.2514,8.14245 17.6434,7.53445 17.6434,6.78585 L17.6434,4.11065 C10.47755,4.7595 4.76045,10.4766 4.1116,17.64245 L6.78585,17.64245 C7.5354,17.64245 8.1434,18.25045 8.1434,18.99905 C8.1434,19.7486 7.5354,20.35755 6.78585,20.35755 L4.1116,20.35755 C4.76045,27.5215 10.47755,33.23955 17.6434,33.88935 L17.6434,31.21415 C17.6434,30.46365 18.2514,29.8566 19,29.8566 C19.74955,29.8566 20.35755,30.46365 20.35755,31.21415 L20.35755,33.88935 Z M36.6434,17.64245 C37.3939,17.64245 38,18.25045 38,18.99905 C38,19.7486 37.3939,20.35755 36.6434,20.35755 L36.6035,20.35755 C35.93945,29.01775 29.0187,35.93945 20.35755,36.60255 L20.35755,36.64245 C20.35755,37.39295 19.74955,38 19,38 C18.2514,38 17.6434,37.39295 17.6434,36.64245 L17.6434,36.60255 C8.98225,35.93945 2.06055,29.01775 1.39745,20.35755 L1.35755,20.35755 C0.608,20.35755 0,19.7486 0,18.99905 C0,18.25045 0.608,17.64245 1.35755,17.64245 L1.39745,17.64245 C2.06055,8.9813 8.98225,2.0596 17.6434,1.3965 L17.6434,1.35755 C17.6434,0.608 18.2514,0 19,0 C19.74955,0 20.35755,0.608 20.35755,1.35755 L20.35755,1.3965 C29.0187,2.0596 35.93945,8.9813 36.6035,17.64245 L36.6434,17.64245 Z M19.000285,21.71377 C20.497485,21.71377 21.714435,20.49682 21.714435,18.99962 C21.714435,17.50242 20.497485,16.28547 19.000285,16.28547 C17.503085,16.28547 16.286135,17.50242 16.286135,18.99962 C16.286135,20.49682 17.503085,21.71377 19.000285,21.71377 Z M19.000285,13.57132 C21.994685,13.57132 24.428585,16.00522 24.428585,18.99962 C24.428585,21.99402 21.994685,24.42792 19.000285,24.42792 C16.006835,24.42792 13.571985,21.99402 13.571985,18.99962 C13.571985,16.00522 16.006835,13.57132 19.000285,13.57132 Z"/>
</svg>
