<svg xmlns="http://www.w3.org/2000/svg" width="32" height="32" viewBox="0 0 32 32">
  <path fill="#4D97FF" d="M32,16.0004445 C32,24.8362455 24.8362455,32 15.9995555,32 C7.1619767,32 0,24.8362455 0,16.0004445 C0,7.1646435 7.1619767,0 15.9995555,0 C24.8362455,0 32,7.1646435 32,16.0004445 Z M22.347825,9.2628761 L13.7854409,17.8245134 L9.6200513,13.588676 C8.734916,12.6885706 7.2876924,12.676435 6.387587,13.5615704 C5.4874817,14.4467057 5.4753461,15.8939293 6.3604815,16.7940347 L12.1419754,22.6733091 C13.0323362,23.5787283 14.4900181,23.5848716 15.3879788,22.6869892 L25.5802619,12.495595 C26.4729526,11.6029822 26.4730157,10.1557077 25.5804029,9.2630171 C24.6877901,8.3703264 23.2405156,8.3702633 22.347825,9.2628761 Z"/>
</svg>
