<svg xmlns="http://www.w3.org/2000/svg" width="36" height="30" viewBox="0 0 36 30">
  <path fill="#FF2741" fill-rule="evenodd" d="M31,6 L29,6 L28.8,6 C28.2,3 25.7,0 22.7,0 L13.2,0 C10.2,0 7.7,3 7.1,6 L7,6 L5,6 C2.2,6 0,8.2 0,11 L0,25 C0,27.8 2.2,30 5,30 L31,30 C33.8,30 36,27.8 36,25 L36,11 C36,8.2 33.8,6 31,6 Z M18,24 C14.7,24 12,21.3 12,18 C12,14.7 14.7,12 18,12 C21.3,12 24,14.7 24,18 C24,21.3 21.3,24 18,24 Z M30,13 C28.9,13 28,12.1 28,11 C28,9.9 28.9,9 30,9 C31.1,9 32,9.9 32,11 C32,12.1 31.1,13 30,13 Z"/>
</svg>
