<svg xmlns="http://www.w3.org/2000/svg" width="37" height="34" viewBox="0 0 37 34">
  <path fill="#999" d="M18,24 C14.6862915,24 12,21.3137085 12,18 C12,14.6862915 14.6862915,12 18,12 C21.3137085,12 24,14.6862915 24,18 C24,19.5912989 23.367859,21.1174224 22.2426407,22.2426407 C21.1174224,23.367859 19.5912989,24 18,24 Z M18,14 C15.790861,14 14,15.790861 14,18 C14,20.209139 15.790861,22 18,22 C20.209139,22 22,20.209139 22,18 C22,15.790861 20.209139,14 18,14 Z M13.21,35 C13.1172382,35.0146074 13.0227618,35.0146074 12.93,35 C10.6321195,34.3354936 8.4878668,33.2242881 6.62,31.73 C6.2491506,31.4312919 6.1403753,30.9125172 6.36,30.49 C6.8415289,29.7162378 7.1137556,28.8306395 7.15,27.92 C7.15,23.79 3.25,23.34 1.57,23.34 C1.15770718,23.3387821 0.78842426,23.0846519 0.64,22.7 C-0.1572438,19.8407203 -0.20888458,16.8248984 0.49,13.94 C0.63299392,13.5146291 1.04184764,13.2366085 1.49,13.26 C4.97,13.26 7.05,11.55 7.05,8.67 C7.0334922,7.7034493 6.7075403,6.7676518 6.12,6 C5.8082462,5.5730043 5.882732,4.977118 6.29,4.64 C8.2499562,2.97435126 10.5350532,1.73474573 13,1 C13.464389,0.86821958 13.9566279,1.08699244 14.17,1.52 C14.928493,3.14650815 16.5653686,4.1817636 18.36,4.17 C20.1829448,4.3206753 21.9110551,3.33545375 22.71,1.69 C22.9389825,1.25828196 23.4464485,1.05529554 23.91,1.21 C26.1480092,1.97015331 28.2165257,3.1589559 30,4.71 C30.3669154,5.0393018 30.4390776,5.5868852 30.17,6 C29.636368,6.758239 29.3499801,7.6628056 29.35,8.59 C29.35,11.53 31.35,13.21 34.72,13.21 C35.1820038,13.192918 35.5954894,13.4947625 35.72,13.94 C36.1721297,16.6747721 36.1721297,19.4652279 35.72,22.2 C35.6152458,22.6651526 35.1966599,22.9916496 34.72,22.98 C33.13,22.98 29.43,23.4 29.43,27.32 C29.4239232,28.2764228 29.66873,29.2177223 30.14,30.05 C30.4160951,30.4720967 30.3346362,31.0337345 29.95,31.36 C28.1820168,32.8468187 26.1452043,33.9806443 23.95,34.7 C23.4805447,34.8660762 22.9604319,34.6614417 22.73,34.22 C21.8953625,32.6506929 20.2573964,31.6756212 18.48,31.69 C16.6400008,31.6998184 14.9619524,32.7437655 14.14,34.39 C13.9820949,34.7628713 13.6149114,35.0037121 13.21,35 Z M8.51,30.61 C9.7995807,31.5522295 11.2262072,32.2908376 12.74,32.8 C14.0261973,30.9038454 16.1589374,29.7571707 18.45,29.73 C20.652771,29.7235068 22.7218129,30.7859877 24,32.58 C25.4351414,32.0448806 26.783103,31.3001318 28,30.37 C27.5999843,29.4202695 27.3926375,28.4005308 27.39,27.37 C27.39,23.77 29.89,21.37 33.83,21.06 C34.0571761,19.1245948 34.0839848,17.17091 33.91,15.23 C29.12,14.89 27.38,11.67 27.38,8.64 C27.3799222,7.6219047 27.6197353,6.6181158 28.08,5.71 C26.837819,4.7534984 25.4635249,3.98214218 24,3.42 C22.7416351,5.2879595 20.5879483,6.3495825 18.34,6.21 C16.0987255,6.2140635 14.0071215,5.0855002 12.78,3.21 C11.1614132,3.77859863 9.6376663,4.5876678 8.26,5.61 C8.7476949,6.5351056 9.0049752,7.5642269 9.01,8.61 C9.01,12.38 6.37,14.9 2.23,15.18 C1.90524439,17.2131603 1.93569595,19.2872501 2.32,21.31 C5.63,21.54 9.16,23.31 9.16,27.86 C9.1502622,28.813565 8.9282176,29.7529848 8.51,30.61 Z" transform="translate(0 -1)"/>
</svg>
