<svg xmlns="http://www.w3.org/2000/svg" xmlns:xlink="http://www.w3.org/1999/xlink" width="48" height="48" viewBox="0 0 48 48">
  <defs>
    <rect id="微信支付-a" width="48" height="48" x="0" y="0"/>
  </defs>
  <g fill="none" fill-rule="evenodd">
    <mask id="微信支付-b" fill="#fff">
      <use xlink:href="#微信支付-a"/>
    </mask>
    <path fill="#56D345" d="M30.8,18.1 C31.2,18.1 31.7,18.1 32.1,18.2 C30.9,13 25.1,9.1 18.5,9.1 C11.1,9 5,13.9 5,20.1 C5,23.7 7,26.6 10.4,28.9 L9,32.8 L13.7,30.5 C15.4,30.8 16.7,31.2 18.4,31.2 C18.8,31.2 19.2,31.2 19.7,31.1 C19.4,30.2 19.3,29.3 19.3,28.4 C19.3,22.7 24.4,18.1 30.8,18.1 L30.8,18.1 Z M23.4,14.3 C24.6,14.3 25.5,15.2 25.5,16.3 C25.5,17.4 24.6,18.3 23.4,18.3 C22.2,18.3 21.3,17.4 21.3,16.3 C21.4,15.2 22.3,14.3 23.4,14.3 L23.4,14.3 Z M14,18.3 C12.8,18.3 11.9,17.4 11.9,16.3 C11.9,15.2 12.8,14.3 14,14.3 C15.2,14.3 16.1,15.2 16.1,16.3 C16.1,17.4 15.2,18.3 14,18.3 L14,18.3 Z M43,28.3 C43,23.1 37.6,18.9 31.5,18.9 C25.1,18.9 20,23.1 20,28.3 C20,33.5 25.1,37.7 31.5,37.7 C32.8,37.7 34.2,37.4 35.5,37 L39.2,39 L38.2,35.7 C41,33.8 43,31.2 43,28.3 L43,28.3 Z M28,26.8 C27.2,26.8 26.5,26.2 26.5,25.4 C26.5,24.6 27.2,24 28,24 C28.8,24 29.5,24.6 29.5,25.4 C29.5,26.2 28.8,26.8 28,26.8 L28,26.8 Z M35.4,26.9 C34.6,26.9 33.9,26.3 33.9,25.5 C33.9,24.7 34.6,24.1 35.4,24.1 C36.2,24.1 36.9,24.7 36.9,25.5 C36.9,26.2 36.3,26.9 35.4,26.9 L35.4,26.9 Z" mask="url(#微信支付-b)"/>
  </g>
</svg>
