<svg xmlns="http://www.w3.org/2000/svg" xmlns:xlink="http://www.w3.org/1999/xlink" width="48" height="48" viewBox="0 0 48 48">
  <defs>
    <rect id="支付宝支付-a" width="48" height="48" x="0" y="0"/>
  </defs>
  <g fill="none" fill-rule="evenodd">
    <mask id="支付宝支付-b" fill="#fff">
      <use xlink:href="#支付宝支付-a"/>
    </mask>
    <path fill="#4D97FF" d="M16.9,31.7 C16.4,31.7 13.1,31.5 13.2,28.6 C13.2,27.7 14.2,25.3 18,25.7 C20,25.9 22.3,27.1 22.7,27.3 C23.1,27.5 23.6,27.7 24.1,28 C24,28.1 24,28.1 23.9,28.2 C23.8,28.3 22.1,29.9 21.1,30.5 C19.9,31.1 18.6,31.7 16.9,31.7 L16.9,31.7 Z M39.7,30.6 C36.1,30.2 28.1,27.5 28.3,27.4 C29,26.5 29.6,25.6 30,24.7 C30.4,23.8 30.8,23 31,22.4 C31.3,21.7 31.4,20.9 31.6,20.2 L31.6,20.2 L31.6,20.2 C31.6,20.2 31.6,20.2 31.6,20.2 L26,20.2 L26,17.6 L33,17.6 L33,16.5 L26,16.5 L26,13.8 L24.2,13.8 C23.9,13.8 23.7,13.8 23.4,13.9 C23.2,13.9 23,14 22.9,14.1 C22.7,14.2 22.7,14.3 22.7,14.4 L22.7,16.5 L15.9,16.5 L15.9,17.6 L22.7,17.6 L22.7,20.2 L17.8,20.2 L17.8,21.3 L28,21.3 C28,21.4 27.9,21.7 27.8,22 C27.7,22.3 27.5,22.7 27.3,23.2 C27.1,23.7 26.8,24.2 26.5,24.7 C26.2,25.3 25.8,25.9 25.3,26.4 C25.1,26.3 24.9,26.2 24.7,26.2 C24.5,26.1 24.3,26 24.1,26 C23.6,25.8 23.1,25.6 22.6,25.4 C22.1,25.2 21.5,25 20.9,24.8 C20.3,24.6 19.7,24.4 19,24.3 C18.3,24.2 17.7,24.1 17,24 C16.3,24 15.6,24.1 14.9,24.3 C14.2,24.5 13.6,24.8 13,25.2 C12.4,25.6 11.9,26.1 11.6,26.7 C11.2,27.3 11,27.9 11,28.6 C11,29.4 11.2,30.1 11.5,30.7 C11.8,31.3 12.3,31.8 12.9,32.2 C13.5,32.6 14.1,32.9 14.9,33.1 C15.7,33.3 16.5,33.4 17.4,33.4 L17.8,33.4 C17.8,33.4 17.9,33.4 17.9,33.4 C18.2,33.4 18.7,33.3 19.2,33.3 C19.7,33.2 20.3,33.1 21,32.9 C21.8,32.7 22.5,32.3 23.2,31.9 C24.1,31.4 26.3,29.6 26.3,29.6 C31.4,32.7 37.8,34.1 37.8,34.1 C37.5,34.5 37.5,34.5 37.2,34.9 C34,38.6 29.3,41 24,41 C14.6,41 7,33.4 7,24 C7,14.6 14.6,7 24,7 C33.4,7 41,14.6 41,24 C41,26.4 40.6,28.4 39.7,30.6 L39.7,30.6 Z" mask="url(#支付宝支付-b)"/>
  </g>
</svg>
