<svg xmlns="http://www.w3.org/2000/svg" xmlns:xlink="http://www.w3.org/1999/xlink" width="48" height="48" viewBox="0 0 48 48">
  <defs>
    <rect id="icon-star-fill-a" width="48" height="48" x="0" y="0"/>
  </defs>
  <g fill="none" fill-rule="evenodd">
    <mask id="icon-star-fill-b" fill="#fff">
      <use xlink:href="#icon-star-fill-a"/>
    </mask>
    <path fill="#999" d="M14.9101741,41 C14.2131741,41 13.5281741,40.777 12.9461741,40.342 C11.9741741,39.673 11.4721741,38.521 11.6421741,37.293 L12.5021741,29.14 L6.86817408,22.971 C6.05017408,22.114 5.78017408,20.851 6.18717408,19.697 C6.50417408,18.649 7.41417408,17.819 8.60217408,17.542 L16.8921741,15.819 L21.1311741,8.635 C21.6631741,7.646 22.7721741,7 24.0001741,7 C25.1911741,7 26.2631741,7.611 26.8671741,8.634 L31.0781741,15.812 L39.3511741,17.532 C40.5371741,17.808 41.4231741,18.596 41.8111741,19.699 C42.2131741,20.813 41.9661741,22.033 41.1471741,22.954 L41.1321741,22.97 L35.4961741,29.122 L36.3651741,37.353 C36.4771741,38.583 35.9671741,39.707 35.0011741,40.379 C34.0481741,41.058 32.7771741,41.194 31.6831741,40.689 L23.9861741,37.348 L16.2811741,40.706 C15.8361741,40.902 15.3701741,41 14.9101741,41" mask="url(#icon-star-fill-b)"/>
  </g>
</svg>
