<svg xmlns="http://www.w3.org/2000/svg" width="36" height="34" viewBox="0 0 36 34">
  <path fill="#999" fill-rule="evenodd" d="M17.9999612,2.83332546 C13.835919,2.83332546 10.4289754,5.6666509 10.5236127,9.2555298 C10.5236127,12.7499646 14.5930176,17.7555062 16.8643134,20.4943875 L17.053588,20.6832759 C17.3375,21.0610526 17.5267746,21.3443852 17.7160493,21.5332735 L17.9053239,21.7221619 L18.0945986,21.7221619 L18.1892359,21.7221619 L18.3785105,21.4388293 C18.5677852,21.249941 18.7570598,20.9666084 18.9463345,20.6832759 L19.0409718,20.5888317 C21.1229929,18.133283 25.5709471,12.8444088 25.5709471,9.2555298 C25.5709471,5.6666509 22.1640035,2.83332546 17.9999612,2.83332546 Z M14.7822922,22.3832712 L14.5930176,22.288827 C11.9431725,19.0777248 7.5898557,13.6944064 7.5898557,9.2555298 C7.5898557,4.155544 12.2270845,0 17.9999612,0 C23.772838,0 28.4100668,4.155544 28.4100668,9.2555298 C28.4100668,13.7888506 23.772838,19.3610573 21.2176302,22.3832712 C21.0283556,22.6666037 20.7444436,22.9499363 20.555169,23.2332688 L20.3658943,23.4221572 C19.8927077,24.0832664 19.0409718,24.5554873 18.0945986,24.5554873 L17.9999612,24.5554873 C17.1482253,24.5554873 16.2964894,24.1777106 15.7286655,23.5166013 L15.5393908,23.327713 C15.2554789,23.0443804 15.0662042,22.7610479 14.7822922,22.3832712 Z M16.1072148,9.4444182 C16.1072148,10.4833042 16.9589507,11.3333019 17.9999612,11.3333019 C19.0409718,11.3333019 19.8927077,10.4833042 19.8927077,9.4444182 C19.8927077,8.4055322 19.0409718,7.5555346 17.9999612,7.5555346 C16.9589507,7.5555346 16.1072148,8.4055322 16.1072148,9.4444182 Z M22.7318274,9.4444182 C22.7318274,12.0888553 20.6498063,14.1666273 17.9999612,14.1666273 C15.3501162,14.1666273 13.2680951,12.0888553 13.2680951,9.4444182 C13.2680951,6.7999811 15.3501162,4.7222091 17.9999612,4.7222091 C20.6498063,4.7222091 22.7318274,6.7999811 22.7318274,9.4444182 Z M35.69733,29.3722351 C36.1705166,30.4111211 36.0749329,31.5444513 35.5080554,32.4888931 C34.8455941,33.4333349 33.8045835,34 32.5742983,34 L3.4260027,34 C2.1957175,34 1.15470694,33.4333349 0.49224567,32.4888931 C-0.07557827,31.5444513 -0.17021559,30.4111211 0.30297103,29.3722351 L4.18310129,20.8722587 C4.75092523,19.6444843 5.9812104,18.8889309 7.306133,18.8889309 L9.0096048,18.8889309 C9.7667034,18.8889309 10.4291646,19.5500401 10.4291646,20.3055936 C10.4291646,21.0611471 9.7667034,21.7222563 9.0096048,21.7222563 L7.306133,21.7222563 C7.022221,21.7222563 6.8329463,21.8167005 6.738309,22.0055889 L2.85817876,30.5055653 C2.76354144,30.6000094 2.76354144,30.6944536 2.85817876,30.883342 C2.95281609,30.9777862 3.14209073,31.1666745 3.4260027,31.1666745 L32.5742983,31.1666745 C32.9528476,31.1666745 33.1421223,30.9777862 33.1421223,30.883342 C33.2358132,30.6944536 33.1421223,30.5055653 33.1421223,30.5055653 L29.261992,22.0055889 C29.1673547,21.8167005 28.9771337,21.7222563 28.6941681,21.7222563 L26.9906963,21.7222563 C26.2335977,21.7222563 25.5711364,21.0611471 25.5711364,20.3055936 C25.5711364,19.5500401 26.2335977,18.8889309 26.9906963,18.8889309 L28.6941681,18.8889309 C30.0190906,18.8889309 31.2493758,19.6444843 31.8162534,20.8722587 L35.69733,29.3722351 Z"/>
</svg>
