<svg xmlns="http://www.w3.org/2000/svg" xmlns:xlink="http://www.w3.org/1999/xlink" width="48" height="48" viewBox="0 0 48 48">
  <defs>
    <path id="单选选中3px-a" d="M24,40 C15.1384615,40 8,32.8615385 8,24 C8,15.1384615 15.1384615,8 24,8 C32.8615385,8 40,15.1384615 40,24 C40,32.8615385 32.8615385,40 24,40 Z M24,10.4615385 C16.4923077,10.4615385 10.4615385,16.4923077 10.4615385,24 C10.4615385,31.5076923 16.4923077,37.5384615 24,37.5384615 C31.5076923,37.5384615 37.5384615,31.5076923 37.5384615,24 C37.5384615,16.4923077 31.5076923,10.4615385 24,10.4615385 Z M24,15 C28.9705627,15 33,19.0294373 33,24 C33,28.9705627 28.9705627,33 24,33 C19.0294373,33 15,28.9705627 15,24 C15,19.0294373 19.0294373,15 24,15 Z"/>
  </defs>
  <use fill="#4D97FF" fill-rule="evenodd" xlink:href="#单选选中3px-a"/>
</svg>
