<svg xmlns="http://www.w3.org/2000/svg" width="32" height="32" viewBox="0 0 32 32">
  <path fill="#4D97FF" fill-rule="evenodd" d="M16,32 C7.1384615,32 0,24.8615385 0,16 C0,7.1384615 7.1384615,0 16,0 C24.8615385,0 32,7.1384615 32,16 C32,24.8615385 24.8615385,32 16,32 Z M16,2.4615385 C8.4923077,2.4615385 2.4615385,8.4923077 2.4615385,16 C2.4615385,23.5076923 8.4923077,29.5384615 16,29.5384615 C23.5076923,29.5384615 29.5384615,23.5076923 29.5384615,16 C29.5384615,8.4923077 23.5076923,2.4615385 16,2.4615385 Z M16,7 C20.9705627,7 25,11.0294373 25,16 C25,20.9705627 20.9705627,25 16,25 C11.0294373,25 7,20.9705627 7,16 C7,11.0294373 11.0294373,7 16,7 Z"/>
</svg>
