<svg xmlns="http://www.w3.org/2000/svg" xmlns:xlink="http://www.w3.org/1999/xlink" width="48" height="48" viewBox="0 0 48 48">
  <defs>
    <path id="扫码3px-a" d="M38.5,22.5 C39.3,22.5 40,23.2 40,24 C40,24.8 39.3,25.5 38.5,25.5 L9.5,25.5 C8.7,25.5 8,24.8 8,24 C8,23.2 8.7,22.5 9.5,22.5 L38.5,22.5 Z M9.5,18 C8.7,18 8,17.3 8,16.5 L8,12.9 C8,10.2 10.2,8 12.9,8 L16.5,8 C17.3,8 18,8.7 18,9.5 C18,10.3 17.3,11 16.5,11 L12.9,11 C11.9,11 11,11.8 11,12.9 L11,16.5 C11,17.3 10.3,18 9.5,18 Z M16.5,37 C17.3,37 18,37.7 18,38.5 C18,39.3 17.3,40 16.5,40 L12.9,40 C10.2,40 8,37.8 8,35.1 L8,31.5 C8,30.7 8.7,30 9.5,30 C10.3,30 11,30.7 11,31.5 L11,35.1 C11,36.1 11.8,37 12.9,37 L16.5,37 Z M38.5,30 C39.3,30 40,30.7 40,31.5 L40,35.1 C40,37.8 37.8,40 35.1,40 L31.5,40 C30.7,40 30,39.3 30,38.5 C30,37.7 30.7,37 31.5,37 L35.1,37 C36.1,37 37,36.2 37,35.1 L37,31.5 C37,30.7 37.7,30 38.5,30 Z M35.1,8 C37.8,8 40,10.2 40,12.9 L40,16.5 C40,17.3 39.3,18 38.5,18 C37.7,18 37,17.3 37,16.5 L37,12.9 C37,11.9 36.2,11 35.1,11 L31.5,11 C30.7,11 30,10.3 30,9.5 C30,8.7 30.7,8 31.5,8 L35.1,8 Z"/>
  </defs>
  <use fill="#999" fill-rule="evenodd" xlink:href="#扫码3px-a"/>
</svg>
