<?xml version="1.0" encoding="utf-8"?>
<!-- Generator: Adobe Illustrator 21.0.0, SVG Export Plug-In . SVG Version: 6.00 Build 0)  -->
<svg version="1.1" id="线形" xmlns="http://www.w3.org/2000/svg" xmlns:xlink="http://www.w3.org/1999/xlink" x="0px" y="0px"
	 viewBox="0 0 48 48" style="enable-background:new 0 0 48 48;" xml:space="preserve">
<style type="text/css">
	.st0{fill:none;}
	.st1{fill:#040000;}
	.st2{fill:#030000;}
	.st3{fill-rule:evenodd;clip-rule:evenodd;}
</style>
<g>
	<path d="M42.5,20.2L24.9,6.3c-0.5-0.4-1.3-0.4-1.9,0L5.5,20.2c-0.5,0.4-0.6,1-0.4,1.6c0.2,0.6,0.8,1,1.4,1h2.9h1.9h0v14.9
		c0,2.4,2,4.3,4.4,4.3h8.2h1.5h0.4c0.6-0.2,1.1-0.7,1.1-1.4V29c0-0.8-0.7-1.4-1.5-1.4h-2.9c-0.8,0-1.5,0.6-1.5,1.4v2.9h0
		c0,0.8-0.7,1.4-1.5,1.4s-1.4-0.6-1.5-1.4h0V29c0-2.4,2-4.3,4.4-4.3h2.9c2.4,0,4.4,1.9,4.4,4.3v11.6c0,0.4-0.1,1-0.2,1.4h2.7
		c2.4,0,4.4-1.9,4.4-4.3V22.7h0h2.9h1.9c0.6,0,1.2-0.4,1.4-1C43.1,21.2,42.9,20.6,42.5,20.2z"/>
	<rect class="st0" width="48" height="48"/>
</g>
</svg>
