<?xml version="1.0" encoding="UTF-8"?>
<svg width="34px" height="34px" viewBox="0 0 34 34" version="1.1" xmlns="http://www.w3.org/2000/svg" xmlns:xlink="http://www.w3.org/1999/xlink">
    <!-- Generator: Sketch 53.2 (72643) - https://sketchapp.com -->
    <title>形状</title>
    <desc>Created with Sketch.</desc>
    <g id="04我的农场" stroke="none" stroke-width="1" fill="none" fill-rule="evenodd">
        <g id="04-12-04物流详情" transform="translate(-654.000000, -1310.000000)" fill="#333333">
            <g id="编组-5" transform="translate(0.000000, 1284.000000)">
                <g id="编组-2" transform="translate(615.000000, 19.000000)">
                    <g id="形状结合" transform="translate(32.000000, 0.000000)">
                        <path d="M38.0007373,21.06 C37.5007373,13.23 31.4207373,7 24.0007373,7 C16.5807373,7 10.5007373,13.23 10.0007373,21.06 C8.22806828,21.4174496 6.96505739,22.9920032 7.00073725,24.8 L7.00073725,32 C7.00073725,35.86 9.80073725,39 13.2307373,39 L22.2307373,39 C22.7177736,40.3775467 24.1264035,41.2038721 25.5664703,40.9567957 C27.0065371,40.7097193 28.0591644,39.4611089 28.0591644,38 C28.0591644,36.5388911 27.0065371,35.2902807 25.5664703,35.0432043 C24.1264035,34.7961279 22.7177736,35.6224533 22.2307373,37 L13.2307373,37 C10.9007373,37 9.00073725,34.76 9.00073725,32 L9.00073725,24.8 C8.95514631,23.8607778 9.67226389,23.0590314 10.6107373,23 L11.3907373,23 C12.3292106,23.0590314 13.0463282,23.8607778 13.0007373,24.8 L13.0007373,31.66 C13.0007373,32.2122847 13.4484525,32.66 14.0007373,32.66 C14.553022,32.66 15.0007373,32.2122847 15.0007373,31.66 L15.0007373,24.8 C15.0275098,22.9971237 13.7674234,21.4304162 12.0007373,21.07 C12.4907373,14.34 17.6707373,9 24.0007373,9 C30.3307373,9 35.5107373,14.34 36.0007373,21.07 C34.2095522,21.4787545 32.9546896,23.0933445 33.0007373,24.93 L33.0007373,32.07 C32.9160687,34.150761 34.5302847,35.9080653 36.6107373,36 L37.3907373,36 C39.4711898,35.9080653 41.0854058,34.150761 41.0007373,32.07 L41.0007373,24.93 C41.05959,23.0870371 39.8001924,21.4624142 38.0007373,21.06 Z M25.0007373,37 C25.553022,37 26.0007373,37.4477153 26.0007373,38 C26.0007373,38.5522847 25.553022,39 25.0007373,39 C24.4484525,39 24.0007373,38.5522847 24.0007373,38 C24.0007373,37.4477153 24.4484525,37 25.0007373,37 Z M39.0007373,32.07 C39.0819059,33.0452836 38.3647669,33.9049596 37.3907373,34 L36.6107373,34 C35.6367076,33.9049596 34.9195686,33.0452836 35.0007373,32.07 L35.0007373,24.93 C34.9195686,23.9547164 35.6367076,23.0950404 36.6107373,23 L37.3907373,23 C38.3647669,23.0950404 39.0819059,23.9547164 39.0007373,24.93 L39.0007373,32.07 Z" id="形状"></path>
                    </g>
                </g>
            </g>
        </g>
    </g>
</svg>