<svg xmlns="http://www.w3.org/2000/svg" xmlns:xlink="http://www.w3.org/1999/xlink" width="48" height="48" viewBox="0 0 48 48">
  <defs>
    <rect id="icon-address-3px-a" width="48" height="48" x="0" y="0"/>
  </defs>
  <g fill="none" fill-rule="evenodd">
    <mask id="icon-address-3px-b" fill="#fff">
      <use xlink:href="#icon-address-3px-a"/>
    </mask>
    <path fill="#999" d="M23.9956469,16.9979202 C22.8926469,16.9979202 21.9956469,17.8949202 21.9956469,18.9989202 C21.9956469,20.1019202 22.8926469,20.9989202 23.9956469,20.9989202 C25.0986469,20.9989202 25.9966469,20.1019202 25.9966469,18.9989202 C25.9966469,17.8949202 25.0986469,16.9979202 23.9956469,16.9979202 Z M23.9956469,23.9989202 C21.2386469,23.9989202 18.9946469,21.7559202 18.9946469,18.9989202 C18.9946469,16.2409202 21.2386469,13.9979202 23.9956469,13.9979202 C26.7536469,13.9979202 28.9966469,16.2409202 28.9966469,18.9989202 C28.9966469,21.7559202 26.7536469,23.9989202 23.9956469,23.9989202 Z M23.8686469,8.99792023 C22.6446469,8.99792023 21.4316469,9.15592023 20.2656469,9.46692023 C16.6916469,10.4199202 13.9246469,12.9469202 12.6716469,16.4009202 C11.4186469,19.8579202 11.9376469,23.7189202 14.0626469,26.7289202 L21.8476469,37.7629202 C22.4146469,38.5659202 23.3206469,39.0469202 24.3406469,38.9989202 C25.3536469,38.9809202 26.2446469,38.5019202 26.7806469,37.6829202 L34.1476469,26.4359202 C35.9946469,23.6169202 36.4866469,20.1639202 35.4986469,16.9609202 C34.5286469,13.8239202 32.2226469,11.3019202 29.1696469,10.0409202 C27.4926469,9.34892023 25.7106469,8.99792023 23.8686469,8.99792023 Z M24.2856469,41.9999202 C22.3296469,41.9999202 20.5086469,41.0669202 19.3946469,39.4919202 L11.6106469,28.4579202 C8.92164692,24.6459202 8.26464692,19.7579202 9.85064692,15.3779202 C11.4416469,10.9889202 14.9566469,7.77792023 19.4916469,6.56792023 C23.0476469,5.61892023 26.9166469,5.86392023 30.3136469,7.26792023 C34.1966469,8.87092023 37.1306469,12.0809202 38.3656469,16.0759202 C39.6186469,20.1359202 38.9966469,24.5109202 36.6576469,28.0809202 L29.2906469,39.3269202 C28.2166469,40.9659202 26.3856469,41.9649202 24.3906469,41.9989202 C24.3556469,41.9989202 24.3206469,41.9999202 24.2856469,41.9999202 Z" mask="url(#icon-address-3px-b)"/>
  </g>
</svg>
