<svg xmlns="http://www.w3.org/2000/svg" width="39" height="34" viewBox="0 0 39 34">
  <path fill="#999" d="M37.9061224,16.2938776 L33.1061224,7.2816327 C32.8122449,6.7918367 32.322449,6.4979592 31.8326531,6.4979592 L24.3877551,6.4979592 L24.3877551,6.2040816 C24.3877551,3.2653061 21.9387755,0.81632653 19,0.81632653 L6.3632653,0.81632653 C3.4244898,0.81632653 0.9755102,3.2653061 0.9755102,6.2040816 L0.9755102,22.8571429 C0.9755102,25.6979592 3.13061224,28.0489796 5.9714286,28.244898 C6.4612245,30.9877551 8.8122449,33.1428571 11.7510204,33.1428571 C14.6897959,33.1428571 17.0408163,30.9877551 17.5306122,28.244898 L23.5061224,28.244898 C23.9959184,30.9877551 26.3469388,33.1428571 29.2857143,33.1428571 C32.322449,33.1428571 34.8693878,30.7918367 35.1632653,27.755102 C36.9265306,26.8734694 38.1020408,25.0122449 38.1020408,22.955102 L38.1020408,18.7428571 C38.1020408,18.644898 38.1020408,18.644898 38.1020408,18.5469388 C38.1020408,18.4489796 38.1020408,18.4489796 38.1020408,18.3510204 L38.1020408,16.7836735 C38.1020408,16.6857143 38.0040816,16.4897959 37.9061224,16.2938776 Z M34.3795918,15.9020408 L28.9918367,15.9020408 C28.6979592,15.9020408 28.5020408,15.7061224 28.5020408,15.5102041 L28.5020408,13.6489796 C28.5020408,13.4530612 28.6979592,13.2571429 28.9918367,13.2571429 L32.9102041,13.2571429 L34.3795918,15.9020408 Z M3.91428571,22.8571429 L3.91428571,6.2040816 C3.91428571,4.8326531 4.99183673,3.755102 6.3632653,3.755102 L19,3.755102 C20.3714286,3.755102 21.4489796,4.8326531 21.4489796,6.2040816 L21.4489796,25.3061224 L17.2367347,25.3061224 C16.4530612,23.0530612 14.2979592,21.3877551 11.6530612,21.3877551 C9.1061224,21.3877551 6.9510204,23.0530612 6.1673469,25.3061224 C4.89387755,25.2081633 3.91428571,24.1306122 3.91428571,22.8571429 Z M11.7510204,30.2040816 C10.0857143,30.2040816 8.8122449,28.9306122 8.8122449,27.2653061 C8.8122449,25.6 10.0857143,24.3265306 11.7510204,24.3265306 C13.4163265,24.3265306 14.6897959,25.6 14.6897959,27.2653061 C14.6897959,28.9306122 13.3183673,30.2040816 11.7510204,30.2040816 Z M29.2857143,30.2040816 C27.6204082,30.2040816 26.3469388,28.9306122 26.3469388,27.2653061 C26.3469388,25.6 27.6204082,24.3265306 29.2857143,24.3265306 C30.9510204,24.3265306 32.2244898,25.6 32.2244898,27.2653061 C32.2244898,28.9306122 30.9510204,30.2040816 29.2857143,30.2040816 Z M34.5755102,24.6204082 C33.5959184,22.6612245 31.6367347,21.3877551 29.2857143,21.3877551 C27.2285714,21.3877551 25.4653061,22.4653061 24.3877551,24.0326531 L24.3877551,9.4367347 L30.9510204,9.4367347 L31.4408163,10.2204082 L29.0897959,10.2204082 C27.2285714,10.2204082 25.6612245,11.6897959 25.6612245,13.5510204 L25.6612245,15.4122449 C25.6612245,17.2734694 27.2285714,18.7428571 29.0897959,18.7428571 L35.1632653,18.7428571 L35.1632653,22.955102 C35.1632653,23.6408163 34.9673469,24.2285714 34.5755102,24.6204082 Z"/>
</svg>
