<svg xmlns="http://www.w3.org/2000/svg" xmlns:xlink="http://www.w3.org/1999/xlink" width="48" height="48" viewBox="0 0 48 48">
  <defs>
    <rect id="物流2px-a" width="48" height="48" x="0" y="0"/>
  </defs>
  <g fill="none" fill-rule="evenodd">
    <mask id="物流2px-b" fill="#fff">
      <use xlink:href="#物流2px-a"/>
    </mask>
    <path fill="#999" d="M41.88,24.14 L37.2,15.52 C37.0241028,15.1985196 36.6864539,14.9989998 36.32,15 L29,15 L29,12.93 C29.0133766,12.1661432 28.7227047,11.4282699 28.1919522,10.8787629 C27.6611997,10.3292559 26.9338608,10.0131463 26.17,10 L8.83,10 C8.06613923,10.0131463 7.33880027,10.3292559 6.8080478,10.8787629 C6.27729532,11.4282699 5.98662345,12.1661432 6,12.93 L6,32.07 C5.98662345,32.8338568 6.27729532,33.5717301 6.8080478,34.1212371 C7.33880027,34.6707441 8.06613923,34.9868537 8.83,35 L11.28,35 C11.9066915,36.794264 13.5994408,37.9960597 15.5,37.9960597 C17.4005592,37.9960597 19.0933085,36.794264 19.72,35 L30,35 C30.0863563,35.0103734 30.1736437,35.0103734 30.26,35 C30.8780208,36.8091651 32.5781873,38.0250087 34.49,38.0250087 C36.4018127,38.0250087 38.1019792,36.8091651 38.72,35 L39.16,35 C40.7680995,34.9456256 42.0337561,33.6086644 42,32 L42,24.61 C41.9991798,24.4458591 41.9579674,24.2844437 41.88,24.14 Z M39.53,24 L33.83,24 C33.4131724,24.0294579 33.0471758,23.7251957 33,23.31 L33,21.69 C33.0471758,21.2748043 33.4131724,20.9705421 33.83,21 L37.9,21 L39.53,24 Z M8,32.07 L8,12.93 C7.97714081,12.4456626 8.34619041,12.0321492 8.83,12 L26.17,12 C26.6538096,12.0321492 27.0228592,12.4456626 27,12.93 L27,33 L20,33 C19.737277,30.741231 17.8239967,29.0375906 15.55,29.0375906 C13.2760033,29.0375906 11.362723,30.741231 11.1,33 L8.83,33 C8.34619041,32.9678508 7.97714081,32.5543374 8,32.07 L8,32.07 Z M15.5,36 C14.1192881,36 13,34.8807119 13,33.5 C13,32.1192881 14.1192881,31 15.5,31 C16.8807119,31 18,32.1192881 18,33.5 C18,34.8807119 16.8807119,36 15.5,36 Z M34.5,36 C33.1192881,36 32,34.8807119 32,33.5 C32,32.1192881 33.1192881,31 34.5,31 C35.8807119,31 37,32.1192881 37,33.5 C37,34.8807119 35.8807119,36 34.5,36 Z M39.16,33 L39,33 C38.7821898,30.7052218 36.8550919,28.9523742 34.55,28.9523742 C32.2449081,28.9523742 30.3178102,30.7052218 30.1,33 L29,33 L29,17 L35.73,17 L36.81,19 L33.81,19 C32.2953743,18.9774987 31.0435814,20.1758342 31,21.69 L31,23.31 C31.0436068,24.8321034 32.307643,26.0336078 33.83,26 L40.000084,26 L40.000084,32 C40.006376,32.4953928 39.6490578,32.9207716 39.16,33 Z" mask="url(#物流2px-b)"/>
  </g>
</svg>
