<svg xmlns="http://www.w3.org/2000/svg" width="32" height="32" viewBox="0 0 32 32">
  <path fill="#999" fill-rule="evenodd" d="M30.8105493,15.0062112 C31.4049651,15.0062112 31.8012422,15.4037267 31.8012422,16 C31.8012422,16.5962733 31.4049651,16.9937888 30.8105493,16.9937888 L1.0897622,16.9937888 C0.49534645,16.9937888 0.09906929,16.5962733 0.09906929,16 C0.09906929,15.4037267 0.49534645,15.0062112 1.0897622,15.0062112 L30.8105493,15.0062112 Z M1.0897622,10.4347826 C0.49534645,10.4347826 0.09906929,10.0372671 0.09906929,9.5403727 L0.09906929,2.9813665 C0.09906929,1.39130435 1.38697007,0.09937888 2.9720787,0 L9.5106519,0 C10.1050676,0 10.5013448,0.39751553 10.5013448,0.99378882 C10.5013448,1.59006211 10.1050676,1.98757764 9.5106519,1.98757764 L2.9720787,1.98757764 C2.4767323,1.98757764 2.0804551,2.3850932 2.0804551,2.8819876 L2.0804551,9.4409938 C2.0804551,10.0372671 1.68417794,10.4347826 1.0897622,10.4347826 Z M9.4115826,29.9130435 C10.0059983,29.9130435 10.4022755,30.310559 10.4022755,30.9068323 C10.4022755,31.5031056 10.0059983,31.9006211 9.4115826,31.9006211 L2.8730094,31.9006211 C1.28790078,31.9006211 0,30.6086957 0,29.0186335 L0,22.4596273 C0,21.863354 0.39627716,21.4658385 0.9906929,21.4658385 C1.58510865,21.4658385 1.98138581,21.863354 1.98138581,22.4596273 L1.98138581,29.0186335 C1.98138581,29.515528 2.377663,29.9130435 2.8730094,29.9130435 L9.4115826,29.9130435 Z M30.8105493,21.5652174 C31.4049651,21.5652174 31.8012422,21.9627329 31.8012422,22.5590062 L31.8012422,29.1180124 C31.8012422,30.7080745 30.5133415,32 28.9282328,32 L22.3896596,32 C21.7952439,32 21.3989667,31.6024845 21.3989667,31.0062112 C21.3989667,30.4099379 21.7952439,30.0124224 22.3896596,30.0124224 L28.9282328,30.0124224 C29.4235793,30.0124224 29.8198564,29.6149068 29.8198564,29.1180124 L29.8198564,22.5590062 C29.8198564,21.9627329 30.2161336,21.5652174 30.8105493,21.5652174 Z M28.9282328,0.09937888 C30.5133415,0.09937888 31.8012422,1.39130435 31.8012422,2.9813665 L31.8012422,9.5403727 C31.8012422,10.136646 31.4049651,10.5341615 30.8105493,10.5341615 C30.2161336,10.5341615 29.8198564,10.136646 29.8198564,9.5403727 L29.8198564,2.9813665 C29.8198564,2.484472 29.4235793,2.0869565 28.9282328,2.0869565 L22.3896596,2.0869565 C21.7952439,2.0869565 21.3989667,1.68944099 21.3989667,1.0931677 C21.3989667,0.49689441 21.7952439,0.09937888 22.3896596,0.09937888 L28.9282328,0.09937888 Z"/>
</svg>
