<svg xmlns="http://www.w3.org/2000/svg" xmlns:xlink="http://www.w3.org/1999/xlink" width="48" height="48" viewBox="0 0 48 48">
  <defs>
    <rect id="icon-camera-outline-a" width="48" height="48" x="0" y="0"/>
  </defs>
  <g fill="none" fill-rule="evenodd">
    <mask id="icon-camera-outline-b" fill="#fff">
      <use xlink:href="#icon-camera-outline-a"/>
    </mask>
    <path fill="#999" d="M34,18 C35.104,18 36,18.896 36,20 C36,21.104 35.104,22 34,22 C32.896,22 32,21.104 32,20 C32,18.896 32.896,18 34,18 Z M38,34.5 L38,18.617 C38,17.238 36.879,16.117 35.5,16.117 L32.611,16.117 C31.783,16.117 31.111,15.445 31.111,14.617 C31.111,12.656 29.826,11 28.306,11 L19.694,11 C18.174,11 16.889,12.656 16.889,14.617 C16.889,15.445 16.217,16.117 15.389,16.117 L12.5,16.117 C11.121,16.117 10,17.238 10,18.617 L10,34.5 C10,35.879 11.121,37 12.5,37 L35.5,37 C36.879,37 38,35.879 38,34.5 Z M35.5,13.117 C38.532,13.117 41,15.585 41,18.617 L41,34.5 C41,37.532 38.532,40 35.5,40 L12.5,40 C9.468,40 7,37.532 7,34.5 L7,18.617 C7,15.585 9.468,13.117 12.5,13.117 L14.045,13.117 C14.644,10.189 16.946,8 19.694,8 L28.306,8 C31.054,8 33.356,10.189 33.955,13.117 L35.5,13.117 Z M24,30 C26.206,30 28,28.206 28,26 C28,23.794 26.206,22 24,22 C21.794,22 20,23.794 20,26 C20,28.206 21.794,30 24,30 Z M24,19 C27.859,19 31,22.141 31,26 C31,29.859 27.859,33 24,33 C20.141,33 17,29.859 17,26 C17,22.141 20.141,19 24,19 Z" mask="url(#icon-camera-outline-b)"/>
  </g>
</svg>
