<svg xmlns="http://www.w3.org/2000/svg" xmlns:xlink="http://www.w3.org/1999/xlink" width="48" height="48" viewBox="0 0 48 48">
  <defs>
    <rect id="列表模式2px-a" width="48" height="48" x="0" y="0"/>
  </defs>
  <g fill="none" fill-rule="evenodd">
    <mask id="列表模式2px-b" fill="#fff">
      <use xlink:href="#列表模式2px-a"/>
    </mask>
    <path fill="#999" d="M27.4285714,12.7346939 C26.8875578,12.7346939 26.4489796,12.2961157 26.4489796,11.755102 C26.4489796,11.2140884 26.8875578,10.7755102 27.4285714,10.7755102 L38.2040816,10.7755102 C38.7450953,10.7755102 39.1836735,11.2140884 39.1836735,11.755102 C39.1836735,12.2961157 38.7450953,12.7346939 38.2040816,12.7346939 L27.4285714,12.7346939 Z M38.2040816,17.6326531 C38.7450953,17.6326531 39.1836735,18.0712313 39.1836735,18.6122449 C39.1836735,19.1532585 38.7450953,19.5918367 38.2040816,19.5918367 L27.4285714,19.5918367 C26.8875578,19.5918367 26.4489796,19.1532585 26.4489796,18.6122449 C26.4489796,18.0712313 26.8875578,17.6326531 27.4285714,17.6326531 L38.2040816,17.6326531 Z M38.2040816,27.4285714 C38.7450953,27.4285714 39.1836735,27.8671496 39.1836735,28.4081633 C39.1836735,28.9491769 38.7450953,29.3877551 38.2040816,29.3877551 L27.4285714,29.3877551 C26.8875578,29.3877551 26.4489796,28.9491769 26.4489796,28.4081633 C26.4489796,27.8671496 26.8875578,27.4285714 27.4285714,27.4285714 L38.2040816,27.4285714 Z M38.2040816,34.2857143 C38.7450953,34.2857143 39.1836735,34.7242925 39.1836735,35.2653061 C39.1836735,35.8063198 38.7450953,36.244898 38.2040816,36.244898 L27.4285714,36.244898 C26.8875578,36.244898 26.4489796,35.8063198 26.4489796,35.2653061 C26.4489796,34.7242925 26.8875578,34.2857143 27.4285714,34.2857143 L38.2040816,34.2857143 Z M19.5918367,8.81632653 C21.2148776,8.81632653 22.5306122,10.1320611 22.5306122,11.755102 L22.5306122,18.6122449 C22.5306122,20.2352858 21.2148776,21.5510204 19.5918367,21.5510204 L12.7346939,21.5510204 C11.111653,21.5510204 9.79591837,20.2352858 9.79591837,18.6122449 L9.79591837,11.755102 C9.79591837,10.1320611 11.111653,8.81632653 12.7346939,8.81632653 L19.5918367,8.81632653 Z M20.5714286,18.6122449 L20.5714286,11.755102 C20.5714286,11.2140884 20.1328504,10.7755102 19.5918367,10.7755102 L12.7346939,10.7755102 C12.1936802,10.7755102 11.755102,11.2140884 11.755102,11.755102 L11.755102,18.6122449 C11.755102,19.1532585 12.1936802,19.5918367 12.7346939,19.5918367 L19.5918367,19.5918367 C20.1328504,19.5918367 20.5714286,19.1532585 20.5714286,18.6122449 Z M19.5918367,25.4693878 C21.2148776,25.4693878 22.5306122,26.7851224 22.5306122,28.4081633 L22.5306122,35.2653061 C22.5306122,36.888347 21.2148776,38.2040816 19.5918367,38.2040816 L12.7346939,38.2040816 C11.111653,38.2040816 9.79591837,36.888347 9.79591837,35.2653061 L9.79591837,28.4081633 C9.79591837,26.7851224 11.111653,25.4693878 12.7346939,25.4693878 L19.5918367,25.4693878 Z M20.5714286,35.2653061 L20.5714286,28.4081633 C20.5714286,27.8671496 20.1328504,27.4285714 19.5918367,27.4285714 L12.7346939,27.4285714 C12.1936802,27.4285714 11.755102,27.8671496 11.755102,28.4081633 L11.755102,35.2653061 C11.755102,35.8063198 12.1936802,36.244898 12.7346939,36.244898 L19.5918367,36.244898 C20.1328504,36.244898 20.5714286,35.8063198 20.5714286,35.2653061 Z" mask="url(#列表模式2px-b)"/>
  </g>
</svg>
