<svg xmlns="http://www.w3.org/2000/svg" width="26" height="34" viewBox="0 0 26 34">
  <path fill="#FF2741" d="M12.9627158,18.3542892 C9.7655013,18.3542892 7.1723688,15.7571233 7.1723688,12.5549359 C7.1723688,9.3527484 9.7655013,6.7570582 12.9627158,6.7570582 C16.1599303,6.7570582 18.7530628,9.3527484 18.7530628,12.5549359 C18.7530628,15.7571233 16.1599303,18.3542892 12.9627158,18.3542892 M13.1557274,0 C5.9317906,0 0,6.4265098 0,14.372952 C0,16.1245633 0.5392537,17.9942276 1.4026489,20.0985222 C2.3736003,22.1998655 3.7747758,24.4207374 5.3910636,26.7581867 C6.5786004,28.2766433 7.8722199,29.7965756 9.0582833,31.1984549 L10.2443468,32.4837569 C10.4609323,32.7169115 10.6760444,32.8349645 10.6760444,32.9485905 C11.9696639,34.3504698 14.1266787,34.3504698 15.3127422,32.9485905 L16.9305032,31.1955036 C18.2241228,29.7936243 19.4101862,28.273692 20.5962497,26.7552353 C22.3230402,24.5343634 23.7227424,22.1969141 24.5861376,20.0955708 C25.557089,17.9912762 25.9873132,16.1216119 25.9873132,14.3700007 C26.3114548,6.4265098 20.3811375,0 13.1557274,0"/>
</svg>
