<?xml version="1.0" encoding="utf-8"?>
<!-- Generator: Adobe Illustrator 21.0.0, SVG Export Plug-In . SVG Version: 6.00 Build 0)  -->
<svg version="1.1" id="线形" xmlns="http://www.w3.org/2000/svg" xmlns:xlink="http://www.w3.org/1999/xlink" x="0px" y="0px"
	 viewBox="0 0 48 48" style="enable-background:new 0 0 48 48;" xml:space="preserve">
<style type="text/css">
	.st0{fill:none;}
	.st1{fill:#030000;}
	.st2{fill:#221714;}
	.st3{fill:#040000;}
</style>
<g>
	<rect class="st0" width="48" height="48"/>
	<g>
		<path d="M20.4,33.7c-2,0-3.7,1.6-3.7,3.6s1.6,3.6,3.7,3.6c2,0,3.7-1.6,3.7-3.6S22.5,33.7,20.4,33.7z M20.4,39
			c-0.9,0-1.7-0.7-1.7-1.6s0.7-1.6,1.7-1.6s1.7,0.7,1.7,1.6S21.4,39,20.4,39z"/>
		<path d="M32.9,33.7c-2,0-3.7,1.6-3.7,3.6s1.6,3.6,3.7,3.6c2,0,3.7-1.6,3.7-3.6S34.9,33.7,32.9,33.7z M32.9,39
			c-0.9,0-1.7-0.7-1.7-1.6s0.7-1.6,1.7-1.6c0.9,0,1.7,0.7,1.7,1.6S33.8,39,32.9,39z"/>
		<path d="M40.5,14.2c-0.5-0.8-1.4-1.2-2.3-1.2h-23c-0.1,0-0.2,0-0.3,0.1l-0.3-1.7C14.3,10,13.2,9,11.8,9H8c-0.6,0-1,0.4-1,1
			s0.4,1,1,1h3.8c0.4,0,0.7,0.3,0.8,0.7l3,18.1c0.2,1.4,1.4,2.4,2.7,2.4h17.2c0.6,0,1-0.4,1-1s-0.4-1-1-1H18.4
			c-0.4,0-0.7-0.3-0.8-0.7l-0.4-2.2H35c1.2,0,2.2-0.8,2.7-1.9l3.2-8.6C41.2,16,41,15,40.5,14.2z M38.9,16.2l-3.2,8.6
			c-0.1,0.3-0.4,0.6-0.8,0.6h-18c0,0,0,0,0,0L15.2,15h23c0.4,0,0.6,0.2,0.7,0.4C39,15.6,39,15.9,38.9,16.2z"/>
	</g>
</g>
</svg>
