<svg xmlns="http://www.w3.org/2000/svg" xmlns:xlink="http://www.w3.org/1999/xlink" width="48" height="48" viewBox="0 0 48 48">
  <defs>
    <polygon id="日历-a" points="0 0 48 0 48 48 0 48"/>
  </defs>
  <g fill="none" fill-rule="evenodd">
    <mask id="日历-b" fill="#fff">
      <use xlink:href="#日历-a"/>
    </mask>
    <path fill="#999" d="M39.75,17.531 L39.75,12.187 C39.75,11.255 38.995,10.5 38.062,10.5 L31.594,10.5 L31.594,12.187 C31.594,12.808 31.09,13.312 30.469,13.312 C29.848,13.312 29.344,12.808 29.344,12.187 L29.344,10.5 L18.656,10.5 L18.656,12.187 C18.656,12.808 18.152,13.312 17.531,13.312 C16.91,13.312 16.406,12.808 16.406,12.187 L16.406,10.5 L9.938,10.5 C9.004,10.5 8.25,11.255 8.25,12.187 L8.25,17.531 L39.75,17.531 Z M39.75,38.062 L39.75,19.781 L8.25,19.781 L8.25,38.062 C8.25,38.995 9.005,39.75 9.938,39.75 L38.062,39.75 C38.995,39.75 39.75,38.995 39.75,38.062 Z M38.062,8.25 C40.236,8.25 42,10.01 42,12.187 L42,38.062 C42,40.237 40.239,42 38.062,42 L9.938,42 C7.763,42 6,40.239 6,38.062 L6,12.187 C6,10.012 7.761,8.25 9.938,8.25 L16.406,8.25 L16.406,7.125 C16.406,6.504 16.91,6 17.531,6 C18.152,6 18.656,6.504 18.656,7.125 L18.656,8.25 L29.344,8.25 L29.344,7.125 C29.344,6.504 29.848,6 30.469,6 C31.09,6 31.594,6.504 31.594,7.125 L31.594,8.25 L38.062,8.25 Z M22.3125,35.8123 C21.6915,35.8123 21.1875,35.3083 21.1875,34.6873 C21.1875,34.0663 21.6915,33.5623 22.3125,33.5623 L25.6875,33.5623 C26.3085,33.5623 26.8125,34.0663 26.8125,34.6873 C26.8125,35.3083 26.3085,35.8123 25.6875,35.8123 L22.3125,35.8123 Z M12.1875,25.6873 C11.5665,25.6873 11.0625,25.1833 11.0625,24.5623 C11.0625,23.9413 11.5665,23.4373 12.1875,23.4373 L15.5625,23.4373 C16.1835,23.4373 16.6875,23.9413 16.6875,24.5623 C16.6875,25.1833 16.1835,25.6873 15.5625,25.6873 L12.1875,25.6873 Z M22.3125,25.6873 C21.6915,25.6873 21.1875,25.1833 21.1875,24.5623 C21.1875,23.9413 21.6915,23.4373 22.3125,23.4373 L25.6875,23.4373 C26.3085,23.4373 26.8125,23.9413 26.8125,24.5623 C26.8125,25.1833 26.3085,25.6873 25.6875,25.6873 L22.3125,25.6873 Z M32.4375,25.6873 C31.8165,25.6873 31.3125,25.1833 31.3125,24.5623 C31.3125,23.9413 31.8165,23.4373 32.4375,23.4373 L35.8125,23.4373 C36.4335,23.4373 36.9375,23.9413 36.9375,24.5623 C36.9375,25.1833 36.4335,25.6873 35.8125,25.6873 L32.4375,25.6873 Z M12.1875,30.7498 C11.5665,30.7498 11.0625,30.2458 11.0625,29.6248 C11.0625,29.0038 11.5665,28.4998 12.1875,28.4998 L15.5625,28.4998 C16.1835,28.4998 16.6875,29.0038 16.6875,29.6248 C16.6875,30.2458 16.1835,30.7498 15.5625,30.7498 L12.1875,30.7498 Z M22.3125,30.7498 C21.6915,30.7498 21.1875,30.2458 21.1875,29.6248 C21.1875,29.0038 21.6915,28.4998 22.3125,28.4998 L25.6875,28.4998 C26.3085,28.4998 26.8125,29.0038 26.8125,29.6248 C26.8125,30.2458 26.3085,30.7498 25.6875,30.7498 L22.3125,30.7498 Z M32.4375,30.7498 C31.8165,30.7498 31.3125,30.2458 31.3125,29.6248 C31.3125,29.0038 31.8165,28.4998 32.4375,28.4998 L35.8125,28.4998 C36.4335,28.4998 36.9375,29.0038 36.9375,29.6248 C36.9375,30.2458 36.4335,30.7498 35.8125,30.7498 L32.4375,30.7498 Z M12.1875,35.8123 C11.5665,35.8123 11.0625,35.3083 11.0625,34.6873 C11.0625,34.0663 11.5665,33.5623 12.1875,33.5623 L15.5625,33.5623 C16.1835,33.5623 16.6875,34.0663 16.6875,34.6873 C16.6875,35.3083 16.1835,35.8123 15.5625,35.8123 L12.1875,35.8123 Z M32.4375,35.8123 C31.8165,35.8123 31.3125,35.3083 31.3125,34.6873 C31.3125,34.0663 31.8165,33.5623 32.4375,33.5623 L35.8125,33.5623 C36.4335,33.5623 36.9375,34.0663 36.9375,34.6873 C36.9375,35.3083 36.4335,35.8123 35.8125,35.8123 L32.4375,35.8123 Z" mask="url(#日历-b)"/>
  </g>
</svg>
