<svg xmlns="http://www.w3.org/2000/svg" xmlns:xlink="http://www.w3.org/1999/xlink" width="48" height="48" viewBox="0 0 48 48">
  <defs>
    <path id="查看3px-a" d="M9.82883536,23.8983 C10.8828485,25.957 15.157552,33.05365 23.9968125,33.05365 C32.7646721,33.05365 37.0988762,25.9383 38.1630895,23.8949 C37.1022763,21.82005 32.836923,14.7455 23.9968125,14.7455 C15.1354517,14.7455 10.8760485,21.84215 9.82883536,23.8983 Z M23.9968125,35.8 C12.1493644,35.8 7.31450393,24.93105 7.11475143,24.4678 C7.03910049,24.29355 7,24.104 7,23.91275 C7,23.7232 7.03825048,23.50985 7.1122014,23.3373 C7.31025388,22.87405 12.0881636,12 23.9968125,12 C35.9250116,12 40.6927212,22.88935 40.8890736,23.35175 C41.0369755,23.70195 41.0369755,24.09805 40.8890736,24.4474 C40.6927212,24.91065 35.9250116,35.8 23.9968125,35.8 Z M24.0001275,21.154075 C22.520259,21.154075 21.3157939,22.385725 21.3157939,23.899575 C21.3157939,25.414275 22.520259,26.645925 24.0001275,26.645925 C25.479996,26.645925 26.6844611,25.414275 26.6844611,23.899575 C26.6844611,22.385725 25.479996,21.154075 24.0001275,21.154075 Z M24.0001275,29.392275 C21.0403905,29.392275 18.6323104,26.928975 18.6323104,23.899575 C18.6323104,20.871025 21.0403905,18.407725 24.0001275,18.407725 C26.9598645,18.407725 29.3679446,20.871025 29.3679446,23.899575 C29.3679446,26.928975 26.9598645,29.392275 24.0001275,29.392275 Z"/>
  </defs>
  <use fill="#999" fill-rule="evenodd" xlink:href="#查看3px-a"/>
</svg>
