<?xml version="1.0" encoding="UTF-8"?>
<svg width="34px" height="34px" viewBox="0 0 34 34" version="1.1" xmlns="http://www.w3.org/2000/svg" xmlns:xlink="http://www.w3.org/1999/xlink">
    <!-- Generator: Sketch 53.2 (72643) - https://sketchapp.com -->
    <title>形状结合</title>
    <desc>Created with Sketch.</desc>
    <g id="组件" stroke="none" stroke-width="1" fill="none" fill-rule="evenodd">
        <g id="icon/线形/等待2px" transform="translate(-7.000000, -7.000000)" fill="#000000">
            <g id="形状结合">
                <path d="M25,14 C25.5522847,14 26,14.4477153 26,15 L26,24.32 C26.001658,24.6277803 25.861492,24.9191779 25.62,25.11 L19.62,29.79 C19.4427458,29.9275751 19.2243737,30.0015399 19,30 C18.5713318,30.0029682 18.1884556,29.7323841 18.0481527,29.3273158 C17.9078497,28.9222475 18.0413337,28.4728125 18.38,28.21 L24,23.83 L24,15 C24,14.4477153 24.4477153,14 25,14 Z M24,7 C33.3888407,7 41,14.6111593 41,24 C41,33.3888407 33.3888407,41 24,41 C14.6111593,41 7,33.3888407 7,24 C7,14.6111593 14.6111593,7 24,7 Z M24,39 C27.9782473,39 31.793556,37.4196474 34.6066017,34.6066017 C37.4196474,31.793556 39,27.9782473 39,24 C39,15.7157288 32.2842712,9 24,9 C15.7157288,9 9,15.7157288 9,24 C9,32.2842712 15.7157288,39 24,39 Z"></path>
            </g>
        </g>
    </g>
</svg>