<svg xmlns="http://www.w3.org/2000/svg" width="38" height="30" viewBox="0 0 38 30">
  <path fill="#56D345" d="M25.8,9.1 C26.2,9.1 26.7,9.1 27.1,9.2 C25.9,4 20.1,0.1 13.5,0.1 C6.1,-2.68951528e-14 0,4.9 0,11.1 C0,14.7 2,17.6 5.4,19.9 L4,23.8 L8.7,21.5 C10.4,21.8 11.7,22.2 13.4,22.2 C13.8,22.2 14.2,22.2 14.7,22.1 C14.4,21.2 14.3,20.3 14.3,19.4 C14.3,13.7 19.4,9.1 25.8,9.1 L25.8,9.1 Z M18.4,5.3 C19.6,5.3 20.5,6.2 20.5,7.3 C20.5,8.4 19.6,9.3 18.4,9.3 C17.2,9.3 16.3,8.4 16.3,7.3 C16.4,6.2 17.3,5.3 18.4,5.3 L18.4,5.3 Z M9,9.3 C7.8,9.3 6.9,8.4 6.9,7.3 C6.9,6.2 7.8,5.3 9,5.3 C10.2,5.3 11.1,6.2 11.1,7.3 C11.1,8.4 10.2,9.3 9,9.3 L9,9.3 Z M38,19.3 C38,14.1 32.6,9.9 26.5,9.9 C20.1,9.9 15,14.1 15,19.3 C15,24.5 20.1,28.7 26.5,28.7 C27.8,28.7 29.2,28.4 30.5,28 L34.2,30 L33.2,26.7 C36,24.8 38,22.2 38,19.3 L38,19.3 Z M23,17.8 C22.2,17.8 21.5,17.2 21.5,16.4 C21.5,15.6 22.2,15 23,15 C23.8,15 24.5,15.6 24.5,16.4 C24.5,17.2 23.8,17.8 23,17.8 L23,17.8 Z M30.4,17.9 C29.6,17.9 28.9,17.3 28.9,16.5 C28.9,15.7 29.6,15.1 30.4,15.1 C31.2,15.1 31.9,15.7 31.9,16.5 C31.9,17.2 31.3,17.9 30.4,17.9 L30.4,17.9 Z"/>
</svg>
