<?xml version="1.0" encoding="utf-8"?>
<!-- Generator: Adobe Illustrator 21.0.0, SVG Export Plug-In . SVG Version: 6.00 Build 0)  -->
<svg version="1.1" id="线形" xmlns="http://www.w3.org/2000/svg" xmlns:xlink="http://www.w3.org/1999/xlink" x="0px" y="0px"
	 viewBox="0 0 48 48" style="enable-background:new 0 0 48 48;" xml:space="preserve">
<style type="text/css">
	.st0{fill:none;}
	.st1{fill:#030000;}
	.st2{fill:#040000;}
	.st3{fill:#231815;}
	.st4{fill:none;stroke:#000000;stroke-linecap:round;stroke-linejoin:round;stroke-miterlimit:10;}
	.st5{fill:none;stroke:#000000;stroke-miterlimit:10;}
	.st6{fill-rule:evenodd;clip-rule:evenodd;fill:#030000;}
	.st7{fill-rule:evenodd;clip-rule:evenodd;}
	.st8{fill:#221714;}
	.st9{fill:none;stroke:#000000;stroke-width:2;stroke-linecap:round;stroke-linejoin:round;stroke-miterlimit:10;}
</style>
<g>
	<rect class="st0" width="48" height="48"/>
	<g>
		<path d="M41,17.1c0-0.1,0-0.1,0-0.2c0-0.1,0-0.1,0-0.2c0-0.3-0.1-0.7-0.2-1C39.3,8.6,37,8,36.3,8h-25l-0.2,0.1
			C9,9,7.4,14.6,7,16.3c0,0.2,0,0.3,0,0.5c0,0.2,0,0.3,0,0.5c0,3.3,2.7,6,6.1,6c2.2,0,4.3-1.2,5.5-3c1,1.7,2.9,3,5.5,3
			c2.4,0,4.2-0.9,5.1-2.7c1.2,1.6,3.2,2.7,5.5,2.7c3.5,0,6.3-2.7,6.3-6C41,17.2,41,17.1,41,17.1z M34.7,21.2c-2.4,0-4.5-1.8-4.6-3.9
			c0-0.2,0-0.5,0-0.8c0-0.6-0.4-1-1-1s-1,0.4-1,1c0,0.3,0,0.5,0,0.7c0,0,0,0,0,0c0,0,0,0,0,0c-0.3,4-3.1,4-4,4
			c-3.1,0-4.5-2.3-4.5-4.5c0-0.6-0.4-1-1-1s-1,0.4-1,1c0,0,0,0,0,0c0,0.1-0.1,0.2-0.1,0.4c0,2.2-2.1,4.1-4.4,4.1
			c-2.3,0-4.1-1.8-4.1-4c0-0.4,0.1-0.7,0.2-1.1c0-0.1,0-0.1,0-0.2c0.8-2.9,1.9-5.4,2.6-6h24.4c0.2,0.1,1.5,1,2.6,5.9
			c0,0,0,0.1,0,0.1c0,0,0,0.1,0,0.1c0.1,0.3,0.1,0.6,0.2,0.9c0,0.1,0,0.2,0,0.3C39,19.5,37.1,21.2,34.7,21.2z"/>
		<path d="M37.3,25.6c-0.6,0-1,0.4-1,1v10.3c0,0.6-0.4,1.1-0.7,1.1H29v-7.7c0-1.6-1.2-2.9-2.6-2.9h-4.8c-1.4,0-2.6,1.3-2.6,2.9V38
			h-6.6c-0.3,0-0.7-0.4-0.7-1.1V26.6c0-0.6-0.4-1-1-1s-1,0.4-1,1v10.3c0,1.7,1.2,3.1,2.7,3.1h23.2c1.5,0,2.7-1.4,2.7-3.1V26.6
			C38.3,26.1,37.9,25.6,37.3,25.6z M21,30.3c0-0.5,0.3-0.9,0.6-0.9h4.8c0.3,0,0.6,0.4,0.6,0.9V38h-6V30.3z"/>
	</g>
</g>
</svg>
