<svg xmlns="http://www.w3.org/2000/svg" width="36" height="29" viewBox="0 0 36 29">
  <path fill="#999" d="M35.88,14.14 L31.2,5.52 C31.0241028,5.1985196 30.6864539,4.9989998 30.32,5 L23,5 L23,2.93 C23.0133766,2.1661432 22.7227047,1.4282699 22.1919522,0.8787629 C21.6611997,0.3292559 20.9338608,0.0131463 20.17,0 L2.83,0 C2.06613923,0.0131463 1.33880027,0.3292559 0.8080478,0.8787629 C0.27729532,1.4282699 -0.01337655,2.1661432 1.02140518e-14,2.93 L1.02140518e-14,22.07 C-0.01337655,22.8338568 0.27729532,23.5717301 0.8080478,24.1212371 C1.33880027,24.6707441 2.06613923,24.9868537 2.83,25 L5.28,25 C5.9066915,26.794264 7.5994408,27.9960597 9.5,27.9960597 C11.4005592,27.9960597 13.0933085,26.794264 13.72,25 L24,25 C24.0863563,25.0103734 24.1736437,25.0103734 24.26,25 C24.8780208,26.8091651 26.5781873,28.0250087 28.49,28.0250087 C30.4018127,28.0250087 32.1019792,26.8091651 32.72,25 L33.16,25 C34.7680995,24.9456256 36.0337561,23.6086644 36,22 L36,14.61 C35.9991798,14.4458591 35.9579674,14.2844437 35.88,14.14 Z M33.53,14 L27.83,14 C27.4131724,14.0294579 27.0471758,13.7251957 27,13.31 L27,11.69 C27.0471758,11.2748043 27.4131724,10.9705421 27.83,11 L31.9,11 L33.53,14 Z M2,22.07 L2,2.93 C1.97714081,2.4456626 2.34619041,2.0321492 2.83,2 L20.17,2 C20.6538096,2.0321492 21.0228592,2.4456626 21,2.93 L21,23 L14,23 C13.737277,20.741231 11.8239967,19.0375906 9.55,19.0375906 C7.2760033,19.0375906 5.362723,20.741231 5.1,23 L2.83,23 C2.34619041,22.9678508 1.97714081,22.5543374 2,22.07 L2,22.07 Z M9.5,26 C8.1192881,26 7,24.8807119 7,23.5 C7,22.1192881 8.1192881,21 9.5,21 C10.8807119,21 12,22.1192881 12,23.5 C12,24.8807119 10.8807119,26 9.5,26 Z M28.5,26 C27.1192881,26 26,24.8807119 26,23.5 C26,22.1192881 27.1192881,21 28.5,21 C29.8807119,21 31,22.1192881 31,23.5 C31,24.8807119 29.8807119,26 28.5,26 Z M33.16,23 L33,23 C32.7821898,20.7052218 30.8550919,18.9523742 28.55,18.9523742 C26.2449081,18.9523742 24.3178102,20.7052218 24.1,23 L23,23 L23,7 L29.73,7 L30.81,9 L27.81,9 C26.2953743,8.9774987 25.0435814,10.1758342 25,11.69 L25,13.31 C25.0436068,14.8321034 26.307643,16.0336078 27.83,16 L34.0001658,16 L34.0001658,22 C34.006376,22.4953928 33.6490578,22.9207716 33.16,23 Z"/>
</svg>
