<svg xmlns="http://www.w3.org/2000/svg" xmlns:xlink="http://www.w3.org/1999/xlink" width="48" height="48" viewBox="0 0 48 48">
  <defs>
    <rect id="关闭2-a" width="48" height="48" x="0" y="0"/>
  </defs>
  <g fill="none" fill-rule="evenodd">
    <mask id="关闭2-b" fill="#fff">
      <use xlink:href="#关闭2-a"/>
    </mask>
    <path fill="#999" d="M26.1,24 L36.5,13.6 C37.1,13 37.1,12.1 36.5,11.5 C35.9,10.9 35,10.9 34.4,11.5 L24,21.9 L13.6,11.4 C13,10.8 12.1,10.8 11.5,11.4 C10.9,12 10.9,12.9 11.5,13.5 L21.9,24 L11.4,34.4 C10.8,35 10.8,35.9 11.4,36.5 C11.7,36.8 12.1,36.9 12.5,36.9 C12.9,36.9 13.3,36.8 13.6,36.5 L24,26.1 L34.4,36.5 C34.7,36.8 35.1,36.9 35.5,36.9 C35.9,36.9 36.3,36.8 36.6,36.5 C37.2,35.9 37.2,35 36.6,34.4 L26.1,24 Z" mask="url(#关闭2-b)"/>
  </g>
</svg>
