<svg xmlns="http://www.w3.org/2000/svg" width="32" height="32" viewBox="0 0 32 32">
  <path fill="#999" d="M7.8162325,3.001912 C6.5661978,3.001912 5.4431667,3.9119372 4.445139,4.7229597 C4.2491336,4.8829642 4.0521281,5.0419686 3.8631229,5.1869726 C3.2661063,5.6449853 3.074101,6.4710082 3.0200995,7.0820251 C2.8280942,9.2160843 4.049128,14.4742301 9.8342885,20.635401 C15.260439,26.4145613 20.9315962,29.001633 24.1446853,29.001633 C24.962708,29.001633 25.610726,28.8356284 26.0197373,28.5216197 C26.0347378,28.5106194 26.0497382,28.4996191 26.0657386,28.4886188 C26.2397434,28.3546151 26.4247486,28.2186113 26.6137538,28.0796074 C27.7077842,27.2805853 28.9488186,26.3735601 28.99982,25.250529 C29.034821,24.4725074 28.5108064,23.6254839 27.3977756,22.6604572 C23.95268,19.697375 22.6876449,20.6894025 20.9385964,22.0604405 L20.70559,22.2444456 C20.3935813,22.4924525 20.0015704,22.6034556 19.5975592,22.5564543 C18.328524,22.40245 16.3834701,20.9204089 13.6503943,18.0213285 C9.6802842,13.7562102 9.6492833,12.3511713 9.6402831,11.8901585 C9.6302828,11.4121452 9.8482889,10.9591327 10.2262994,10.6681246 L10.4753063,10.4761193 C12.2553556,9.1170816 13.3273854,8.2990589 10.8233159,4.9559662 C9.9322912,3.7569329 9.0432665,3.1249154 8.1042405,3.0169124 C8.0072378,3.0069121 7.9112351,3.001912 7.8162325,3.001912 L7.8162325,3.001912 Z M24.1446853,32.0017162 C19.4345547,32.0017162 12.9583751,28.3466149 7.6472278,22.6874579 C1.56505916,16.2102783 -0.27399185,10.2401127 0.03201664,6.8130177 C0.19002102,5.0769695 0.88304024,3.6919311 2.0360722,2.8079066 C2.2000768,2.6829031 2.3720815,2.5428993 2.5490864,2.3968952 C3.8571227,1.33686581 5.8191771,-0.26317856 8.4412498,0.03682976 C10.2513,0.24183544 11.8163434,1.26486382 13.2283826,3.1619164 C16.6894786,7.7810445 15.2884397,10.3551159 12.9373745,12.3481712 C13.3073848,12.9751886 14.1104071,14.1122201 15.840455,15.9702716 C17.8195099,18.0693298 18.9795421,18.9633546 19.5635583,19.336365 C21.9596247,17.5603157 24.7577023,16.4352845 29.3578299,20.3893942 C31.2138814,21.9984388 32.0749053,23.6314841 31.994903,25.3865328 C31.8798999,27.9456037 29.7758415,29.4846464 28.3838029,30.5026746 C28.1977977,30.6386784 28.0197928,30.769682 27.8517881,30.8986856 C27.8327876,30.912686 27.8157871,30.9266864 27.7977866,30.9386867 C26.8537605,31.6437063 25.6247264,32.0017162 24.1446853,32.0017162 L24.1446853,32.0017162 Z"/>
</svg>
