<svg xmlns="http://www.w3.org/2000/svg" width="34" height="34" viewBox="0 0 34 34">
  <path fill="#333" d="M17.021,2 C12.61,2 9.021,5.589 9.021,10 C9.021,12.294 10.009,14.482 11.732,16.002 C11.994,16.233 12.116,16.585 12.054,16.929 C11.992,17.273 11.755,17.56 11.428,17.686 C5.613,19.921 2,25.031 2,31.021 C2,31.561 2.44,32 2.98,32 L31.021,32 C31.561,32 32,31.561 32,31.021 C32,25.089 28.386,19.992 22.569,17.718 C22.244,17.591 22.008,17.303 21.948,16.958 C21.888,16.613 22.012,16.263 22.276,16.033 C24.02,14.512 25.021,12.313 25.021,10 C25.021,5.589 21.432,2 17.021,2 M31.021,34 L2.98,34 C1.337,34 0,32.664 0,31.021 C0,24.668 3.543,19.189 9.344,16.408 C7.854,14.621 7.021,12.355 7.021,10 C7.021,4.486 11.507,0 17.021,0 C22.535,0 27.021,4.486 27.021,10 C27.021,12.378 26.175,14.659 24.662,16.452 C30.459,19.264 34,24.727 34,31.021 C34,32.664 32.664,34 31.021,34"/>
</svg>
