<svg xmlns="http://www.w3.org/2000/svg" width="34" height="32" viewBox="0 0 34 32">
  <path fill="#999" d="M17,10 C20.3,10 23,12.7 23,16 C23,19.3 20.3,22 17,22 C13.7,22 11,19.3 11,16 C11,12.7 13.7,10 17,10 Z M17,19 C18.7,19 20,17.6 20,16 C20,14.3 18.7,13 17,13 C15.3,13 14,14.3 14,16 C14,17.7 15.3,19 17,19 Z M33.7,13.1 C34.2,15.3 34,17.9 33.5,20.1 C33.2,21.2 31.8,21 30.9,21.2 C30,21.4 29.2,21.8 28.6,22.5 C27.9,23.4 27.6,24.6 27.9,25.7 C28.2,26.8 29,27.7 28.1,28.7 C27.3,29.6 26.2,30.1 25.2,30.7 C24.3,31.2 23.4,31.8 22.4,31.9 C22.4,31.9 22.3,31.9 22.3,31.9 C21.2,31.9 21,30.8 20.3,30.2 C19.5,29.4 18.5,29 17.4,29 C16.4,29 15.2,29.4 14.5,30.2 C14,30.7 13.8,31.5 13.1,31.8 C12.9,32 12.6,32 12.4,32 C11.7,32 10.9,31.6 10.3,31.3 C9.4,30.9 8.5,30.4 7.6,29.9 C6.9,29.5 5.7,28.8 5.8,27.8 C5.8,27.3 6.2,26.9 6.4,26.4 C6.6,26 6.6,25.5 6.6,25 C6.5,23.2 5.1,21.7 3.4,21.3 C2.5,21.1 1.3,21.5 0.7,20.7 C0.2,20 0.2,18.9 0.1,18 C0.1,16.9 -1.24344979e-14,15.9 0.1,14.8 C0.2,14 0.2,12.6 0.7,11.9 C1.1,11.3 1.8,11.3 2.5,11.3 C2.6,11.3 2.7,11.3 2.8,11.3 C3.2,11.3 3.5,11.3 3.8,11.2 C4.7,11 5.5,10.3 6,9.5 C6.6,8.5 6.7,7.2 6.3,6.1 C6,5.4 5.3,4.8 5.6,4 C5.9,3.1 7.3,2.5 8,2 C8.9,1.4 9.9,0.9 10.9,0.5 C11.4,0.3 11.9,0.1 12.4,0.1 C12.8,0.1 13.1,0.2 13.4,0.5 C14,1.1 14.2,1.8 14.9,2.3 C15.6,2.8 16.4,3.1 17.3,3.1 C18.1,3.1 19,2.8 19.7,2.3 C20.4,1.8 20.7,0.7 21.5,0.4 C21.7,0.3 21.8,0.3 22,0.3 C22.8,0.3 23.6,0.8 24.2,1.1 C25.3,1.6 26.3,2.2 27.2,2.9 C27.9,3.4 28.8,4 28.5,5 C28.2,6.1 27.5,6.9 27.7,8.1 C27.8,9.1 28.4,10 29.2,10.6 C30.2,11.3 31.2,11.2 32.4,11.4 C33.3,11.5 33.5,12.3 33.7,13.1 Z M30.8,18.1 C31,16.7 31.1,15.3 30.9,14.2 C30,14.1 28.8,13.9 27.5,13 C26.1,11.9 25.1,10.3 24.8,8.5 C24.6,7.1 25,5.9 25.3,5.1 C24.5,4.6 23.8,4.2 23,3.8 C22.8,3.7 22.7,3.7 22.6,3.6 C22.3,4 22,4.4 21.5,4.7 C20.3,5.5 18.8,6 17.3,6 C15.8,6 14.3,5.5 13.1,4.7 C12.5,4.3 12.1,3.8 11.8,3.4 C10.9,3.8 10.1,4.2 9.5,4.6 C9.4,4.6 9.2,4.7 9.1,4.8 C9,4.8 9,4.9 8.9,4.9 C8.9,4.9 8.9,5 8.9,5 C9.6,6.9 9.4,9.2 8.3,11 C7.4,12.4 5.9,13.6 4.3,14 C3.9,14.1 3.4,14.2 3,14.2 C3,14.4 3,14.5 3,14.6 L3,15 C3,15.9 3,16.9 3.2,17.8 L3.2,17.9 C3.2,18 3.2,18.1 3.2,18.2 C3.5,18.2 3.9,18.2 4.2,18.3 C7.3,19 9.6,21.6 9.7,24.7 C9.7,25.6 9.6,26.5 9.3,27.3 C9.9,27.7 10.6,28 11.4,28.4 L11.6,28.5 L11.8,28.6 C11.9,28.4 12,28.3 12.2,28.1 C13.4,26.7 15.3,25.9 17.3,25.9 C17.4,25.9 17.4,25.9 17.4,25.9 C19.3,25.9 21.1,26.6 22.4,27.9 C22.5,28.1 22.7,28.2 22.8,28.4 C22.9,28.4 23.1,28.3 23.2,28.2 C23.3,28.2 23.5,28.1 23.6,28 C23.7,27.9 23.9,27.8 24.1,27.7 C24.5,27.5 24.8,27.3 25.1,27.1 C25.1,26.9 25,26.6 24.9,26.3 C24.4,24.3 24.9,22.1 26.2,20.5 C27.2,19.4 28.5,18.6 30.1,18.2 C30.3,18.2 30.6,18.1 30.8,18.1 Z"/>
</svg>
