<svg xmlns="http://www.w3.org/2000/svg" width="30" height="36" viewBox="0 0 30 36">
  <path fill="#999" d="M15,0 C23.3,0 30,6 30,13.4 C30,20.1 23.1,28.4 19.2,32.9 C18.9,33.4 18.5,33.8 18.2,34.2 L18,34.5 C17.3,35.4 16.2,36 15,36 C15,36 14.9,36 14.9,36 C13.7,36 12.7,35.5 11.9,34.7 L11.6,34.4 C11.3,34.1 11,33.6 10.6,33.1 L10.4,32.8 C6.5,28 0,20 0,13.4 C0,6 6.7,0 15,0 Z M17,31.1 C20.2,27.2 27,19 27,13.4 C27,7.6 21.6,3 15,3 C8.4,3 3,7.6 3,13.4 C3,18.9 9.3,26.7 12.7,30.9 L13,31.2 C13.4,31.7 13.7,32.1 14,32.4 L14.3,32.7 C14.4,32.9 14.7,33 15,33 C15.3,33 15.6,32.9 15.7,32.7 L16,32.3 C16.3,32 16.6,31.6 17,31.1 Z M15,7 C18.3,7 21,9.7 21,13 C21,16.3 18.3,19 15,19 C11.7,19 9,16.3 9,13 C9,9.7 11.7,7 15,7 Z M15,16 C16.7,16 18,14.7 18,13 C18,11.3 16.7,10 15,10 C13.3,10 12,11.3 12,13 C12,14.7 13.3,16 15,16 Z"/>
</svg>
