<svg xmlns="http://www.w3.org/2000/svg" xmlns:xlink="http://www.w3.org/1999/xlink" width="48" height="48" viewBox="0 0 48 48">
  <defs>
    <rect id="地址3px-a" width="48" height="48" x="0" y="0"/>
  </defs>
  <g fill="none" fill-rule="evenodd">
    <mask id="地址3px-b" fill="#fff">
      <use xlink:href="#地址3px-a"/>
    </mask>
    <path fill="#999" d="M24,6 C32.3,6 39,12 39,19.4 C39,26.1 32.1,34.4 28.2,38.9 C27.9,39.4 27.5,39.8 27.2,40.2 L27,40.5 C26.3,41.4 25.2,42 24,42 C24,42 23.9,42 23.9,42 C22.7,42 21.7,41.5 20.9,40.7 L20.6,40.4 C20.3,40.1 20,39.6 19.6,39.1 L19.4,38.8 C15.5,34 9,26 9,19.4 C9,12 15.7,6 24,6 Z M26,37.1 C29.2,33.2 36,25 36,19.4 C36,13.6 30.6,9 24,9 C17.4,9 12,13.6 12,19.4 C12,24.9 18.3,32.7 21.7,36.9 L22,37.2 C22.4,37.7 22.7,38.1 23,38.4 L23.3,38.7 C23.4,38.9 23.7,39 24,39 C24.3,39 24.6,38.9 24.7,38.7 L25,38.3 C25.3,38 25.6,37.6 26,37.1 Z M24,13 C27.3,13 30,15.7 30,19 C30,22.3 27.3,25 24,25 C20.7,25 18,22.3 18,19 C18,15.7 20.7,13 24,13 Z M24,22 C25.7,22 27,20.7 27,19 C27,17.3 25.7,16 24,16 C22.3,16 21,17.3 21,19 C21,20.7 22.3,22 24,22 Z" mask="url(#地址3px-b)"/>
  </g>
</svg>
