<svg xmlns="http://www.w3.org/2000/svg" width="34" height="24" viewBox="0 0 34 24">
  <path fill="#999" fill-rule="evenodd" d="M2.82883536,11.8983 C3.8828485,13.957 8.157552,21.05365 16.9968125,21.05365 C25.7646721,21.05365 30.0988762,13.9383 31.1630895,11.8949 C30.1022763,9.82005 25.836923,2.7455 16.9968125,2.7455 C8.1354517,2.7455 3.8760485,9.84215 2.82883536,11.8983 Z M16.9968125,23.8 C5.1493644,23.8 0.31450393,12.93105 0.11475143,12.4678 C0.03910049,12.29355 0,12.104 0,11.91275 C0,11.7232 0.03825048,11.50985 0.1122014,11.3373 C0.31025388,10.87405 5.0881636,0 16.9968125,0 C28.9250116,0 33.6927212,10.88935 33.8890736,11.35175 C34.0369755,11.70195 34.0369755,12.09805 33.8890736,12.4474 C33.6927212,12.91065 28.9250116,23.8 16.9968125,23.8 Z M17.0001275,9.154075 C15.520259,9.154075 14.3157939,10.385725 14.3157939,11.899575 C14.3157939,13.414275 15.520259,14.645925 17.0001275,14.645925 C18.479996,14.645925 19.6844611,13.414275 19.6844611,11.899575 C19.6844611,10.385725 18.479996,9.154075 17.0001275,9.154075 Z M17.0001275,17.392275 C14.0403905,17.392275 11.6323104,14.928975 11.6323104,11.899575 C11.6323104,8.871025 14.0403905,6.407725 17.0001275,6.407725 C19.9598645,6.407725 22.3679446,8.871025 22.3679446,11.899575 C22.3679446,14.928975 19.9598645,17.392275 17.0001275,17.392275 Z"/>
</svg>
